<svg width="25" height="18" viewBox="0 0 25 18" fill="none" xmlns="http://www.w3.org/2000/svg">
<path d="M6.26922 17.2433V18H0V13.4062H0.770175V17.2424H6.26922V17.2433ZM24.2298 17.2433H18.7308V18H25V13.4062H24.2307V17.2424L24.2298 17.2433ZM0.770175 0.757566H6.26922V0.000839759H0V4.5947H0.769311V0.758417L0.770175 0.757566ZM24.2298 0.757566V4.59385H25V0H18.7308V0.756716H24.2298V0.757566ZM12.1145 12.6146V17.6212H12.8846V12.6146C12.7577 12.6273 12.6299 12.6341 12.4996 12.6341C12.3692 12.6341 12.2414 12.6273 12.1145 12.6146ZM12.8846 5.38539V0.378783H12.1145V5.38539C12.2414 5.37265 12.3692 5.36585 12.4996 5.36585C12.6299 5.36585 12.7577 5.37265 12.8846 5.38539ZM16.1941 9C16.1941 9.12824 16.1872 9.25394 16.1742 9.37878H21.264V8.62121H16.1742C16.1872 8.74605 16.1941 8.87176 16.1941 9ZM8.82492 8.62121H3.73511V9.37878H8.82492C8.81197 9.25394 8.80504 9.12824 8.80504 9C8.80504 8.87176 8.81197 8.74605 8.82492 8.62121ZM12.4996 11.4986C13.9026 11.4986 15.0397 10.3801 15.0397 9C15.0397 7.61989 13.9026 6.50136 12.4996 6.50136C11.0965 6.50136 9.95943 7.61989 9.95943 9C9.95943 10.3801 11.0965 11.4986 12.4996 11.4986ZM12.4996 11.4986C13.9026 11.4986 15.0397 10.3801 15.0397 9C15.0397 7.61989 13.9026 6.50136 12.4996 6.50136C11.0965 6.50136 9.95943 7.61989 9.95943 9C9.95943 10.3801 11.0965 11.4986 12.4996 11.4986Z" fill="white"/>
</svg>
