<svg width="270" height="48" viewBox="0 0 270 48" fill="none" xmlns="http://www.w3.org/2000/svg">
<path d="M23.8921 24.0224H21.0527C21.1431 24.0723 21.233 24.1223 21.3234 24.1728C20.3247 24.7343 19.3212 25.2994 18.2569 25.8975V24.0224H17.7694C17.7767 25.1387 17.5345 26.3603 17.0093 27.465C16.5 26.2671 16.2765 25.1362 16.2832 24.0224H15.8206V26.0199C14.8013 25.4255 13.737 24.8056 12.6649 24.1801C12.7517 24.129 12.8446 24.0742 12.932 24.0218H7.38301C7.44979 24.0705 7.52204 24.1229 7.58761 24.1704C6.34182 25.0796 4.91754 26.1185 3.50237 27.1514C2.97054 26.3098 2.72891 25.1758 2.76595 24.0218H2.33793C2.3094 25.2635 2.53342 26.4986 3.06707 27.7251C1.16014 27.8231 0.731525 27.4723 0.690242 25.7879C0.675671 25.1996 0.670207 24.6107 0.671421 24.0218H0.18452C0.18452 24.0376 0.183913 24.0529 0.18452 24.0687C0.183306 24.1302 0.186341 24.1911 0.185734 24.2526C0.246445 30.4746 2.73438 36.436 7.12499 40.8402C11.5113 45.2408 17.4471 47.7364 23.6444 47.8016C23.7264 47.8016 23.8096 47.7991 23.8921 47.7985V45.7883C23.3548 44.4881 23.3403 42.8249 23.8921 41.2696V38.5644C23.2188 36.6504 23.2237 34.9391 23.8927 33.0653V30.8583C23.0422 28.859 23.129 26.987 23.8927 25.0705V24.0206L23.8921 24.0224ZM16.9747 35.2765C15.9542 32.9983 15.959 30.9442 16.9808 28.6757C17.9947 30.9472 18.005 33.0019 16.9747 35.2765ZM16.1897 36.2546C15.4533 37.8221 13.448 39.1174 11.4336 39.2958C12.68 37.6321 14.2215 36.6796 16.1897 36.2546ZM10.8557 39.0145C9.7222 37.6924 9.63113 34.5128 10.7355 32.6542C11.7657 34.8758 11.6783 36.9232 10.8557 39.0145ZM11.9108 37.7892V34.117C12.9836 34.7309 14.0321 35.3307 15.0514 35.9141C14.0606 36.5061 13.0437 37.1132 11.9108 37.7892ZM11.2879 32.4776C12.9314 32.287 15.2281 33.6688 16.3913 35.5987C14.1966 35.1371 12.5319 34.2047 11.2879 32.4776ZM12.7347 31.9636C13.737 31.3912 14.7393 30.8187 15.7836 30.2225V33.7705C14.7776 33.1743 13.7449 32.5622 12.7347 31.9636ZM11.1495 31.6823C12.5987 29.7274 14.2354 28.7074 16.6183 28.2768C15.1838 30.2712 13.5276 31.2803 11.1495 31.6823ZM11.9236 29.7743V26.3506C12.9563 26.9206 13.9641 27.476 14.9937 28.0442C13.9999 28.6044 13.0376 29.1464 11.9236 29.7743ZM16.4162 27.6867C14.0946 27.3773 12.5495 26.2958 11.1107 24.4828C13.4116 24.8458 15.0113 25.836 16.4162 27.6867ZM10.8029 31.3065C9.67667 29.7195 9.65178 26.6484 10.7591 24.928C11.7147 27.0899 11.7384 29.1483 10.8029 31.3065ZM9.96201 24.5778C8.78604 26.6021 6.15665 28.0448 4.15926 27.7616C5.24841 25.7531 7.79099 24.358 9.96201 24.5778ZM9.47754 26.2629V29.9308C8.48188 29.3523 7.45768 28.7573 6.37582 28.1288C7.38119 27.5241 8.39567 26.9139 9.47754 26.2629ZM10.0792 31.4971C8.30035 31.9606 5.61754 30.591 4.15137 28.4108C6.72065 28.5204 8.57234 29.6166 10.0792 31.4971ZM2.00645 32.2541C1.71686 31.2219 1.42727 30.1902 1.08911 28.9851C1.72779 28.7902 2.22683 28.6373 2.81269 28.4583C2.58806 29.7773 2.38529 30.9704 2.18252 32.164C2.12423 32.1938 2.06474 32.2243 2.00645 32.2541ZM3.4708 28.9382C4.92422 30.0082 6.32057 31.0367 7.55907 31.9484C6.33271 32.8473 4.91815 33.8844 3.4963 34.927C2.45086 33.6109 2.41807 30.7426 3.4708 28.9382ZM9.99904 32.3808C9.2693 34.2193 6.53245 35.7424 4.21997 35.5968C4.82708 33.765 7.96219 32.0209 9.99904 32.3808ZM4.26915 36.5103C6.07044 35.7838 7.79766 35.0877 9.33851 34.466C9.52428 35.944 9.74284 37.6802 9.97415 39.5212C7.61432 39.3707 5.66671 38.3702 4.26915 36.5103ZM5.7851 38.9061C7.32291 39.3616 8.67251 39.7617 10.2376 40.2252C9.72584 40.7678 9.26626 41.2556 8.72836 41.8262C7.72056 40.8262 6.80626 39.9188 5.7851 38.9061ZM13.4559 44.9424C12.7007 44.5441 11.9995 44.0338 11.226 43.6812C10.0907 43.1641 9.89462 42.4072 10.4337 41.3506C10.5539 41.1149 10.628 40.8555 10.6371 40.8311C12.5264 41.9681 14.3532 43.0673 16.2055 44.1824C15.5146 45.6269 15.0769 45.7962 13.4559 44.9424ZM11.3183 40.1892C12.9198 39.4225 14.4018 38.713 15.6755 38.1028C15.8498 39.674 16.0434 41.4218 16.2486 43.2713C14.23 42.9534 12.555 41.895 11.3183 40.1892ZM16.9189 36.6607C18.0299 38.1132 18.0499 41.2543 16.9577 42.7238C16.0483 41.0315 16.0325 38.4938 16.9189 36.6607ZM23.4514 40.0126C22.5468 41.9151 19.9131 43.387 17.5758 43.2573C19.1209 41.2008 20.9974 40.1496 23.4514 40.0126ZM18.147 41.6057V37.9421C19.1712 38.5316 20.2331 39.1424 21.2931 39.7526C20.2695 40.3555 19.1888 40.9925 18.147 41.6057ZM16.3415 46.1792C16.5801 45.4198 16.7501 44.8797 16.9365 44.2865C18.0408 45.2329 19.0553 46.1019 20.2901 47.1609C18.8798 46.8108 17.6929 46.5154 16.3409 46.1798L16.3415 46.1792ZM23.489 47.1646C21.0927 47.2407 19.2192 45.9905 17.7039 44.1982C19.5446 43.4205 21.352 42.6568 22.9511 41.9815C23.1083 43.4936 23.2935 45.284 23.489 47.1646ZM23.6608 39.3379C21.5414 39.7045 18.5793 38.1144 17.6073 36.1011C20.1341 36.2728 22.16 37.2234 23.6608 39.3379ZM19.8755 35.8764C20.8815 35.2796 21.8741 34.6901 22.9274 34.0652V37.562C21.9439 37.0188 20.9373 36.4628 19.8755 35.8764ZM17.4641 35.5347C19.0304 33.3137 21.0399 32.3089 23.557 32.0897C22.786 34.0476 20.0072 35.6529 17.4641 35.5347ZM18.1307 33.7528V29.9759C19.1967 30.6025 20.3023 31.2529 21.3574 31.8735C20.2895 32.4953 19.2046 33.1274 18.1307 33.7528ZM23.4429 31.3023C22.0192 31.9594 19.1895 30.5489 17.5849 28.2823C20.1305 28.4205 21.9737 29.4668 23.4429 31.3023ZM19.7844 28.0174C20.791 27.4346 21.8073 26.8463 22.8807 26.2245V29.7408C21.7958 29.1367 20.7692 28.5655 19.7844 28.0174ZM17.3973 27.7884C19.0571 25.7708 20.8432 24.5473 23.5734 24.4633C21.9494 26.596 20.0643 27.6264 17.3973 27.7884Z" fill="white"/>
<path d="M23.8958 47.9915C22.9912 47.9915 22.0775 47.9403 21.1802 47.8386C9.10542 46.4684 0 36.2295 0 24.0223C0 10.8054 10.7197 0.053102 23.8958 0.053102V0.418495C10.9207 0.418495 0.364872 11.007 0.364872 24.0223C0.364872 36.0437 9.33126 46.1255 21.2203 47.475C22.1048 47.5749 23.0046 47.6261 23.8952 47.6261H24.0615V47.9909H23.8952L23.8958 47.9915Z" fill="white"/>
<path d="M29.9987 47.2013L29.9052 46.8474C40.2194 44.1204 47.4233 34.7347 47.4233 24.0213C47.4233 14.8895 42.0917 6.49099 33.8399 2.62452L33.9941 2.29262C42.3734 6.21938 47.7882 14.7483 47.7882 24.0213C47.7882 34.9009 40.4731 44.4328 29.9987 47.2013Z" fill="white"/>
<path d="M35.4186 23.9765H0.254238V24.3187H35.4186V23.9765Z" fill="white"/>
<path d="M47.6078 23.9788H38.5594V24.321H47.6078V23.9788Z" fill="white"/>
<path d="M24.0645 23.4489H23.7233V47.8085H24.0645V23.4489Z" fill="white"/>
<path d="M23.8929 22.1559C24.0826 22.1559 24.2365 22.0015 24.2365 21.8112C24.2365 21.6208 24.0826 21.4665 23.8929 21.4665C23.7031 21.4665 23.5492 21.6208 23.5492 21.8112C23.5492 22.0015 23.7031 22.1559 23.8929 22.1559Z" fill="white"/>
<path d="M23.8971 21.247C24.0332 21.247 24.1435 21.1363 24.1435 20.9997C24.1435 20.8632 24.0332 20.7525 23.8971 20.7525C23.7609 20.7525 23.6506 20.8632 23.6506 20.9997C23.6506 21.1363 23.7609 21.247 23.8971 21.247Z" fill="white"/>
<path d="M23.8938 23.4489C24.2039 23.4489 24.4559 23.1969 24.4559 22.8858C24.4559 22.5747 24.2045 22.3225 23.8943 22.3225C23.5842 22.3225 23.3328 22.5747 23.3328 22.8858C23.3328 23.1969 23.5836 23.4489 23.8938 23.4489Z" fill="white"/>
<path d="M32.3439 2.26483C32.6326 2.26483 32.8666 2.03007 32.8666 1.74049C32.8666 1.45091 32.6326 1.21615 32.3439 1.21615C32.0552 1.21615 31.8212 1.45091 31.8212 1.74049C31.8212 2.03007 32.0552 2.26483 32.3439 2.26483Z" fill="white"/>
<path d="M30.216 1.53929C30.5047 1.53929 30.7388 1.30454 30.7388 1.01496C30.7388 0.725371 30.5047 0.490616 30.216 0.490616C29.9274 0.490616 29.6933 0.725371 29.6933 1.01496C29.6933 1.30454 29.9274 1.53929 30.216 1.53929Z" fill="white"/>
<path d="M28.3698 0.980482C28.5545 0.980482 28.7043 0.83025 28.7043 0.64493C28.7043 0.459609 28.5545 0.309377 28.3698 0.309377C28.185 0.309377 28.0352 0.459609 28.0352 0.64493C28.0352 0.83025 28.185 0.980482 28.3698 0.980482Z" fill="white"/>
<path d="M26.4952 0.671106C26.68 0.671106 26.8297 0.520873 26.8297 0.335553C26.8297 0.150232 26.68 0 26.4952 0C26.3105 0 26.1607 0.150232 26.1607 0.335553C26.1607 0.520873 26.3105 0.671106 26.4952 0.671106Z" fill="white"/>
<path d="M28.7929 47.7334C29.0816 47.7334 29.3156 47.4987 29.3156 47.2091C29.3156 46.9195 29.0816 46.6847 28.7929 46.6847C28.5042 46.6847 28.2701 46.9195 28.2701 47.2091C28.2701 47.4987 28.5042 47.7334 28.7929 47.7334Z" fill="white"/>
<path d="M26.9512 47.9261C27.1359 47.9261 27.2857 47.7759 27.2857 47.5906C27.2857 47.4052 27.1359 47.255 26.9512 47.255C26.7664 47.255 26.6167 47.4052 26.6167 47.5906C26.6167 47.7759 26.7664 47.9261 26.9512 47.9261Z" fill="white"/>
<path d="M25.2839 48C25.4687 48 25.6184 47.8498 25.6184 47.6644C25.6184 47.4791 25.4687 47.3289 25.2839 47.3289C25.0992 47.3289 24.9494 47.4791 24.9494 47.6644C24.9494 47.8498 25.0992 48 25.2839 48Z" fill="white"/>
<path d="M37.9463 22.5909L37.4661 17.803L34.7657 17.1971C34.6449 17.1697 34.5629 17.06 34.5714 16.9358C34.5799 16.8122 34.6752 16.7147 34.7991 16.7038L37.4874 16.4681L38.1552 11.3355L38.772 16.4005L41.6843 16.9273C41.796 16.9474 41.8798 17.0418 41.8865 17.1557C41.884 17.2665 41.8027 17.3572 41.6928 17.3718L38.8036 17.7354L38.3519 22.589L37.9469 22.5903L37.9463 22.5909ZM35.8482 17.0217L37.8419 17.4693L38.1412 20.4558L38.4284 17.3712L40.4434 17.1173L38.4047 16.7488L38.1424 14.5912L37.8486 16.8463L35.8482 17.0217Z" fill="white"/>
<path d="M38.2338 8.45822H38.062V13.0871H38.2338V8.45822Z" fill="white"/>
<path d="M38.1696 8.51577C38.397 8.51577 38.5812 8.33091 38.5812 8.10287C38.5812 7.87484 38.397 7.68998 38.1696 7.68998C37.9423 7.68998 37.758 7.87484 37.758 8.10287C37.758 8.33091 37.9423 8.51577 38.1696 8.51577Z" fill="white"/>
<path d="M32.3046 6.24224C32.4622 6.24224 32.5899 6.1141 32.5899 5.95602C32.5899 5.79794 32.4622 5.66979 32.3046 5.66979C32.147 5.66979 32.0192 5.79794 32.0192 5.95602C32.0192 6.1141 32.147 6.24224 32.3046 6.24224Z" fill="white"/>
<path d="M28.1627 2.87039C28.2813 2.87039 28.3776 2.77387 28.3776 2.65481C28.3776 2.53575 28.2813 2.43923 28.1627 2.43923C28.044 2.43923 27.9477 2.53575 27.9477 2.65481C27.9477 2.77387 28.044 2.87039 28.1627 2.87039Z" fill="white"/>
<path d="M30.4241 7.03717C30.5428 7.03717 30.639 6.94065 30.639 6.82159C30.639 6.70252 30.5428 6.606 30.4241 6.606C30.3054 6.606 30.2092 6.70252 30.2092 6.82159C30.2092 6.94065 30.3054 7.03717 30.4241 7.03717Z" fill="white"/>
<path d="M30.4241 7.84466C30.5428 7.84466 30.639 7.74814 30.639 7.62908C30.639 7.51002 30.5428 7.4135 30.4241 7.4135C30.3054 7.4135 30.2092 7.51002 30.2092 7.62908C30.2092 7.74814 30.3054 7.84466 30.4241 7.84466Z" fill="white"/>
<path d="M28.1578 3.81085C28.3476 3.81085 28.5014 3.65653 28.5014 3.46616C28.5014 3.2758 28.3476 3.12147 28.1578 3.12147C27.968 3.12147 27.8142 3.2758 27.8142 3.46616C27.8142 3.65653 27.968 3.81085 28.1578 3.81085Z" fill="white"/>
<path d="M20.4581 10.545C20.6968 10.545 20.8904 10.3509 20.8904 10.1114C20.8904 9.87197 20.6968 9.67784 20.4581 9.67784C20.2194 9.67784 20.0258 9.87197 20.0258 10.1114C20.0258 10.3509 20.2194 10.545 20.4581 10.545Z" fill="white"/>
<path d="M33.4544 9.96549C33.6442 9.96549 33.798 9.81116 33.798 9.6208C33.798 9.43043 33.6442 9.27611 33.4544 9.27611C33.2646 9.27611 33.1108 9.43043 33.1108 9.6208C33.1108 9.81116 33.2646 9.96549 33.4544 9.96549Z" fill="white"/>
<path d="M33.4544 12.5583C33.6442 12.5583 33.798 12.4039 33.798 12.2136C33.798 12.0232 33.6442 11.8689 33.4544 11.8689C33.2646 11.8689 33.1108 12.0232 33.1108 12.2136C33.1108 12.4039 33.2646 12.5583 33.4544 12.5583Z" fill="white"/>
<path d="M33.4544 15.1499C33.6442 15.1499 33.798 14.9955 33.798 14.8052C33.798 14.6148 33.6442 14.4605 33.4544 14.4605C33.2646 14.4605 33.1108 14.6148 33.1108 14.8052C33.1108 14.9955 33.2646 15.1499 33.4544 15.1499Z" fill="white"/>
<path d="M30.4192 22.5432C30.609 22.5432 30.7628 22.3888 30.7628 22.1985C30.7628 22.0081 30.609 21.8538 30.4192 21.8538C30.2294 21.8538 30.0756 22.0081 30.0756 22.1985C30.0756 22.3888 30.2294 22.5432 30.4192 22.5432Z" fill="white"/>
<path d="M37.4154 24.4918C37.6051 24.4918 37.759 24.3374 37.759 24.1471C37.759 23.9567 37.6051 23.8024 37.4154 23.8024C37.2256 23.8024 37.0717 23.9567 37.0717 24.1471C37.0717 24.3374 37.2256 24.4918 37.4154 24.4918Z" fill="white"/>
<path d="M30.4188 23.2556C30.5549 23.2556 30.6653 23.1449 30.6653 23.0084C30.6653 22.8718 30.5549 22.7611 30.4188 22.7611C30.2827 22.7611 30.1723 22.8718 30.1723 23.0084C30.1723 23.1449 30.2827 23.2556 30.4188 23.2556Z" fill="white"/>
<path d="M19.3198 10.3872C19.4717 10.3872 19.5948 10.2636 19.5948 10.1113C19.5948 9.95893 19.4717 9.83541 19.3198 9.83541C19.1679 9.83541 19.0448 9.95893 19.0448 10.1113C19.0448 10.2636 19.1679 10.3872 19.3198 10.3872Z" fill="white"/>
<path d="M28.1558 5.41132C28.5582 5.41132 28.8843 5.08414 28.8843 4.68054C28.8843 4.27693 28.5582 3.94975 28.1558 3.94975C27.7535 3.94975 27.4273 4.27693 27.4273 4.68054C27.4273 5.08414 27.7535 5.41132 28.1558 5.41132Z" fill="white"/>
<path d="M22.2138 11.031C22.7201 11.031 23.1305 10.6193 23.1305 10.1114C23.1305 9.60355 22.7201 9.19184 22.2138 9.19184C21.7075 9.19184 21.297 9.60355 21.297 10.1114C21.297 10.6193 21.7075 11.031 22.2138 11.031Z" fill="white"/>
<path d="M30.4207 21.6858C30.7309 21.6858 30.9823 21.4336 30.9823 21.1224C30.9823 20.8113 30.7309 20.5591 30.4207 20.5591C30.1106 20.5591 29.8591 20.8113 29.8591 21.1224C29.8591 21.4336 30.1106 21.6858 30.4207 21.6858Z" fill="white"/>
<path d="M32.4122 1.7997H32.2173V5.7703H32.4122V1.7997Z" fill="white"/>
<path d="M28.2843 5.20284H28.0445V11.2428H28.2843V5.20284Z" fill="white"/>
<path d="M30.5918 8.46169H30.2506V20.7042H30.5918V8.46169Z" fill="white"/>
<path d="M24.0655 0.0600284H23.7243V20.3893H24.0655V0.0600284Z" fill="white"/>
<path d="M5.01114 9.6357H8.55484C8.6714 9.6357 8.7655 9.7301 8.7655 9.84702C8.7655 9.96395 8.6714 10.0583 8.55484 10.0583H4.69787" fill="white"/>
<path d="M4.52239 10.3047H14.0583L6.16766 23.5812L1.6028 15.9001L1.81165 15.489L6.16826 22.82L13.374 10.6956H4.32204L4.52178 10.3053L4.52239 10.3047Z" fill="white"/>
<path d="M4.44948 23.975L0.957998 17.9631L1.68714 15.6648L6.16517 23.2004L11.4227 14.3549H13.5604L7.97314 23.975" fill="white"/>
<path d="M6.19516 10.5003H6.09802V13.6257H6.19516V10.5003Z" fill="white"/>
<path d="M6.20437 20.3894H6.10723V23.5148H6.20437V20.3894Z" fill="white"/>
<path d="M6.16438 12.7094C6.36891 12.7094 6.53472 12.5431 6.53472 12.3379C6.53472 12.1327 6.36891 11.9664 6.16438 11.9664C5.95985 11.9664 5.79404 12.1327 5.79404 12.3379C5.79404 12.5431 5.95985 12.7094 6.16438 12.7094Z" fill="white"/>
<path d="M6.15486 11.6074C6.30071 11.6074 6.41895 11.4888 6.41895 11.3424C6.41895 11.1961 6.30071 11.0775 6.15486 11.0775C6.009 11.0775 5.89076 11.1961 5.89076 11.3424C5.89076 11.4888 6.009 11.6074 6.15486 11.6074Z" fill="white"/>
<path d="M6.16407 21.6863C6.30992 21.6863 6.42816 21.5677 6.42816 21.4214C6.42816 21.2751 6.30992 21.1565 6.16407 21.1565C6.01821 21.1565 5.89998 21.2751 5.89998 21.4214C5.89998 21.5677 6.01821 21.6863 6.16407 21.6863Z" fill="white"/>
<path d="M6.16407 19.5069C6.30992 19.5069 6.42816 19.3883 6.42816 19.2419C6.42816 19.0956 6.30992 18.977 6.16407 18.977C6.01821 18.977 5.89998 19.0956 5.89998 19.2419C5.89998 19.3883 6.01821 19.5069 6.16407 19.5069Z" fill="white"/>
<path d="M6.16836 18.8216C6.25554 18.8216 6.32621 18.7507 6.32621 18.6632C6.32621 18.5758 6.25554 18.5049 6.16836 18.5049C6.08118 18.5049 6.01051 18.5758 6.01051 18.6632C6.01051 18.7507 6.08118 18.8216 6.16836 18.8216Z" fill="white"/>
<path d="M6.15481 14.531C6.43545 14.531 6.66296 14.3028 6.66296 14.0213C6.66296 13.7398 6.43545 13.5116 6.15481 13.5116C5.87417 13.5116 5.64666 13.7398 5.64666 14.0213C5.64666 14.3028 5.87417 14.531 6.15481 14.531Z" fill="white"/>
<path d="M6.15481 20.6822C6.43545 20.6822 6.66296 20.454 6.66296 20.1725C6.66296 19.891 6.43545 19.6627 6.15481 19.6627C5.87417 19.6627 5.64666 19.891 5.64666 20.1725C5.64666 20.454 5.87417 20.6822 6.15481 20.6822Z" fill="white"/>
<path d="M14.5588 24.0604C15.7906 23.2998 16.915 22.3778 17.9155 21.3072L18.1492 21.527C17.2094 22.5331 16.1628 23.4094 15.022 24.1481" fill="white"/>
<path d="M19.6012 19.7426L19.3396 19.5569C20.6983 17.63 21.6077 15.4821 22.0436 13.1716L22.3587 13.2313C21.9143 15.5875 20.9867 17.778 19.6012 19.7426Z" fill="white"/>
<path d="M19.6746 0.572578C20.9683 2.43426 21.8978 4.58155 22.3483 6.92068L22.0338 6.98157C21.5827 4.6388 20.6417 2.49211 19.3304 0.640176" fill="white"/>
<path d="M18.9981 20.88C19.1198 20.88 19.2184 20.7811 19.2184 20.659C19.2184 20.5369 19.1198 20.4379 18.9981 20.4379C18.8763 20.4379 18.7777 20.5369 18.7777 20.659C18.7777 20.7811 18.8763 20.88 18.9981 20.88Z" fill="white"/>
<path d="M22.3243 13.0659C22.393 13.0659 22.4488 13.0099 22.4488 12.941C22.4488 12.872 22.393 12.8161 22.3243 12.8161C22.2555 12.8161 22.1998 12.872 22.1998 12.941C22.1998 13.0099 22.2555 13.0659 22.3243 13.0659Z" fill="white"/>
<path d="M22.3012 7.40761C22.37 7.40761 22.4258 7.35169 22.4258 7.2827C22.4258 7.21372 22.37 7.1578 22.3012 7.1578C22.2325 7.1578 22.1767 7.21372 22.1767 7.2827C22.1767 7.35169 22.2325 7.40761 22.3012 7.40761Z" fill="white"/>
<path d="M14.468 7.82957C14.5984 7.82957 14.7041 7.72351 14.7041 7.59268C14.7041 7.46184 14.5984 7.35578 14.468 7.35578C14.3375 7.35578 14.2318 7.46184 14.2318 7.59268C14.2318 7.72351 14.3375 7.82957 14.468 7.82957Z" fill="white"/>
<path d="M14.0719 6.94993C14.2023 6.94993 14.308 6.84387 14.308 6.71303C14.308 6.5822 14.2023 6.47614 14.0719 6.47614C13.9414 6.47614 13.8357 6.5822 13.8357 6.71303C13.8357 6.84387 13.9414 6.94993 14.0719 6.94993Z" fill="white"/>
<path d="M13.6829 6.152C13.7664 6.152 13.8341 6.08411 13.8341 6.00036C13.8341 5.91661 13.7664 5.84872 13.6829 5.84872C13.5994 5.84872 13.5317 5.91661 13.5317 6.00036C13.5317 6.08411 13.5994 6.152 13.6829 6.152Z" fill="white"/>
<path d="M13.1532 5.48592C13.2367 5.48592 13.3044 5.41803 13.3044 5.33428C13.3044 5.25053 13.2367 5.18264 13.1532 5.18264C13.0697 5.18264 13.0021 5.25053 13.0021 5.33428C13.0021 5.41803 13.0697 5.48592 13.1532 5.48592Z" fill="white"/>
<path d="M11.0519 18.6235L10.888 18.347C16.7685 14.8423 14.5744 8.19703 14.5513 8.13065L14.8549 8.02591C14.8785 8.09533 17.1601 14.9836 11.0519 18.6235Z" fill="white"/>
<path d="M24.0328 43.3347V42.9693C30.6783 42.9693 36.8756 39.3806 40.2074 33.6049L40.5231 33.7876C37.127 39.6765 30.8082 43.3347 24.0328 43.3347Z" fill="white"/>
<path d="M42.8349 27.2575L42.4743 27.2003C42.6285 26.2277 42.7068 25.2314 42.7068 24.2382H43.0717C43.0717 25.2509 42.9922 26.2673 42.8349 27.2575Z" fill="white"/>
<path d="M24.0006 38.7803V38.415C24.5446 38.415 25.0934 38.3833 25.6325 38.3212L25.6738 38.6847C25.1207 38.7475 24.5579 38.7803 24.0006 38.7803Z" fill="white"/>
<path d="M29.1942 37.8329L29.0715 37.4864C34.7444 35.4724 38.5558 30.0445 38.5558 23.9796H38.9213C38.9213 30.1998 35.0121 35.7666 29.1942 37.8329Z" fill="white"/>
<path d="M41.6204 30.9875C41.8102 30.9875 41.964 30.8332 41.964 30.6428C41.964 30.4525 41.8102 30.2982 41.6204 30.2982C41.4306 30.2982 41.2768 30.4525 41.2768 30.6428C41.2768 30.8332 41.4306 30.9875 41.6204 30.9875Z" fill="white"/>
<path d="M42.1312 29.6267C42.2674 29.6267 42.3777 29.516 42.3777 29.3795C42.3777 29.2429 42.2674 29.1322 42.1312 29.1322C41.9951 29.1322 41.8848 29.2429 41.8848 29.3795C41.8848 29.516 41.9951 29.6267 42.1312 29.6267Z" fill="white"/>
<path d="M42.4249 28.4308C42.5248 28.4308 42.6058 28.3496 42.6058 28.2493C42.6058 28.1491 42.5248 28.0679 42.4249 28.0679C42.325 28.0679 42.244 28.1491 42.244 28.2493C42.244 28.3496 42.325 28.4308 42.4249 28.4308Z" fill="white"/>
<path d="M36.3776 24.3281C36.4775 24.3281 36.5585 24.2469 36.5585 24.1466C36.5585 24.0464 36.4775 23.9652 36.3776 23.9652C36.2776 23.9652 36.1966 24.0464 36.1966 24.1466C36.1966 24.2469 36.2776 24.3281 36.3776 24.3281Z" fill="white"/>
<path d="M40.9218 32.7725C41.232 32.7725 41.4834 32.5203 41.4834 32.2092C41.4834 31.8981 41.232 31.6459 40.9218 31.6459C40.6117 31.6459 40.3603 31.8981 40.3603 32.2092C40.3603 32.5203 40.6117 32.7725 40.9218 32.7725Z" fill="white"/>
<path d="M27.992 38.3595C28.1818 38.3595 28.3356 38.2051 28.3356 38.0148C28.3356 37.8244 28.1818 37.6701 27.992 37.6701C27.8022 37.6701 27.6484 37.8244 27.6484 38.0148C27.6484 38.2051 27.8022 38.3595 27.992 38.3595Z" fill="white"/>
<path d="M26.6743 38.5825C26.8105 38.5825 26.9208 38.4718 26.9208 38.3352C26.9208 38.1987 26.8105 38.088 26.6743 38.088C26.5382 38.088 26.4278 38.1987 26.4278 38.3352C26.4278 38.4718 26.5382 38.5825 26.6743 38.5825Z" fill="white"/>
<path d="M28.8349 29.9122C29.2587 29.9122 29.6023 29.5675 29.6023 29.1424C29.6023 28.7173 29.2587 28.3726 28.8349 28.3726C28.4111 28.3726 28.0675 28.7173 28.0675 29.1424C28.0675 29.5675 28.4111 29.9122 28.8349 29.9122Z" fill="white"/>
<path d="M27.3443 28.1427C27.6139 28.1427 27.8324 27.9234 27.8324 27.653C27.8324 27.3826 27.6139 27.1634 27.3443 27.1634C27.0747 27.1634 26.8562 27.3826 26.8562 27.653C26.8562 27.9234 27.0747 28.1427 27.3443 28.1427Z" fill="white"/>
<path d="M31.2203 33.0488C32.1195 33.0488 32.8485 32.3175 32.8485 31.4154C32.8485 30.5134 32.1195 29.7821 31.2203 29.7821C30.321 29.7821 29.592 30.5134 29.592 31.4154C29.592 32.3175 30.321 33.0488 31.2203 33.0488Z" fill="white"/>
<path d="M69.276 19.6456C69.3049 19.6456 69.3193 19.689 69.3193 19.776C69.3193 19.863 69.3049 19.9064 69.276 19.9064C68.8134 19.9064 68.452 19.8992 68.1918 19.8847L66.6956 19.863L65.1127 19.8847C64.8525 19.8992 64.5055 19.9064 64.0719 19.9064C64.0429 19.9064 64.0285 19.863 64.0285 19.776C64.0285 19.689 64.0429 19.6456 64.0719 19.6456C64.6356 19.6456 65.0476 19.6093 65.3078 19.5369C65.568 19.4644 65.7415 19.3267 65.8282 19.1238C65.9294 18.9064 65.98 18.5803 65.98 18.1456V9.1672L57.9137 17.8195V18.1456C57.9137 18.5803 57.957 18.9064 58.0438 19.1238C58.145 19.3267 58.3257 19.4644 58.5859 19.5369C58.8461 19.6093 59.2581 19.6456 59.8218 19.6456C59.8508 19.6456 59.8652 19.689 59.8652 19.776C59.8652 19.863 59.8508 19.9064 59.8218 19.9064C59.3737 19.9064 59.0195 19.8992 58.7593 19.8847L57.1981 19.863L55.7019 19.8847C55.4417 19.8992 55.0803 19.9064 54.6177 19.9064C54.5888 19.9064 54.5744 19.863 54.5744 19.776C54.5744 19.689 54.5888 19.6456 54.6177 19.6456C55.1671 19.6456 55.5718 19.6093 55.832 19.5369C56.1067 19.4644 56.2874 19.3267 56.3741 19.1238C56.4753 18.9064 56.5259 18.5803 56.5259 18.1456V8.08023C56.5259 7.64545 56.4753 7.3266 56.3741 7.1237C56.2874 6.9208 56.1139 6.78312 55.8537 6.71065C55.5935 6.6237 55.1887 6.58022 54.6394 6.58022C54.6105 6.58022 54.5961 6.53674 54.5961 6.44978C54.5961 6.36282 54.6105 6.31934 54.6394 6.31934L55.7453 6.34108C56.3524 6.37007 56.8367 6.38456 57.1981 6.38456C57.6173 6.38456 58.145 6.37007 58.781 6.34108L59.8218 6.31934C59.8508 6.31934 59.8652 6.36282 59.8652 6.44978C59.8652 6.53674 59.8508 6.58022 59.8218 6.58022C59.2725 6.58022 58.8605 6.6237 58.5859 6.71065C58.3257 6.79761 58.145 6.94979 58.0438 7.16718C57.957 7.37008 57.9137 7.68892 57.9137 8.12371V17.0803L65.98 8.47154V8.12371C65.98 7.68892 65.9294 7.37008 65.8282 7.16718C65.7415 6.94979 65.568 6.79761 65.3078 6.71065C65.0476 6.6237 64.6356 6.58022 64.0719 6.58022C64.0429 6.58022 64.0285 6.53674 64.0285 6.44978C64.0285 6.36282 64.0429 6.31934 64.0719 6.31934L65.1127 6.34108C65.7487 6.37007 66.2764 6.38456 66.6956 6.38456C67.057 6.38456 67.5557 6.37007 68.1918 6.34108L69.276 6.31934C69.3049 6.31934 69.3193 6.36282 69.3193 6.44978C69.3193 6.53674 69.3049 6.58022 69.276 6.58022C68.7266 6.58022 68.3219 6.6237 68.0617 6.71065C67.8015 6.78312 67.6208 6.9208 67.5196 7.1237C67.4328 7.3266 67.3895 7.64545 67.3895 8.08023V18.1456C67.3895 18.5803 67.4328 18.9064 67.5196 19.1238C67.6208 19.3267 67.8015 19.4644 68.0617 19.5369C68.3219 19.6093 68.7266 19.6456 69.276 19.6456Z" fill="white"/>
<path d="M85.7138 19.6456C85.7571 19.6456 85.7788 19.689 85.7788 19.776C85.7788 19.863 85.7571 19.9064 85.7138 19.9064C85.2656 19.9064 84.9115 19.8992 84.6513 19.8847L83.1551 19.863L81.5722 19.8847C81.312 19.8992 80.965 19.9064 80.5314 19.9064C80.488 19.9064 80.4663 19.863 80.4663 19.776C80.4663 19.689 80.488 19.6456 80.5314 19.6456C81.0951 19.6456 81.5071 19.6093 81.7673 19.5369C82.0275 19.4644 82.201 19.3267 82.2877 19.1238C82.3889 18.9064 82.4395 18.5803 82.4395 18.1456V13.0585H74.113V18.1456C74.113 18.5803 74.1563 18.9064 74.2431 19.1238C74.3443 19.3267 74.525 19.4644 74.7852 19.5369C75.0454 19.6093 75.4574 19.6456 76.0211 19.6456C76.05 19.6456 76.0645 19.689 76.0645 19.776C76.0645 19.863 76.05 19.9064 76.0211 19.9064C75.573 19.9064 75.2188 19.8992 74.9586 19.8847L73.3974 19.863L71.9012 19.8847C71.641 19.8992 71.2796 19.9064 70.817 19.9064C70.7881 19.9064 70.7737 19.863 70.7737 19.776C70.7737 19.689 70.7881 19.6456 70.817 19.6456C71.3664 19.6456 71.7711 19.6093 72.0313 19.5369C72.306 19.4644 72.4867 19.3267 72.5734 19.1238C72.6746 18.9064 72.7252 18.5803 72.7252 18.1456V8.08023C72.7252 7.64545 72.6746 7.3266 72.5734 7.1237C72.4867 6.9208 72.3132 6.78312 72.053 6.71065C71.7928 6.6237 71.388 6.58022 70.8387 6.58022C70.8098 6.58022 70.7953 6.53674 70.7953 6.44978C70.7953 6.36282 70.8098 6.31934 70.8387 6.31934L71.9446 6.34108C72.5517 6.37007 73.036 6.38456 73.3974 6.38456C73.8166 6.38456 74.3443 6.37007 74.9803 6.34108L76.0211 6.31934C76.05 6.31934 76.0645 6.36282 76.0645 6.44978C76.0645 6.53674 76.05 6.58022 76.0211 6.58022C75.4718 6.58022 75.0598 6.6237 74.7852 6.71065C74.525 6.79761 74.3443 6.94979 74.2431 7.16718C74.1563 7.37008 74.113 7.68892 74.113 8.12371V12.602H82.4395V8.12371C82.4395 7.68892 82.3889 7.37008 82.2877 7.16718C82.201 6.94979 82.0275 6.79761 81.7673 6.71065C81.5071 6.6237 81.0951 6.58022 80.5314 6.58022C80.488 6.58022 80.4663 6.53674 80.4663 6.44978C80.4663 6.36282 80.488 6.31934 80.5314 6.31934L81.5722 6.34108C82.2082 6.37007 82.7359 6.38456 83.1551 6.38456C83.5454 6.38456 84.0441 6.37007 84.6513 6.34108L85.7138 6.31934C85.7571 6.31934 85.7788 6.36282 85.7788 6.44978C85.7788 6.53674 85.7571 6.58022 85.7138 6.58022C85.1645 6.58022 84.7597 6.6237 84.4995 6.71065C84.2393 6.78312 84.0586 6.9208 83.9574 7.1237C83.8707 7.3266 83.8273 7.64545 83.8273 8.08023V18.1456C83.8273 18.5803 83.8707 18.9064 83.9574 19.1238C84.0586 19.3267 84.2393 19.4644 84.4995 19.5369C84.7597 19.6093 85.1645 19.6456 85.7138 19.6456Z" fill="white"/>
<path d="M95.5103 6.08021C96.2041 6.08021 96.9053 6.14543 97.6136 6.27587C98.3219 6.4063 98.8857 6.59471 99.3049 6.84109C99.435 6.89906 99.5145 6.96428 99.5434 7.03674C99.5868 7.09472 99.6157 7.20341 99.6302 7.36283L99.8687 9.79764C99.8687 9.84112 99.8326 9.8701 99.7603 9.8846C99.688 9.8846 99.6446 9.86286 99.6302 9.81938C99.3121 8.70343 98.7195 7.88458 97.8521 7.36283C96.9992 6.8266 95.9367 6.55848 94.6646 6.55848C93.566 6.55848 92.6046 6.80486 91.7807 7.29762C90.9567 7.77588 90.3206 8.45705 89.8725 9.34111C89.4244 10.2252 89.2003 11.2469 89.2003 12.4064C89.2003 13.7542 89.475 15.0006 90.0243 16.1455C90.5881 17.2905 91.3398 18.1963 92.2794 18.863C93.2335 19.5296 94.2598 19.863 95.3585 19.863C96.3993 19.863 97.3028 19.5803 98.0689 19.0151C98.8351 18.4354 99.4206 17.5513 99.8253 16.3629C99.8253 16.3194 99.8542 16.2977 99.9121 16.2977C99.9554 16.2977 99.9916 16.305 100.02 16.3194C100.064 16.3339 100.086 16.3557 100.086 16.3847L99.782 18.8412C99.7531 19.0151 99.7169 19.1311 99.6735 19.189C99.6446 19.2325 99.5651 19.2832 99.435 19.3412C98.134 19.8919 96.7607 20.1673 95.3151 20.1673C93.5804 20.1673 92.1276 19.8195 90.9567 19.1238C89.8002 18.4137 88.9473 17.5151 88.398 16.4281C87.8487 15.3412 87.574 14.1962 87.574 12.9933C87.574 11.66 87.9426 10.4643 88.6799 9.40633C89.4171 8.34835 90.3929 7.5295 91.6072 6.94979C92.8215 6.37007 94.1225 6.08021 95.5103 6.08021Z" fill="white"/>
<path d="M105.115 6.71065C104.204 6.71065 103.518 6.94254 103.055 7.40631C102.607 7.87008 102.282 8.65995 102.079 9.7759C102.079 9.80489 102.036 9.81938 101.949 9.81938C101.877 9.81938 101.841 9.80489 101.841 9.7759C101.899 9.25416 101.964 8.57299 102.036 7.7324C102.108 6.89181 102.144 6.26137 102.144 5.84108C102.144 5.76861 102.18 5.73238 102.253 5.73238C102.339 5.73238 102.383 5.76861 102.383 5.84108C102.383 6.15992 102.773 6.31934 103.554 6.31934C104.783 6.36282 106.235 6.38456 107.912 6.38456C108.765 6.38456 109.669 6.37007 110.623 6.34108L112.097 6.31934C112.618 6.31934 113.001 6.28311 113.246 6.21065C113.507 6.13818 113.673 5.99325 113.745 5.77586C113.76 5.71789 113.803 5.6889 113.875 5.6889C113.948 5.6889 113.984 5.71789 113.984 5.77586C113.94 6.19615 113.897 6.83384 113.854 7.68892C113.81 8.544 113.788 9.23966 113.788 9.7759C113.788 9.80489 113.745 9.81938 113.658 9.81938C113.572 9.81938 113.528 9.80489 113.528 9.7759C113.485 8.64546 113.254 7.85559 112.834 7.40631C112.415 6.94254 111.721 6.71065 110.753 6.71065C110.102 6.71065 109.64 6.73964 109.365 6.79761C109.09 6.85558 108.902 6.97877 108.801 7.16718C108.7 7.35559 108.649 7.67443 108.649 8.12371V18.1456C108.649 18.5948 108.7 18.9209 108.801 19.1238C108.902 19.3267 109.098 19.4644 109.387 19.5369C109.676 19.6093 110.131 19.6456 110.753 19.6456C110.796 19.6456 110.818 19.689 110.818 19.776C110.818 19.863 110.796 19.9064 110.753 19.9064C110.276 19.9064 109.893 19.8992 109.604 19.8847L107.912 19.863L106.286 19.8847C105.997 19.8992 105.599 19.9064 105.093 19.9064C105.064 19.9064 105.05 19.863 105.05 19.776C105.05 19.689 105.064 19.6456 105.093 19.6456C105.715 19.6456 106.17 19.6093 106.459 19.5369C106.748 19.4644 106.944 19.3267 107.045 19.1238C107.16 18.9064 107.218 18.5803 107.218 18.1456V8.08023C107.218 7.63095 107.168 7.31935 107.067 7.14544C106.965 6.95703 106.777 6.84109 106.503 6.79761C106.228 6.73964 105.765 6.71065 105.115 6.71065Z" fill="white"/>
<path d="M130.177 19.6456C130.206 19.6456 130.22 19.689 130.22 19.776C130.22 19.863 130.206 19.9064 130.177 19.9064C129.714 19.9064 129.353 19.8992 129.093 19.8847L127.596 19.863L126.014 19.8847C125.753 19.8992 125.406 19.9064 124.973 19.9064C124.944 19.9064 124.929 19.863 124.929 19.776C124.929 19.689 124.944 19.6456 124.973 19.6456C125.537 19.6456 125.949 19.6093 126.209 19.5369C126.469 19.4644 126.642 19.3267 126.729 19.1238C126.83 18.9064 126.881 18.5803 126.881 18.1456V9.1672L118.815 17.8195V18.1456C118.815 18.5803 118.858 18.9064 118.945 19.1238C119.046 19.3267 119.227 19.4644 119.487 19.5369C119.747 19.6093 120.159 19.6456 120.723 19.6456C120.752 19.6456 120.766 19.689 120.766 19.776C120.766 19.863 120.752 19.9064 120.723 19.9064C120.275 19.9064 119.92 19.8992 119.66 19.8847L118.099 19.863L116.603 19.8847C116.343 19.8992 115.981 19.9064 115.519 19.9064C115.49 19.9064 115.475 19.863 115.475 19.776C115.475 19.689 115.49 19.6456 115.519 19.6456C116.068 19.6456 116.473 19.6093 116.733 19.5369C117.008 19.4644 117.188 19.3267 117.275 19.1238C117.376 18.9064 117.427 18.5803 117.427 18.1456V8.08023C117.427 7.64545 117.376 7.3266 117.275 7.1237C117.188 6.9208 117.015 6.78312 116.755 6.71065C116.494 6.6237 116.09 6.58022 115.54 6.58022C115.511 6.58022 115.497 6.53674 115.497 6.44978C115.497 6.36282 115.511 6.31934 115.54 6.31934L116.646 6.34108C117.253 6.37007 117.738 6.38456 118.099 6.38456C118.518 6.38456 119.046 6.37007 119.682 6.34108L120.723 6.31934C120.752 6.31934 120.766 6.36282 120.766 6.44978C120.766 6.53674 120.752 6.58022 120.723 6.58022C120.173 6.58022 119.761 6.6237 119.487 6.71065C119.227 6.79761 119.046 6.94979 118.945 7.16718C118.858 7.37008 118.815 7.68892 118.815 8.12371V17.0803L126.881 8.47154V8.12371C126.881 7.68892 126.83 7.37008 126.729 7.16718C126.642 6.94979 126.469 6.79761 126.209 6.71065C125.949 6.6237 125.537 6.58022 124.973 6.58022C124.944 6.58022 124.929 6.53674 124.929 6.44978C124.929 6.36282 124.944 6.31934 124.973 6.31934L126.014 6.34108C126.65 6.37007 127.177 6.38456 127.596 6.38456C127.958 6.38456 128.457 6.37007 129.093 6.34108L130.177 6.31934C130.206 6.31934 130.22 6.36282 130.22 6.44978C130.22 6.53674 130.206 6.58022 130.177 6.58022C129.628 6.58022 129.223 6.6237 128.963 6.71065C128.702 6.78312 128.522 6.9208 128.42 7.1237C128.334 7.3266 128.29 7.64545 128.29 8.08023V18.1456C128.29 18.5803 128.334 18.9064 128.42 19.1238C128.522 19.3267 128.702 19.4644 128.963 19.5369C129.223 19.6093 129.628 19.6456 130.177 19.6456Z" fill="white"/>
<path d="M135.057 6.71065C134.146 6.71065 133.46 6.94254 132.997 7.40631C132.549 7.87008 132.224 8.65995 132.021 9.7759C132.021 9.80489 131.978 9.81938 131.891 9.81938C131.819 9.81938 131.783 9.80489 131.783 9.7759C131.841 9.25416 131.906 8.57299 131.978 7.7324C132.05 6.89181 132.087 6.26137 132.087 5.84108C132.087 5.76861 132.123 5.73238 132.195 5.73238C132.282 5.73238 132.325 5.76861 132.325 5.84108C132.325 6.15992 132.715 6.31934 133.496 6.31934C134.725 6.36282 136.178 6.38456 137.854 6.38456C138.707 6.38456 139.611 6.37007 140.565 6.34108L142.039 6.31934C142.56 6.31934 142.943 6.28311 143.189 6.21065C143.449 6.13818 143.615 5.99325 143.687 5.77586C143.702 5.71789 143.745 5.6889 143.817 5.6889C143.89 5.6889 143.926 5.71789 143.926 5.77586C143.882 6.19615 143.839 6.83384 143.796 7.68892C143.752 8.544 143.731 9.23966 143.731 9.7759C143.731 9.80489 143.687 9.81938 143.601 9.81938C143.514 9.81938 143.471 9.80489 143.471 9.7759C143.427 8.64546 143.196 7.85559 142.777 7.40631C142.357 6.94254 141.664 6.71065 140.695 6.71065C140.044 6.71065 139.582 6.73964 139.307 6.79761C139.033 6.85558 138.845 6.97877 138.743 7.16718C138.642 7.35559 138.592 7.67443 138.592 8.12371V18.1456C138.592 18.5948 138.642 18.9209 138.743 19.1238C138.845 19.3267 139.04 19.4644 139.329 19.5369C139.618 19.6093 140.073 19.6456 140.695 19.6456C140.738 19.6456 140.76 19.689 140.76 19.776C140.76 19.863 140.738 19.9064 140.695 19.9064C140.218 19.9064 139.835 19.8992 139.546 19.8847L137.854 19.863L136.228 19.8847C135.939 19.8992 135.541 19.9064 135.036 19.9064C135.007 19.9064 134.992 19.863 134.992 19.776C134.992 19.689 135.007 19.6456 135.036 19.6456C135.657 19.6456 136.112 19.6093 136.402 19.5369C136.691 19.4644 136.886 19.3267 136.987 19.1238C137.103 18.9064 137.161 18.5803 137.161 18.1456V8.08023C137.161 7.63095 137.11 7.31935 137.009 7.14544C136.908 6.95703 136.72 6.84109 136.445 6.79761C136.17 6.73964 135.708 6.71065 135.057 6.71065Z" fill="white"/>
<path d="M158.059 6.31934C158.088 6.31934 158.102 6.36282 158.102 6.44978C158.102 6.53674 158.088 6.58022 158.059 6.58022C157.683 6.58022 157.322 6.72515 156.975 7.015C156.628 7.29037 156.339 7.68168 156.108 8.18893L151.272 18.689C151.041 19.1818 150.766 19.5514 150.448 19.7977C150.145 20.0441 149.761 20.1673 149.299 20.1673C148.88 20.1673 148.518 20.0731 148.215 19.8847C147.911 19.6818 147.759 19.4064 147.759 19.0586C147.759 18.8122 147.839 18.6021 147.998 18.4282C148.171 18.2542 148.395 18.1673 148.67 18.1673C148.916 18.1673 149.104 18.2398 149.234 18.3847C149.364 18.5151 149.48 18.6963 149.581 18.9282C149.653 19.0876 149.718 19.2108 149.776 19.2977C149.848 19.3702 149.935 19.4064 150.036 19.4064C150.325 19.4064 150.585 19.1238 150.817 18.5586L151.554 16.9281L146.805 8.12371C146.487 7.54399 146.198 7.14544 145.938 6.92805C145.692 6.69616 145.352 6.58022 144.919 6.58022C144.89 6.58022 144.875 6.53674 144.875 6.44978C144.875 6.36282 144.89 6.31934 144.919 6.31934L145.786 6.34108C146.22 6.37007 146.588 6.38456 146.892 6.38456C147.427 6.38456 147.998 6.37007 148.605 6.34108L149.472 6.31934C149.516 6.31934 149.537 6.36282 149.537 6.44978C149.537 6.53674 149.516 6.58022 149.472 6.58022C148.533 6.58022 148.063 6.81935 148.063 7.29762C148.063 7.45704 148.128 7.65994 148.258 7.90632L152.291 15.3412L155.609 8.08023C155.724 7.80487 155.782 7.58023 155.782 7.40631C155.782 7.11645 155.645 6.90631 155.37 6.77587C155.096 6.64543 154.669 6.58022 154.091 6.58022C154.048 6.58022 154.026 6.53674 154.026 6.44978C154.026 6.36282 154.048 6.31934 154.091 6.31934L154.98 6.34108C155.471 6.37007 155.92 6.38456 156.324 6.38456C156.57 6.38456 156.867 6.37007 157.213 6.34108L158.059 6.31934Z" fill="white"/>
<path d="M162.056 6.71065C161.145 6.71065 160.459 6.94254 159.996 7.40631C159.548 7.87008 159.223 8.65995 159.02 9.7759C159.02 9.80489 158.977 9.81938 158.89 9.81938C158.818 9.81938 158.782 9.80489 158.782 9.7759C158.84 9.25416 158.905 8.57299 158.977 7.7324C159.049 6.89181 159.085 6.26137 159.085 5.84108C159.085 5.76861 159.121 5.73238 159.194 5.73238C159.281 5.73238 159.324 5.76861 159.324 5.84108C159.324 6.15992 159.714 6.31934 160.495 6.31934C161.724 6.36282 163.176 6.38456 164.853 6.38456C165.706 6.38456 166.61 6.37007 167.564 6.34108L169.038 6.31934C169.559 6.31934 169.942 6.28311 170.187 6.21065C170.448 6.13818 170.614 5.99325 170.686 5.77586C170.701 5.71789 170.744 5.6889 170.816 5.6889C170.889 5.6889 170.925 5.71789 170.925 5.77586C170.881 6.19615 170.838 6.83384 170.795 7.68892C170.751 8.544 170.73 9.23966 170.73 9.7759C170.73 9.80489 170.686 9.81938 170.599 9.81938C170.513 9.81938 170.469 9.80489 170.469 9.7759C170.426 8.64546 170.195 7.85559 169.775 7.40631C169.356 6.94254 168.662 6.71065 167.694 6.71065C167.043 6.71065 166.581 6.73964 166.306 6.79761C166.031 6.85558 165.843 6.97877 165.742 7.16718C165.641 7.35559 165.59 7.67443 165.59 8.12371V18.1456C165.59 18.5948 165.641 18.9209 165.742 19.1238C165.843 19.3267 166.039 19.4644 166.328 19.5369C166.617 19.6093 167.072 19.6456 167.694 19.6456C167.737 19.6456 167.759 19.689 167.759 19.776C167.759 19.863 167.737 19.9064 167.694 19.9064C167.217 19.9064 166.834 19.8992 166.545 19.8847L164.853 19.863L163.227 19.8847C162.938 19.8992 162.54 19.9064 162.034 19.9064C162.005 19.9064 161.991 19.863 161.991 19.776C161.991 19.689 162.005 19.6456 162.034 19.6456C162.656 19.6456 163.111 19.6093 163.4 19.5369C163.69 19.4644 163.885 19.3267 163.986 19.1238C164.102 18.9064 164.159 18.5803 164.159 18.1456V8.08023C164.159 7.63095 164.109 7.31935 164.008 7.14544C163.906 6.95703 163.718 6.84109 163.444 6.79761C163.169 6.73964 162.707 6.71065 162.056 6.71065Z" fill="white"/>
<path d="M69.1459 41.6326C69.1892 41.6326 69.2109 41.676 69.2109 41.763C69.2109 41.85 69.1892 41.8934 69.1459 41.8934C68.6833 41.8934 68.3219 41.8862 68.0617 41.8717L66.5872 41.85L65.0476 41.8717C64.7874 41.8862 64.4333 41.8934 63.9851 41.8934C63.9418 41.8934 63.9201 41.85 63.9201 41.763C63.9201 41.676 63.9418 41.6326 63.9851 41.6326C64.5344 41.6326 64.9392 41.5963 65.1994 41.5239C65.4596 41.4514 65.6331 41.3137 65.7198 41.1108C65.8066 40.8934 65.8499 40.5673 65.8499 40.1325V30.1542C65.8499 29.6614 65.821 29.3353 65.7632 29.1759C65.7198 29.0165 65.597 28.915 65.3946 28.8716C65.1922 28.8281 64.7802 28.8063 64.1586 28.8063H59.7134C59.0629 28.8063 58.6292 28.8281 58.4124 28.8716C58.1956 28.915 58.0582 29.0237 58.0004 29.1977C57.9426 29.3571 57.9137 29.6759 57.9137 30.1542V40.1325C57.9137 40.5673 57.957 40.8934 58.0438 41.1108C58.145 41.3137 58.3184 41.4514 58.5642 41.5239C58.8244 41.5963 59.2364 41.6326 59.8002 41.6326C59.8291 41.6326 59.8435 41.676 59.8435 41.763C59.8435 41.85 59.8291 41.8934 59.8002 41.8934C59.352 41.8934 58.9979 41.8862 58.7377 41.8717L57.1764 41.85L55.7019 41.8717C55.4417 41.8862 55.0803 41.8934 54.6177 41.8934C54.5888 41.8934 54.5744 41.85 54.5744 41.763C54.5744 41.676 54.5888 41.6326 54.6177 41.6326C55.1671 41.6326 55.5718 41.5963 55.832 41.5239C56.1067 41.4514 56.2874 41.3137 56.3741 41.1108C56.4753 40.8934 56.5259 40.5673 56.5259 40.1325V30.3281C56.5259 29.8788 56.4753 29.531 56.3741 29.2846C56.2874 29.0382 56.1067 28.8571 55.832 28.7411C55.5574 28.6252 55.1598 28.5672 54.6394 28.5672C54.6105 28.5672 54.5961 28.5237 54.5961 28.4368C54.5961 28.3498 54.6105 28.3063 54.6394 28.3063C55.1309 28.3063 55.6007 28.3136 56.0489 28.3281C57.9281 28.3571 59.9014 28.3716 61.9685 28.3716C63.8478 28.3716 66.0017 28.3498 68.4303 28.3063H69.1459C69.1892 28.3063 69.2109 28.3498 69.2109 28.4368C69.2109 28.5237 69.1892 28.5672 69.1459 28.5672C68.3942 28.5672 67.8882 28.6977 67.628 28.9585C67.3822 29.2194 67.2594 29.6759 67.2594 30.3281V40.1325C67.2594 40.5673 67.3027 40.8934 67.3895 41.1108C67.4907 41.3137 67.6714 41.4514 67.9316 41.5239C68.1918 41.5963 68.5965 41.6326 69.1459 41.6326Z" fill="white"/>
<path d="M74.0943 40.0456C74.0943 40.5094 74.1522 40.8499 74.2678 41.0673C74.3979 41.2702 74.6364 41.4152 74.9834 41.5021C75.3448 41.5891 75.9085 41.6326 76.6747 41.6326C76.7181 41.6326 76.7398 41.676 76.7398 41.763C76.7398 41.85 76.7181 41.8934 76.6747 41.8934C76.082 41.8934 75.6194 41.8862 75.2869 41.8717L73.4005 41.85L71.9476 41.8717C71.673 41.8862 71.3044 41.8934 70.8418 41.8934C70.8129 41.8934 70.7984 41.85 70.7984 41.763C70.7984 41.676 70.8129 41.6326 70.8418 41.6326C71.3911 41.6326 71.7886 41.5963 72.0344 41.5239C72.2946 41.4514 72.468 41.3137 72.5548 41.1108C72.6415 40.8934 72.6849 40.5673 72.6849 40.1325V30.0672C72.6849 29.6324 72.6415 29.3136 72.5548 29.1107C72.468 28.9078 72.2946 28.7701 72.0344 28.6977C71.7886 28.6107 71.3911 28.5672 70.8418 28.5672C70.8129 28.5672 70.7984 28.5237 70.7984 28.4368C70.7984 28.3498 70.8129 28.3063 70.8418 28.3063L71.926 28.3281C72.5331 28.3571 73.0174 28.3716 73.3788 28.3716C73.7402 28.3716 74.1449 28.3498 74.5931 28.3063C74.7665 28.3063 75.0412 28.2991 75.417 28.2846C75.7929 28.2556 76.1182 28.2411 76.3928 28.2411C77.7227 28.2411 78.7853 28.5382 79.5803 29.1324C80.3899 29.7266 80.7946 30.6325 80.7946 31.8499C80.7946 32.8064 80.5561 33.6107 80.079 34.2629C79.6165 34.9151 79.0165 35.4006 78.2793 35.7195C77.5421 36.0383 76.7831 36.1977 76.0025 36.1977C75.5833 36.1977 75.2363 36.1615 74.9617 36.089C74.9183 36.089 74.8966 36.0528 74.8966 35.9803C74.8966 35.9369 74.9039 35.8934 74.9183 35.8499C74.9472 35.8064 74.9761 35.7919 75.0051 35.8064C75.2363 35.8644 75.4966 35.8934 75.7857 35.8934C76.7398 35.8934 77.5421 35.5818 78.1926 34.9586C78.8575 34.3354 79.19 33.4368 79.19 32.2629C79.19 31.118 78.8792 30.2194 78.2576 29.5672C77.636 28.9006 76.8409 28.5672 75.8724 28.5672C75.352 28.5672 74.9761 28.5962 74.7448 28.6542C74.5135 28.7121 74.3473 28.8498 74.2461 29.0672C74.1449 29.2701 74.0943 29.618 74.0943 30.1107V40.0456Z" fill="white"/>
<path d="M89.6409 42.1543C88.2965 42.1543 87.0967 41.8427 86.0414 41.2195C85.0006 40.5818 84.1911 39.7267 83.6128 38.6543C83.049 37.5673 82.7672 36.3861 82.7672 35.1108C82.7672 33.618 83.143 32.3426 83.8947 31.2846C84.6464 30.2122 85.6077 29.4078 86.7787 28.8716C87.964 28.3353 89.1711 28.0672 90.3998 28.0672C91.7732 28.0672 92.9802 28.3933 94.021 29.0455C95.0619 29.6832 95.8569 30.531 96.4062 31.589C96.97 32.647 97.2519 33.7702 97.2519 34.9586C97.2519 36.2774 96.905 37.4876 96.2111 38.5891C95.5172 39.6905 94.5848 40.5601 93.4139 41.1978C92.2574 41.8355 90.9998 42.1543 89.6409 42.1543ZM90.3998 41.6978C91.3828 41.6978 92.2646 41.4586 93.0453 40.9804C93.8403 40.5021 94.4619 39.7992 94.9101 38.8717C95.3727 37.9441 95.6039 36.8427 95.6039 35.5673C95.6039 34.205 95.351 32.9948 94.845 31.9368C94.3391 30.8788 93.6235 30.0527 92.6983 29.4585C91.7876 28.8643 90.7179 28.5672 89.4891 28.5672C87.899 28.5672 86.6558 29.0817 85.7595 30.1107C84.8633 31.1397 84.4151 32.5528 84.4151 34.3499C84.4151 35.7122 84.6681 36.9586 85.1741 38.0891C85.68 39.205 86.3884 40.0891 87.2991 40.7413C88.2098 41.3789 89.2434 41.6978 90.3998 41.6978Z" fill="white"/>
<path d="M111.876 41.6326C112.006 41.6326 112.078 41.6471 112.093 41.676C112.122 41.6905 112.136 41.763 112.136 41.8934C112.136 41.9659 112.122 42.176 112.093 42.5239C111.992 43.3355 111.941 44.3282 111.941 45.5022C111.941 45.5746 111.898 45.6109 111.811 45.6109C111.724 45.6109 111.681 45.5746 111.681 45.5022C111.681 44.2558 111.406 43.3427 110.857 42.763C110.307 42.1833 109.418 41.8934 108.19 41.8934H101.403C100.477 41.8934 99.7619 42.1616 99.256 42.6978C98.75 43.2485 98.497 44.1833 98.497 45.5022C98.497 45.5746 98.4537 45.6109 98.3669 45.6109C98.2802 45.6109 98.2368 45.5746 98.2368 45.5022C98.2368 44.5167 98.179 43.5601 98.0634 42.6326C98.02 42.3572 97.9983 42.1036 97.9983 41.8717C97.9983 41.7558 98.0055 41.6833 98.02 41.6543C98.0489 41.6253 98.114 41.6108 98.2151 41.6108C99.3282 41.6108 100.275 40.9369 101.056 39.5891C101.836 38.2267 102.415 36.647 102.79 34.8499C103.181 33.0528 103.376 31.5383 103.376 30.3064C103.376 29.9006 103.325 29.5817 103.224 29.3498C103.137 29.1035 102.935 28.915 102.617 28.7846C102.299 28.6397 101.815 28.5672 101.164 28.5672C101.135 28.5672 101.121 28.5237 101.121 28.4368C101.121 28.3498 101.135 28.3063 101.164 28.3063H111.486C111.515 28.3063 111.529 28.3498 111.529 28.4368C111.529 28.5237 111.515 28.5672 111.486 28.5672C110.936 28.5672 110.532 28.6107 110.271 28.6977C110.011 28.7701 109.83 28.9078 109.729 29.1107C109.642 29.3136 109.599 29.6324 109.599 30.0672V40.1325C109.599 40.6978 109.628 41.0673 109.686 41.2413C109.744 41.4152 109.91 41.5239 110.185 41.5673C110.459 41.6108 111.023 41.6326 111.876 41.6326ZM108.19 30.1107C108.19 29.618 108.161 29.2919 108.103 29.1324C108.06 28.973 107.937 28.8788 107.734 28.8498C107.532 28.8063 107.12 28.7846 106.498 28.7846H105.436C105.002 28.7846 104.699 28.8498 104.525 28.9803C104.352 29.0962 104.236 29.3064 104.178 29.6107C104.12 29.9151 104.055 30.4875 103.983 31.3281C103.896 32.1832 103.723 33.2629 103.463 34.5673C103.217 35.8571 102.841 37.1688 102.335 38.5021C101.844 39.8354 101.229 40.8065 100.492 41.4152H106.39C107.055 41.4152 107.489 41.4007 107.691 41.3717C107.908 41.3282 108.045 41.2268 108.103 41.0673C108.161 40.9079 108.19 40.5818 108.19 40.0891V30.1107Z" fill="white"/>
<path d="M113.942 42.1543C113.624 42.1543 113.363 42.0891 113.161 41.9587C112.973 41.8282 112.879 41.6253 112.879 41.35C112.879 40.8862 113.19 40.6543 113.812 40.6543H114.267C115.091 40.6543 115.799 40.1253 116.392 39.0673C116.999 37.9948 117.454 36.6687 117.758 35.089C118.076 33.5093 118.235 31.9803 118.235 30.502C118.235 29.8353 118.09 29.3498 117.801 29.0455C117.512 28.7266 116.941 28.5672 116.088 28.5672C116.045 28.5672 116.023 28.5237 116.023 28.4368C116.023 28.3498 116.045 28.3063 116.088 28.3063H126.453C126.497 28.3063 126.518 28.3498 126.518 28.4368C126.518 28.5237 126.497 28.5672 126.453 28.5672C125.904 28.5672 125.499 28.6107 125.239 28.6977C124.979 28.7701 124.798 28.9078 124.697 29.1107C124.61 29.3136 124.567 29.6324 124.567 30.0672V40.1325C124.567 40.5673 124.61 40.8934 124.697 41.1108C124.798 41.3137 124.979 41.4514 125.239 41.5239C125.499 41.5963 125.904 41.6326 126.453 41.6326C126.497 41.6326 126.518 41.676 126.518 41.763C126.518 41.85 126.497 41.8934 126.453 41.8934C126.005 41.8934 125.651 41.8862 125.391 41.8717L123.894 41.85L122.355 41.8717C122.095 41.8862 121.741 41.8934 121.292 41.8934C121.249 41.8934 121.227 41.85 121.227 41.763C121.227 41.676 121.249 41.6326 121.292 41.6326C121.856 41.6326 122.261 41.5963 122.507 41.5239C122.767 41.4514 122.94 41.3137 123.027 41.1108C123.128 40.8934 123.179 40.5673 123.179 40.1325V30.1542C123.179 29.6614 123.15 29.3353 123.092 29.1759C123.034 29.0165 122.904 28.915 122.702 28.8716C122.499 28.8281 122.088 28.8063 121.466 28.8063H120.36C119.926 28.8063 119.601 28.8426 119.384 28.915C119.167 28.9875 119.008 29.1469 118.907 29.3933C118.806 29.6252 118.755 29.9948 118.755 30.502C118.755 31.9803 118.604 33.618 118.3 35.4151C118.011 37.2122 117.505 38.7847 116.782 40.1325C116.074 41.4804 115.127 42.1543 113.942 42.1543Z" fill="white"/>
<path d="M137.553 38.6543C137.553 38.6253 137.582 38.6108 137.64 38.6108C137.683 38.6108 137.719 38.618 137.748 38.6325C137.792 38.647 137.813 38.6688 137.813 38.6978C137.683 39.6108 137.618 40.5673 137.618 41.5673C137.618 41.6833 137.589 41.7702 137.531 41.8282C137.488 41.8717 137.401 41.8934 137.271 41.8934H128.186C128.157 41.8934 128.142 41.85 128.142 41.763C128.142 41.676 128.157 41.6326 128.186 41.6326C128.735 41.6326 129.133 41.5963 129.378 41.5239C129.638 41.4514 129.812 41.3137 129.899 41.1108C130 40.8934 130.05 40.5673 130.05 40.1325V30.0672C130.05 29.6324 130 29.3136 129.899 29.1107C129.812 28.9078 129.638 28.7701 129.378 28.6977C129.133 28.6107 128.735 28.5672 128.186 28.5672C128.157 28.5672 128.142 28.5237 128.142 28.4368C128.142 28.3498 128.157 28.3063 128.186 28.3063H136.903C137.033 28.3063 137.098 28.3716 137.098 28.502L137.141 31.1759C137.141 31.2194 137.105 31.2484 137.033 31.2629C136.96 31.2629 136.917 31.2412 136.903 31.1977C136.859 30.4296 136.628 29.8353 136.209 29.415C135.789 28.9803 135.233 28.7629 134.539 28.7629H133.216C132.71 28.7629 132.334 28.8063 132.089 28.8933C131.857 28.9658 131.691 29.1035 131.59 29.3064C131.503 29.4948 131.46 29.7846 131.46 30.1759V34.589H134.105C134.799 34.589 135.291 34.4731 135.58 34.2412C135.883 34.0093 136.035 33.618 136.035 33.0673C136.035 33.0383 136.079 33.0238 136.165 33.0238C136.252 33.0238 136.295 33.0383 136.295 33.0673L136.274 34.8281C136.274 35.2484 136.281 35.5673 136.295 35.7847L136.317 36.8282C136.317 36.8572 136.274 36.8716 136.187 36.8716C136.1 36.8716 136.057 36.8572 136.057 36.8282C136.057 36.1905 135.898 35.734 135.58 35.4586C135.276 35.1832 134.763 35.0455 134.04 35.0455H131.46V40.0456C131.46 40.4514 131.503 40.7485 131.59 40.9369C131.677 41.1253 131.836 41.2557 132.067 41.3282C132.298 41.4007 132.66 41.4369 133.151 41.4369H134.886C135.58 41.4369 136.158 41.1905 136.621 40.6978C137.083 40.205 137.394 39.5238 137.553 38.6543Z" fill="white"/>
<path d="M154.555 41.6326C154.599 41.6326 154.621 41.676 154.621 41.763C154.621 41.85 154.599 41.8934 154.555 41.8934C154.107 41.8934 153.753 41.8862 153.493 41.8717L151.997 41.85L150.414 41.8717C150.154 41.8862 149.807 41.8934 149.373 41.8934C149.33 41.8934 149.308 41.85 149.308 41.763C149.308 41.676 149.33 41.6326 149.373 41.6326C149.937 41.6326 150.349 41.5963 150.609 41.5239C150.869 41.4514 151.043 41.3137 151.129 41.1108C151.231 40.8934 151.281 40.5673 151.281 40.1325V35.0455H142.955V40.1325C142.955 40.5673 142.998 40.8934 143.085 41.1108C143.186 41.3137 143.367 41.4514 143.627 41.5239C143.887 41.5963 144.299 41.6326 144.863 41.6326C144.892 41.6326 144.906 41.676 144.906 41.763C144.906 41.85 144.892 41.8934 144.863 41.8934C144.415 41.8934 144.061 41.8862 143.8 41.8717L142.239 41.85L140.743 41.8717C140.483 41.8862 140.121 41.8934 139.659 41.8934C139.63 41.8934 139.615 41.85 139.615 41.763C139.615 41.676 139.63 41.6326 139.659 41.6326C140.208 41.6326 140.613 41.5963 140.873 41.5239C141.148 41.4514 141.328 41.3137 141.415 41.1108C141.516 40.8934 141.567 40.5673 141.567 40.1325V30.0672C141.567 29.6324 141.516 29.3136 141.415 29.1107C141.328 28.9078 141.155 28.7701 140.895 28.6977C140.635 28.6107 140.23 28.5672 139.68 28.5672C139.652 28.5672 139.637 28.5237 139.637 28.4368C139.637 28.3498 139.652 28.3063 139.68 28.3063L140.786 28.3281C141.393 28.3571 141.878 28.3716 142.239 28.3716C142.658 28.3716 143.186 28.3571 143.822 28.3281L144.863 28.3063C144.892 28.3063 144.906 28.3498 144.906 28.4368C144.906 28.5237 144.892 28.5672 144.863 28.5672C144.314 28.5672 143.902 28.6107 143.627 28.6977C143.367 28.7846 143.186 28.9368 143.085 29.1542C142.998 29.3571 142.955 29.6759 142.955 30.1107V34.589H151.281V30.1107C151.281 29.6759 151.231 29.3571 151.129 29.1542C151.043 28.9368 150.869 28.7846 150.609 28.6977C150.349 28.6107 149.937 28.5672 149.373 28.5672C149.33 28.5672 149.308 28.5237 149.308 28.4368C149.308 28.3498 149.33 28.3063 149.373 28.3063L150.414 28.3281C151.05 28.3571 151.578 28.3716 151.997 28.3716C152.387 28.3716 152.886 28.3571 153.493 28.3281L154.555 28.3063C154.599 28.3063 154.621 28.3498 154.621 28.4368C154.621 28.5237 154.599 28.5672 154.555 28.5672C154.006 28.5672 153.601 28.6107 153.341 28.6977C153.081 28.7701 152.9 28.9078 152.799 29.1107C152.712 29.3136 152.669 29.6324 152.669 30.0672V40.1325C152.669 40.5673 152.712 40.8934 152.799 41.1108C152.9 41.3137 153.081 41.4514 153.341 41.5239C153.601 41.5963 154.006 41.6326 154.555 41.6326Z" fill="white"/>
<path d="M170.77 41.6326C170.799 41.6326 170.814 41.676 170.814 41.763C170.814 41.85 170.799 41.8934 170.77 41.8934C170.308 41.8934 169.946 41.8862 169.686 41.8717L168.19 41.85L166.607 41.8717C166.347 41.8862 166 41.8934 165.566 41.8934C165.537 41.8934 165.523 41.85 165.523 41.763C165.523 41.676 165.537 41.6326 165.566 41.6326C166.13 41.6326 166.542 41.5963 166.802 41.5239C167.062 41.4514 167.236 41.3137 167.323 41.1108C167.424 40.8934 167.474 40.5673 167.474 40.1325V31.1542L159.408 39.8065V40.1325C159.408 40.5673 159.451 40.8934 159.538 41.1108C159.639 41.3137 159.82 41.4514 160.08 41.5239C160.34 41.5963 160.752 41.6326 161.316 41.6326C161.345 41.6326 161.36 41.676 161.36 41.763C161.36 41.85 161.345 41.8934 161.316 41.8934C160.868 41.8934 160.514 41.8862 160.254 41.8717L158.693 41.85L157.196 41.8717C156.936 41.8862 156.575 41.8934 156.112 41.8934C156.083 41.8934 156.069 41.85 156.069 41.763C156.069 41.676 156.083 41.6326 156.112 41.6326C156.661 41.6326 157.066 41.5963 157.326 41.5239C157.601 41.4514 157.782 41.3137 157.869 41.1108C157.97 40.8934 158.02 40.5673 158.02 40.1325V30.0672C158.02 29.6324 157.97 29.3136 157.869 29.1107C157.782 28.9078 157.608 28.7701 157.348 28.6977C157.088 28.6107 156.683 28.5672 156.134 28.5672C156.105 28.5672 156.09 28.5237 156.09 28.4368C156.09 28.3498 156.105 28.3063 156.134 28.3063L157.24 28.3281C157.847 28.3571 158.331 28.3716 158.693 28.3716C159.112 28.3716 159.639 28.3571 160.275 28.3281L161.316 28.3063C161.345 28.3063 161.36 28.3498 161.36 28.4368C161.36 28.5237 161.345 28.5672 161.316 28.5672C160.767 28.5672 160.355 28.6107 160.08 28.6977C159.82 28.7846 159.639 28.9368 159.538 29.1542C159.451 29.3571 159.408 29.6759 159.408 30.1107V39.0673L167.474 30.4585V30.1107C167.474 29.6759 167.424 29.3571 167.323 29.1542C167.236 28.9368 167.062 28.7846 166.802 28.6977C166.542 28.6107 166.13 28.5672 165.566 28.5672C165.537 28.5672 165.523 28.5237 165.523 28.4368C165.523 28.3498 165.537 28.3063 165.566 28.3063L166.607 28.3281C167.243 28.3571 167.771 28.3716 168.19 28.3716C168.551 28.3716 169.05 28.3571 169.686 28.3281L170.77 28.3063C170.799 28.3063 170.814 28.3498 170.814 28.4368C170.814 28.5237 170.799 28.5672 170.77 28.5672C170.221 28.5672 169.816 28.6107 169.556 28.6977C169.296 28.7701 169.115 28.9078 169.014 29.1107C168.927 29.3136 168.884 29.6324 168.884 30.0672V40.1325C168.884 40.5673 168.927 40.8934 169.014 41.1108C169.115 41.3137 169.296 41.4514 169.556 41.5239C169.816 41.5963 170.221 41.6326 170.77 41.6326Z" fill="white"/>
<path d="M183.652 41.6326C183.681 41.6326 183.695 41.676 183.695 41.763C183.695 41.85 183.681 41.8934 183.652 41.8934C183.189 41.8934 182.828 41.8862 182.568 41.8717L181.072 41.85L179.554 41.8717C179.294 41.8862 178.939 41.8934 178.491 41.8934C178.462 41.8934 178.448 41.85 178.448 41.763C178.448 41.676 178.462 41.6326 178.491 41.6326C179.041 41.6326 179.445 41.5963 179.706 41.5239C179.966 41.4514 180.139 41.3137 180.226 41.1108C180.313 40.8934 180.356 40.5673 180.356 40.1325V34.8499C179.879 34.8789 179.46 34.9876 179.098 35.176C178.752 35.3499 178.383 35.676 177.993 36.1542C177.617 36.618 177.161 37.3137 176.626 38.2412C175.918 39.4586 175.376 40.3282 175 40.8499C174.639 41.3717 174.379 41.676 174.22 41.763C174.075 41.85 173.88 41.8934 173.634 41.8934H171.401C171.357 41.8934 171.336 41.85 171.336 41.763C171.336 41.676 171.357 41.6326 171.401 41.6326C172.152 41.6181 172.803 41.3282 173.352 40.763C173.902 40.1833 174.567 39.1978 175.347 37.8064C175.896 36.8499 176.402 36.1543 176.865 35.7195C177.328 35.2847 177.862 34.9948 178.47 34.8499C177.212 34.7339 176.251 34.3934 175.586 33.8281C174.935 33.2484 174.61 32.502 174.61 31.589C174.61 30.9368 174.776 30.3571 175.109 29.8498C175.456 29.3426 175.925 28.9513 176.518 28.6759C177.125 28.3861 177.805 28.2411 178.556 28.2411C178.889 28.2411 179.272 28.2629 179.706 28.3063C179.879 28.3208 180.081 28.3353 180.313 28.3498C180.544 28.3643 180.797 28.3716 181.072 28.3716C181.448 28.3716 181.939 28.3571 182.546 28.3281L183.652 28.3063C183.681 28.3063 183.695 28.3498 183.695 28.4368C183.695 28.5237 183.681 28.5672 183.652 28.5672C183.088 28.5672 182.676 28.6107 182.416 28.6977C182.156 28.7701 181.982 28.9078 181.896 29.1107C181.809 29.3136 181.766 29.6324 181.766 30.0672V40.1325C181.766 40.5673 181.809 40.8934 181.896 41.1108C181.997 41.3137 182.17 41.4514 182.416 41.5239C182.676 41.5963 183.088 41.6326 183.652 41.6326ZM176.084 31.0455C176.084 32.1035 176.381 32.9513 176.973 33.589C177.566 34.2267 178.426 34.5455 179.554 34.5455C179.742 34.5455 180.009 34.531 180.356 34.5021V30.1107C180.356 29.531 180.183 29.1252 179.836 28.8933C179.489 28.6469 179.055 28.5237 178.535 28.5237C176.901 28.5237 176.084 29.3643 176.084 31.0455Z" fill="white"/>
<path d="M210.803 41.6326C210.832 41.6326 210.846 41.676 210.846 41.763C210.846 41.85 210.832 41.8934 210.803 41.8934H208.049C207.876 41.8934 207.724 41.8427 207.594 41.7413C207.464 41.6253 207.239 41.3427 206.921 40.8934C206.618 40.4297 206.04 39.5456 205.187 38.2412C204.522 37.2122 204.037 36.5021 203.734 36.1108C203.43 35.705 203.112 35.4296 202.78 35.2847C202.462 35.1253 202.014 35.0455 201.435 35.0455L200.958 35.0673V40.1325C200.958 40.5818 201.002 40.9079 201.088 41.1108C201.175 41.3137 201.341 41.4514 201.587 41.5239C201.847 41.5963 202.259 41.6326 202.823 41.6326C202.867 41.6326 202.888 41.676 202.888 41.763C202.888 41.85 202.867 41.8934 202.823 41.8934C202.375 41.8934 202.021 41.8862 201.761 41.8717L200.221 41.85L198.747 41.8717C198.486 41.8862 198.125 41.8934 197.662 41.8934C197.634 41.8934 197.619 41.85 197.619 41.763C197.619 41.676 197.634 41.6326 197.662 41.6326C198.226 41.6326 198.638 41.5963 198.898 41.5239C199.159 41.4514 199.332 41.3137 199.419 41.1108C199.52 40.8934 199.571 40.5673 199.571 40.1325V35.089C199.31 35.06 199.13 35.0455 199.029 35.0455C198.465 35.0455 198.017 35.1253 197.684 35.2847C197.366 35.4296 197.048 35.6977 196.73 36.089C196.426 36.4803 195.942 37.1832 195.277 38.1977L194.844 38.8934C194.309 39.734 193.875 40.4007 193.543 40.8934C193.21 41.3717 192.986 41.6616 192.87 41.763C192.755 41.85 192.61 41.8934 192.437 41.8934H189.705C189.676 41.8934 189.661 41.85 189.661 41.763C189.661 41.676 189.676 41.6326 189.705 41.6326C190.254 41.6181 190.738 41.4804 191.157 41.2195C191.591 40.9442 192.01 40.5601 192.415 40.0673C192.82 39.5601 193.355 38.8064 194.02 37.8064C194.786 36.6325 195.321 35.8644 195.624 35.5021C195.942 35.1253 196.304 34.8789 196.708 34.7629L194.171 31.002C193.564 30.1035 192.964 29.473 192.372 29.1107C191.793 28.7484 191.1 28.5672 190.29 28.5672C190.261 28.5672 190.247 28.5237 190.247 28.4368C190.247 28.3498 190.261 28.3063 190.29 28.3063L191.092 28.3281C191.613 28.3571 192.111 28.3716 192.588 28.3716C193.065 28.3716 193.593 28.3571 194.171 28.3281L195.169 28.3063C195.212 28.3063 195.234 28.3498 195.234 28.4368C195.234 28.5237 195.212 28.5672 195.169 28.5672C194.764 28.5672 194.468 28.6107 194.28 28.6977C194.106 28.7701 194.02 28.9006 194.02 29.089C194.02 29.2629 194.092 29.4948 194.236 29.7846C194.395 30.0745 194.641 30.4948 194.974 31.0455L197.164 34.6977C197.308 34.6687 197.561 34.6542 197.923 34.6542L199.115 34.676C199.202 34.6905 199.354 34.6977 199.571 34.6977V30.0672C199.571 29.6469 199.506 29.3353 199.375 29.1324C199.26 28.915 199.057 28.7701 198.768 28.6977C198.479 28.6107 198.053 28.5672 197.489 28.5672C197.46 28.5672 197.446 28.5237 197.446 28.4368C197.446 28.3498 197.46 28.3063 197.489 28.3063L198.66 28.3281C199.325 28.3571 199.845 28.3716 200.221 28.3716C200.64 28.3716 201.197 28.3571 201.891 28.3281L203.04 28.3063C203.069 28.3063 203.083 28.3498 203.083 28.4368C203.083 28.5237 203.069 28.5672 203.04 28.5672C202.491 28.5672 202.064 28.6107 201.761 28.6977C201.472 28.7846 201.262 28.9368 201.132 29.1542C201.016 29.3716 200.958 29.6904 200.958 30.1107V34.6977C201.855 34.6687 202.39 34.6542 202.563 34.6542C202.924 34.6542 203.177 34.6615 203.322 34.676L205.512 31.0672C205.844 30.531 206.083 30.1107 206.228 29.8064C206.387 29.502 206.466 29.2629 206.466 29.089C206.466 28.9006 206.379 28.7701 206.206 28.6977C206.032 28.6107 205.743 28.5672 205.339 28.5672C205.295 28.5672 205.273 28.5237 205.273 28.4368C205.273 28.3498 205.295 28.3063 205.339 28.3063L206.336 28.3281C206.914 28.3571 207.442 28.3716 207.919 28.3716C208.396 28.3716 208.895 28.3571 209.415 28.3281L210.217 28.3063C210.246 28.3063 210.261 28.3498 210.261 28.4368C210.261 28.5237 210.246 28.5672 210.217 28.5672C209.408 28.5672 208.707 28.7484 208.114 29.1107C207.536 29.473 206.943 30.1035 206.336 31.002L203.777 34.7629C204.168 34.8644 204.507 35.0818 204.796 35.4151C205.086 35.7484 205.563 36.4151 206.228 37.4151L206.488 37.8064C207.153 38.8064 207.688 39.5601 208.092 40.0673C208.497 40.5601 208.909 40.9442 209.328 41.2195C209.762 41.4804 210.253 41.6181 210.803 41.6326Z" fill="white"/>
<path d="M226.42 41.6326C226.449 41.6326 226.463 41.676 226.463 41.763C226.463 41.85 226.449 41.8934 226.42 41.8934C225.957 41.8934 225.596 41.8862 225.336 41.8717L223.839 41.85L222.256 41.8717C221.996 41.8862 221.649 41.8934 221.216 41.8934C221.187 41.8934 221.172 41.85 221.172 41.763C221.172 41.676 221.187 41.6326 221.216 41.6326C221.779 41.6326 222.191 41.5963 222.452 41.5239C222.712 41.4514 222.885 41.3137 222.972 41.1108C223.073 40.8934 223.124 40.5673 223.124 40.1325V31.1542L215.057 39.8065V40.1325C215.057 40.5673 215.101 40.8934 215.188 41.1108C215.289 41.3137 215.469 41.4514 215.73 41.5239C215.99 41.5963 216.402 41.6326 216.966 41.6326C216.994 41.6326 217.009 41.676 217.009 41.763C217.009 41.85 216.994 41.8934 216.966 41.8934C216.517 41.8934 216.163 41.8862 215.903 41.8717L214.342 41.85L212.846 41.8717C212.585 41.8862 212.224 41.8934 211.761 41.8934C211.733 41.8934 211.718 41.85 211.718 41.763C211.718 41.676 211.733 41.6326 211.761 41.6326C212.311 41.6326 212.716 41.5963 212.976 41.5239C213.25 41.4514 213.431 41.3137 213.518 41.1108C213.619 40.8934 213.67 40.5673 213.67 40.1325V30.0672C213.67 29.6324 213.619 29.3136 213.518 29.1107C213.431 28.9078 213.258 28.7701 212.997 28.6977C212.737 28.6107 212.332 28.5672 211.783 28.5672C211.754 28.5672 211.74 28.5237 211.74 28.4368C211.74 28.3498 211.754 28.3063 211.783 28.3063L212.889 28.3281C213.496 28.3571 213.98 28.3716 214.342 28.3716C214.761 28.3716 215.289 28.3571 215.925 28.3281L216.966 28.3063C216.994 28.3063 217.009 28.3498 217.009 28.4368C217.009 28.5237 216.994 28.5672 216.966 28.5672C216.416 28.5672 216.004 28.6107 215.73 28.6977C215.469 28.7846 215.289 28.9368 215.188 29.1542C215.101 29.3571 215.057 29.6759 215.057 30.1107V39.0673L223.124 30.4585V30.1107C223.124 29.6759 223.073 29.3571 222.972 29.1542C222.885 28.9368 222.712 28.7846 222.452 28.6977C222.191 28.6107 221.779 28.5672 221.216 28.5672C221.187 28.5672 221.172 28.5237 221.172 28.4368C221.172 28.3498 221.187 28.3063 221.216 28.3063L222.256 28.3281C222.892 28.3571 223.42 28.3716 223.839 28.3716C224.201 28.3716 224.699 28.3571 225.336 28.3281L226.42 28.3063C226.449 28.3063 226.463 28.3498 226.463 28.4368C226.463 28.5237 226.449 28.5672 226.42 28.5672C225.87 28.5672 225.466 28.6107 225.205 28.6977C224.945 28.7701 224.764 28.9078 224.663 29.1107C224.577 29.3136 224.533 29.6324 224.533 30.0672V40.1325C224.533 40.5673 224.577 40.8934 224.663 41.1108C224.764 41.3137 224.945 41.4514 225.205 41.5239C225.466 41.5963 225.87 41.6326 226.42 41.6326Z" fill="white"/>
<path d="M233.62 34.589C234.632 34.6615 235.449 35.0093 236.07 35.6325C236.707 36.2557 237.025 37.0456 237.025 38.0021C237.025 38.7992 236.801 39.5166 236.352 40.1543C235.919 40.7775 235.326 41.2702 234.574 41.6326C233.823 41.9804 232.991 42.1543 232.081 42.1543C231.488 42.1543 230.903 42.0818 230.324 41.9369C229.761 41.792 229.32 41.5891 229.002 41.3282C228.871 41.2557 228.792 41.1978 228.763 41.1543C228.734 41.0963 228.712 40.9876 228.698 40.8282L228.438 38.4151C228.438 38.3717 228.474 38.3427 228.546 38.3282C228.633 38.3137 228.684 38.3282 228.698 38.3717C228.9 39.5456 229.37 40.4152 230.107 40.9804C230.845 41.5311 231.654 41.8065 232.536 41.8065C233.505 41.8065 234.22 41.4804 234.683 40.8282C235.16 40.176 235.398 39.3644 235.398 38.3934C235.398 37.2195 235.066 36.3354 234.401 35.7412C233.75 35.1325 232.803 34.8281 231.56 34.8281C231.502 34.8281 231.474 34.7847 231.474 34.6977C231.474 34.6108 231.502 34.5673 231.56 34.5673C232.688 34.5673 233.534 34.2919 234.097 33.7412C234.676 33.1905 234.965 32.4368 234.965 31.4803C234.965 30.5238 234.726 29.7629 234.249 29.1977C233.772 28.6324 233.136 28.3498 232.341 28.3498C231.589 28.3498 230.917 28.6324 230.324 29.1977C229.746 29.7484 229.312 30.5672 229.023 31.6542C229.023 31.6832 228.994 31.6977 228.937 31.6977C228.908 31.6977 228.871 31.6904 228.828 31.6759C228.799 31.647 228.785 31.6252 228.785 31.6107L229.088 29.1542C229.117 28.9803 229.146 28.8643 229.175 28.8063C229.204 28.7484 229.283 28.6977 229.414 28.6542C230.527 28.2629 231.596 28.0672 232.623 28.0672C233.852 28.0672 234.791 28.3498 235.442 28.915C236.107 29.4803 236.439 30.1832 236.439 31.0238C236.439 31.8209 236.15 32.5528 235.572 33.2194C235.008 33.8716 234.357 34.3281 233.62 34.589Z" fill="white"/>
<path d="M253.742 41.6326C253.785 41.6326 253.807 41.676 253.807 41.763C253.807 41.85 253.785 41.8934 253.742 41.8934C253.294 41.8934 252.939 41.8862 252.679 41.8717L251.183 41.85L249.6 41.8717C249.34 41.8862 248.993 41.8934 248.559 41.8934C248.516 41.8934 248.494 41.85 248.494 41.763C248.494 41.676 248.516 41.6326 248.559 41.6326C249.123 41.6326 249.535 41.5963 249.795 41.5239C250.055 41.4514 250.229 41.3137 250.316 41.1108C250.417 40.8934 250.467 40.5673 250.467 40.1325V35.0455H242.141V40.1325C242.141 40.5673 242.184 40.8934 242.271 41.1108C242.372 41.3137 242.553 41.4514 242.813 41.5239C243.073 41.5963 243.485 41.6326 244.049 41.6326C244.078 41.6326 244.092 41.676 244.092 41.763C244.092 41.85 244.078 41.8934 244.049 41.8934C243.601 41.8934 243.247 41.8862 242.987 41.8717L241.425 41.85L239.929 41.8717C239.669 41.8862 239.308 41.8934 238.845 41.8934C238.816 41.8934 238.802 41.85 238.802 41.763C238.802 41.676 238.816 41.6326 238.845 41.6326C239.394 41.6326 239.799 41.5963 240.059 41.5239C240.334 41.4514 240.515 41.3137 240.601 41.1108C240.703 40.8934 240.753 40.5673 240.753 40.1325V30.0672C240.753 29.6324 240.703 29.3136 240.601 29.1107C240.515 28.9078 240.341 28.7701 240.081 28.6977C239.821 28.6107 239.416 28.5672 238.867 28.5672C238.838 28.5672 238.823 28.5237 238.823 28.4368C238.823 28.3498 238.838 28.3063 238.867 28.3063L239.973 28.3281C240.58 28.3571 241.064 28.3716 241.425 28.3716C241.845 28.3716 242.372 28.3571 243.008 28.3281L244.049 28.3063C244.078 28.3063 244.092 28.3498 244.092 28.4368C244.092 28.5237 244.078 28.5672 244.049 28.5672C243.5 28.5672 243.088 28.6107 242.813 28.6977C242.553 28.7846 242.372 28.9368 242.271 29.1542C242.184 29.3571 242.141 29.6759 242.141 30.1107V34.589H250.467V30.1107C250.467 29.6759 250.417 29.3571 250.316 29.1542C250.229 28.9368 250.055 28.7846 249.795 28.6977C249.535 28.6107 249.123 28.5672 248.559 28.5672C248.516 28.5672 248.494 28.5237 248.494 28.4368C248.494 28.3498 248.516 28.3063 248.559 28.3063L249.6 28.3281C250.236 28.3571 250.764 28.3716 251.183 28.3716C251.573 28.3716 252.072 28.3571 252.679 28.3281L253.742 28.3063C253.785 28.3063 253.807 28.3498 253.807 28.4368C253.807 28.5237 253.785 28.5672 253.742 28.5672C253.192 28.5672 252.788 28.6107 252.527 28.6977C252.267 28.7701 252.087 28.9078 251.985 29.1107C251.899 29.3136 251.855 29.6324 251.855 30.0672V40.1325C251.855 40.5673 251.899 40.8934 251.985 41.1108C252.087 41.3137 252.267 41.4514 252.527 41.5239C252.788 41.5963 253.192 41.6326 253.742 41.6326Z" fill="white"/>
<path d="M269.957 41.6326C269.986 41.6326 270 41.676 270 41.763C270 41.85 269.986 41.8934 269.957 41.8934C269.494 41.8934 269.133 41.8862 268.872 41.8717L267.376 41.85L265.793 41.8717C265.533 41.8862 265.186 41.8934 264.753 41.8934C264.724 41.8934 264.709 41.85 264.709 41.763C264.709 41.676 264.724 41.6326 264.753 41.6326C265.316 41.6326 265.728 41.5963 265.988 41.5239C266.249 41.4514 266.422 41.3137 266.509 41.1108C266.61 40.8934 266.661 40.5673 266.661 40.1325V31.1542L258.594 39.8065V40.1325C258.594 40.5673 258.638 40.8934 258.724 41.1108C258.826 41.3137 259.006 41.4514 259.267 41.5239C259.527 41.5963 259.939 41.6326 260.503 41.6326C260.531 41.6326 260.546 41.676 260.546 41.763C260.546 41.85 260.531 41.8934 260.503 41.8934C260.054 41.8934 259.7 41.8862 259.44 41.8717L257.879 41.85L256.383 41.8717C256.122 41.8862 255.761 41.8934 255.298 41.8934C255.269 41.8934 255.255 41.85 255.255 41.763C255.255 41.676 255.269 41.6326 255.298 41.6326C255.848 41.6326 256.253 41.5963 256.513 41.5239C256.787 41.4514 256.968 41.3137 257.055 41.1108C257.156 40.8934 257.207 40.5673 257.207 40.1325V30.0672C257.207 29.6324 257.156 29.3136 257.055 29.1107C256.968 28.9078 256.795 28.7701 256.534 28.6977C256.274 28.6107 255.869 28.5672 255.32 28.5672C255.291 28.5672 255.277 28.5237 255.277 28.4368C255.277 28.3498 255.291 28.3063 255.32 28.3063L256.426 28.3281C257.033 28.3571 257.517 28.3716 257.879 28.3716C258.298 28.3716 258.826 28.3571 259.462 28.3281L260.503 28.3063C260.531 28.3063 260.546 28.3498 260.546 28.4368C260.546 28.5237 260.531 28.5672 260.503 28.5672C259.953 28.5672 259.541 28.6107 259.267 28.6977C259.006 28.7846 258.826 28.9368 258.724 29.1542C258.638 29.3571 258.594 29.6759 258.594 30.1107V39.0673L266.661 30.4585V30.1107C266.661 29.6759 266.61 29.3571 266.509 29.1542C266.422 28.9368 266.249 28.7846 265.988 28.6977C265.728 28.6107 265.316 28.5672 264.753 28.5672C264.724 28.5672 264.709 28.5237 264.709 28.4368C264.709 28.3498 264.724 28.3063 264.753 28.3063L265.793 28.3281C266.429 28.3571 266.957 28.3716 267.376 28.3716C267.738 28.3716 268.236 28.3571 268.872 28.3281L269.957 28.3063C269.986 28.3063 270 28.3498 270 28.4368C270 28.5237 269.986 28.5672 269.957 28.5672C269.407 28.5672 269.003 28.6107 268.742 28.6977C268.482 28.7701 268.301 28.9078 268.2 29.1107C268.113 29.3136 268.07 29.6324 268.07 30.0672V40.1325C268.07 40.5673 268.113 40.8934 268.2 41.1108C268.301 41.3137 268.482 41.4514 268.742 41.5239C269.003 41.5963 269.407 41.6326 269.957 41.6326Z" fill="white"/>
</svg>
