<svg width="182" height="32" viewBox="0 0 182 32" fill="none" xmlns="http://www.w3.org/2000/svg">
<path d="M17.0164 16.0151H15.113C15.1736 16.0484 15.2338 16.0816 15.2945 16.1153C14.625 16.4897 13.9523 16.8664 13.2388 17.2651V16.0151H12.912C12.9169 16.7592 12.7545 17.5737 12.4025 18.3101C12.061 17.5115 11.9113 16.7576 11.9157 16.0151H11.6056V17.3467C10.9223 16.9505 10.2089 16.5372 9.49017 16.1202C9.54837 16.0861 9.61063 16.0496 9.66924 16.0147H5.94948C5.99425 16.0471 6.04268 16.0821 6.08663 16.1137C5.25151 16.7199 4.29675 17.4125 3.34809 18.101C2.99158 17.54 2.8296 16.784 2.85443 16.0147H2.56751C2.54838 16.8425 2.69855 17.6658 3.05629 18.4835C1.77797 18.5488 1.49065 18.315 1.46297 17.192C1.45321 16.7998 1.44954 16.4073 1.45036 16.0147H1.12396C1.12396 16.0252 1.12356 16.0354 1.12396 16.0459C1.12315 16.0869 1.12518 16.1275 1.12478 16.1685C1.16547 20.3165 2.83326 24.2908 5.77651 27.2269C8.71692 30.1605 12.6959 31.8243 16.8503 31.8677C16.9053 31.8677 16.961 31.8661 17.0164 31.8657V30.5255C16.6562 29.6587 16.6464 28.55 17.0164 27.5131V25.7097C16.565 24.4337 16.5683 23.2928 17.0168 22.0436V20.5723C16.4466 19.2394 16.5048 17.9914 17.0168 16.7138V16.0138L17.0164 16.0151ZM12.3793 23.5177C11.6952 21.9989 11.6984 20.6295 12.3834 19.1172C13.063 20.6316 13.0699 22.0014 12.3793 23.5177ZM11.8531 24.1698C11.3594 25.2148 10.0152 26.0783 8.66482 26.1973C9.50035 25.0881 10.5337 24.4531 11.8531 24.1698ZM8.27738 26.0097C7.51756 25.1283 7.45651 23.0086 8.1968 21.7696C8.88744 23.2506 8.82883 24.6155 8.27738 26.0097ZM8.98471 25.1929V22.7447C9.70383 23.154 10.4067 23.5539 11.09 23.9428C10.4258 24.3374 9.74412 24.7422 8.98471 25.1929ZM8.56715 21.6518C9.66883 21.5247 11.2084 22.4459 11.9882 23.7325C10.517 23.4248 9.40104 22.8032 8.56715 21.6518ZM9.53697 21.3092C10.2089 20.9275 10.8808 20.5459 11.5808 20.1484V22.5137C10.9064 22.1163 10.2142 21.7083 9.53697 21.3092ZM8.47436 21.1216C9.44581 19.8184 10.543 19.1383 12.1404 18.8513C11.1787 20.1809 10.0685 20.8536 8.47436 21.1216ZM8.99325 19.8496V17.5672C9.68552 17.9472 10.3611 18.3174 11.0513 18.6962C10.3851 19.0697 9.74005 19.4311 8.99325 19.8496ZM12.0049 18.4579C10.4486 18.2517 9.41284 17.5306 8.44831 16.322C9.99075 16.564 11.0631 17.2241 12.0049 18.4579ZM8.24197 20.8711C7.48703 19.8131 7.47035 17.7657 8.21267 16.6188C8.85325 18.06 8.86913 19.4323 8.24197 20.8711ZM7.67831 16.3853C6.89 17.7348 5.12739 18.6966 3.78844 18.5078C4.51855 17.1689 6.22297 16.2388 7.67831 16.3853ZM7.35355 17.5087V19.954C6.68611 19.5683 5.99954 19.1716 5.27431 18.7527C5.94826 18.3495 6.62831 17.9427 7.35355 17.5087ZM7.75686 20.9982C6.56442 21.3071 4.76599 20.3941 3.78314 18.9406C5.50547 19.0137 6.74674 19.7445 7.75686 20.9982ZM2.3453 21.5028C2.15117 20.8147 1.95704 20.1269 1.73036 19.3235C2.1585 19.1936 2.49303 19.0917 2.88576 18.9723C2.73518 19.8517 2.59925 20.647 2.46332 21.4427C2.42425 21.4626 2.38437 21.4829 2.3453 21.5028ZM3.32692 19.2922C4.30123 20.0055 5.23727 20.6913 6.0675 21.299C5.24541 21.8983 4.29716 22.5897 3.34402 23.2847C2.6432 22.4074 2.62123 20.4952 3.32692 19.2922ZM7.70314 21.5873C7.21395 22.813 5.3793 23.8283 3.82913 23.7313C4.23611 22.5101 6.33773 21.3473 7.70314 21.5873ZM3.8621 24.3403C5.0696 23.8559 6.22744 23.3919 7.26035 22.9774C7.38488 23.9627 7.53139 25.1202 7.68645 26.3475C6.10454 26.2472 4.79896 25.5802 3.8621 24.3403ZM4.87832 25.9374C5.90919 26.2411 6.81389 26.5079 7.86308 26.8168C7.52 27.1786 7.21192 27.5038 6.85134 27.8842C6.17576 27.2175 5.56285 26.6126 4.87832 25.9374ZM10.0205 29.9616C9.51418 29.6961 9.04412 29.3559 8.52564 29.1208C7.76459 28.7761 7.63314 28.2715 7.99453 27.5671C8.07511 27.41 8.12476 27.237 8.13087 27.2208C9.39738 27.9788 10.622 28.7116 11.8637 29.4549C11.4005 30.4179 11.1071 30.5308 10.0205 29.9616ZM8.5875 26.7929C9.6611 26.2817 10.6545 25.8087 11.5084 25.4019C11.6252 26.4494 11.755 27.6146 11.8926 28.8476C10.5394 28.6357 9.41651 27.93 8.5875 26.7929ZM12.3419 24.4406C13.0866 25.4088 13.1 27.5029 12.3679 28.4826C11.7582 27.3543 11.7477 25.6626 12.3419 24.4406ZM16.7209 26.6751C16.1145 27.9434 14.3491 28.9247 12.7822 28.8382C13.818 27.4672 15.0759 26.7665 16.7209 26.6751ZM13.1652 27.7372V25.2948C13.8517 25.6878 14.5635 26.095 15.2741 26.5018C14.588 26.9037 13.8635 27.3284 13.1652 27.7372ZM11.9548 30.7862C12.1148 30.2799 12.2287 29.9198 12.3537 29.5244C13.0939 30.1553 13.774 30.7346 14.6018 31.4406C13.6564 31.2072 12.8612 31.0099 11.9548 30.7862ZM16.7461 31.4431C15.1398 31.4938 13.8839 30.6603 12.8681 29.4655C14.102 28.947 15.3136 28.4379 16.3856 27.9877C16.491 28.9958 16.6151 30.1894 16.7461 31.4431ZM16.8613 26.2253C15.4406 26.4697 13.4549 25.4097 12.8034 24.0675C14.4972 24.1819 15.8553 24.8157 16.8613 26.2253ZM14.3238 23.9176C14.9982 23.5198 15.6636 23.1268 16.3697 22.7102V25.0414C15.7104 24.6793 15.0356 24.3086 14.3238 23.9176ZM12.7073 23.6899C13.7573 22.2092 15.1044 21.5394 16.7917 21.3932C16.2749 22.6985 14.4121 23.7687 12.7073 23.6899ZM13.1542 22.502V19.984C13.8688 20.4018 14.6099 20.8354 15.3173 21.2491C14.6014 21.6636 13.8741 22.085 13.1542 22.502ZM16.7152 20.8683C15.7609 21.3063 13.8639 20.3661 12.7883 18.855C14.4948 18.9471 15.7303 19.6446 16.7152 20.8683ZM14.2628 18.6784C14.9375 18.2898 15.6188 17.8976 16.3384 17.4831V19.8273C15.6111 19.4246 14.9229 19.0437 14.2628 18.6784ZM12.6625 18.5257C13.7752 17.1807 14.9725 16.365 16.8027 16.309C15.7141 17.7308 14.4504 18.4177 12.6625 18.5257Z" fill="#25193C"/>
<path d="M17.0186 31.9945C16.4122 31.9945 15.7997 31.9604 15.1982 31.8926C7.10383 30.9791 1 24.1532 1 16.0152C1 7.20397 8.18598 0.0358269 17.0186 0.0358269V0.27942C8.32069 0.27942 1.24459 7.33835 1.24459 16.0152C1.24459 24.0294 7.25522 30.7505 15.225 31.6502C15.818 31.7168 16.4211 31.7509 17.0182 31.7509H17.1297V31.9941L17.0186 31.9945Z" fill="#25193C"/>
<path d="M21.1132 31.4677L21.0505 31.2318C27.9646 29.4138 32.7938 23.1567 32.7938 16.0145C32.7938 9.92673 29.2198 4.32774 23.6881 1.75011L23.7915 1.52885C29.4086 4.14667 33.0384 9.83254 33.0384 16.0145C33.0384 23.2675 28.1348 29.6221 21.1132 31.4677Z" fill="#25193C"/>
<path d="M24.7457 15.9845H1.17328V16.2127H24.7457V15.9845Z" fill="#25193C"/>
<path d="M32.9147 15.9863H26.8491V16.2144H32.9147V15.9863Z" fill="#25193C"/>
<path d="M17.133 15.633H16.9043V31.8726H17.133V15.633Z" fill="#25193C"/>
<path d="M17.017 14.7706C17.1442 14.7706 17.2473 14.6677 17.2473 14.5408C17.2473 14.4139 17.1442 14.311 17.017 14.311C16.8897 14.311 16.7866 14.4139 16.7866 14.5408C16.7866 14.6677 16.8897 14.7706 17.017 14.7706Z" fill="#25193C"/>
<path d="M17.02 14.1651C17.1113 14.1651 17.1852 14.0913 17.1852 14.0002C17.1852 13.9092 17.1113 13.8354 17.02 13.8354C16.9287 13.8354 16.8548 13.9092 16.8548 14.0002C16.8548 14.0913 16.9287 14.1651 17.02 14.1651Z" fill="#25193C"/>
<path d="M17.0208 15.6331C17.2287 15.6331 17.3973 15.465 17.3973 15.2576C17.3973 15.0501 17.2287 14.882 17.0208 14.882C16.8129 14.882 16.6444 15.0501 16.6444 15.2576C16.6444 15.465 16.8129 15.6331 17.0208 15.6331Z" fill="#25193C"/>
<path d="M22.6819 1.50952C22.8755 1.50952 23.0323 1.35302 23.0323 1.15997C23.0323 0.966912 22.8755 0.81041 22.6819 0.81041C22.4884 0.81041 22.3315 0.966912 22.3315 1.15997C22.3315 1.35302 22.4884 1.50952 22.6819 1.50952Z" fill="#25193C"/>
<path d="M21.2586 1.02575C21.4521 1.02575 21.609 0.869244 21.609 0.676189C21.609 0.483134 21.4521 0.326632 21.2586 0.326632C21.0651 0.326632 20.9082 0.483134 20.9082 0.676189C20.9082 0.869244 21.0651 1.02575 21.2586 1.02575Z" fill="#25193C"/>
<path d="M20.0185 0.653329C20.1424 0.653329 20.2428 0.553175 20.2428 0.429629C20.2428 0.306083 20.1424 0.205929 20.0185 0.205929C19.8947 0.205929 19.7943 0.306083 19.7943 0.429629C19.7943 0.553175 19.8947 0.653329 20.0185 0.653329Z" fill="#25193C"/>
<path d="M18.7623 0.4474C18.8861 0.4474 18.9865 0.347246 18.9865 0.2237C18.9865 0.100154 18.8861 0 18.7623 0C18.6384 0 18.538 0.100154 18.538 0.2237C18.538 0.347246 18.6384 0.4474 18.7623 0.4474Z" fill="#25193C"/>
<path d="M20.2994 31.8219C20.4929 31.8219 20.6498 31.6654 20.6498 31.4724C20.6498 31.2793 20.4929 31.1228 20.2994 31.1228C20.1059 31.1228 19.949 31.2793 19.949 31.4724C19.949 31.6654 20.1059 31.8219 20.2994 31.8219Z" fill="#25193C"/>
<path d="M19.0655 31.9508C19.1893 31.9508 19.2897 31.8507 19.2897 31.7271C19.2897 31.6036 19.1893 31.5034 19.0655 31.5034C18.9416 31.5034 18.8412 31.6036 18.8412 31.7271C18.8412 31.8507 18.9416 31.9508 19.0655 31.9508Z" fill="#25193C"/>
<path d="M17.9454 32C18.0692 32 18.1696 31.8998 18.1696 31.7763C18.1696 31.6528 18.0692 31.5526 17.9454 31.5526C17.8215 31.5526 17.7211 31.6528 17.7211 31.7763C17.7211 31.8998 17.8215 32 17.9454 32Z" fill="#25193C"/>
<path d="M26.4384 15.0601L26.1165 11.8683L24.3062 11.4643C24.2252 11.446 24.1703 11.373 24.176 11.2901C24.1817 11.2077 24.2456 11.1428 24.3286 11.1354L26.1307 10.9783L26.5784 7.55665L26.9919 10.9333L28.9441 11.2844C29.019 11.2978 29.0752 11.3608 29.0796 11.4367C29.078 11.5106 29.0235 11.5711 28.9498 11.5808L27.013 11.8232L26.7102 15.0589L26.4384 15.0601ZM25.0319 11.3474L26.3684 11.6458L26.569 13.6367L26.7615 11.5804L28.1123 11.4111L26.7456 11.1655L26.5698 9.72707L26.3729 11.2305L25.0319 11.3474Z" fill="#25193C"/>
<path d="M26.6301 5.63874H26.5149V8.72467H26.6301V5.63874Z" fill="#25193C"/>
<path d="M26.5866 5.67695C26.739 5.67695 26.8625 5.55371 26.8625 5.40169C26.8625 5.24967 26.739 5.12643 26.5866 5.12643C26.4342 5.12643 26.3107 5.24967 26.3107 5.40169C26.3107 5.55371 26.4342 5.67695 26.5866 5.67695Z" fill="#25193C"/>
<path d="M22.6528 4.16162C22.7584 4.16162 22.844 4.07619 22.844 3.9708C22.844 3.86542 22.7584 3.77999 22.6528 3.77999C22.5471 3.77999 22.4615 3.86542 22.4615 3.9708C22.4615 4.07619 22.5471 4.16162 22.6528 4.16162Z" fill="#25193C"/>
<path d="M19.8765 1.91347C19.956 1.91347 20.0205 1.84912 20.0205 1.76975C20.0205 1.69037 19.956 1.62603 19.8765 1.62603C19.7969 1.62603 19.7324 1.69037 19.7324 1.76975C19.7324 1.84912 19.7969 1.91347 19.8765 1.91347Z" fill="#25193C"/>
<path d="M21.3926 4.69119C21.4722 4.69119 21.5367 4.62685 21.5367 4.54747C21.5367 4.4681 21.4722 4.40375 21.3926 4.40375C21.3131 4.40375 21.2486 4.4681 21.2486 4.54747C21.2486 4.62685 21.3131 4.69119 21.3926 4.69119Z" fill="#25193C"/>
<path d="M21.3926 5.22954C21.4722 5.22954 21.5367 5.16519 21.5367 5.08582C21.5367 5.00644 21.4722 4.9421 21.3926 4.9421C21.3131 4.9421 21.2486 5.00644 21.2486 5.08582C21.2486 5.16519 21.3131 5.22954 21.3926 5.22954Z" fill="#25193C"/>
<path d="M19.8761 2.54066C20.0033 2.54066 20.1064 2.43777 20.1064 2.31087C20.1064 2.18396 20.0033 2.08108 19.8761 2.08108C19.7489 2.08108 19.6457 2.18396 19.6457 2.31087C19.6457 2.43777 19.7489 2.54066 19.8761 2.54066Z" fill="#25193C"/>
<path d="M14.7125 7.0296C14.8725 7.0296 15.0022 6.90018 15.0022 6.74053C15.0022 6.58089 14.8725 6.45147 14.7125 6.45147C14.5524 6.45147 14.4227 6.58089 14.4227 6.74053C14.4227 6.90018 14.5524 7.0296 14.7125 7.0296Z" fill="#25193C"/>
<path d="M23.4283 6.64342C23.5555 6.64342 23.6586 6.54054 23.6586 6.41363C23.6586 6.28672 23.5555 6.18384 23.4283 6.18384C23.301 6.18384 23.1979 6.28672 23.1979 6.41363C23.1979 6.54054 23.301 6.64342 23.4283 6.64342Z" fill="#25193C"/>
<path d="M23.4283 8.37183C23.5555 8.37183 23.6586 8.26895 23.6586 8.14204C23.6586 8.01513 23.5555 7.91225 23.4283 7.91225C23.301 7.91225 23.1979 8.01513 23.1979 8.14204C23.1979 8.26895 23.301 8.37183 23.4283 8.37183Z" fill="#25193C"/>
<path d="M23.4283 10.0999C23.5555 10.0999 23.6586 9.99698 23.6586 9.87007C23.6586 9.74316 23.5555 9.64028 23.4283 9.64028C23.301 9.64028 23.1979 9.74316 23.1979 9.87007C23.1979 9.99698 23.301 10.0999 23.4283 10.0999Z" fill="#25193C"/>
<path d="M21.3923 15.029C21.5195 15.029 21.6226 14.9262 21.6226 14.7992C21.6226 14.6723 21.5195 14.5695 21.3923 14.5695C21.265 14.5695 21.1619 14.6723 21.1619 14.7992C21.1619 14.9262 21.265 15.029 21.3923 15.029Z" fill="#25193C"/>
<path d="M26.0831 16.3279C26.2103 16.3279 26.3134 16.225 26.3134 16.0981C26.3134 15.9712 26.2103 15.8683 26.0831 15.8683C25.9559 15.8683 25.8527 15.9712 25.8527 16.0981C25.8527 16.225 25.9559 16.3279 26.0831 16.3279Z" fill="#25193C"/>
<path d="M21.389 15.504C21.4803 15.504 21.5543 15.4302 21.5543 15.3392C21.5543 15.2481 21.4803 15.1743 21.389 15.1743C21.2978 15.1743 21.2238 15.2481 21.2238 15.3392C21.2238 15.4302 21.2978 15.504 21.389 15.504Z" fill="#25193C"/>
<path d="M13.9511 6.92438C14.0529 6.92438 14.1355 6.84204 14.1355 6.74047C14.1355 6.63889 14.0529 6.55655 13.9511 6.55655C13.8493 6.55655 13.7667 6.63889 13.7667 6.74047C13.7667 6.84204 13.8493 6.92438 13.9511 6.92438Z" fill="#25193C"/>
<path d="M19.8742 3.60768C20.1439 3.60768 20.3626 3.38956 20.3626 3.12049C20.3626 2.85142 20.1439 2.6333 19.8742 2.6333C19.6045 2.6333 19.3858 2.85142 19.3858 3.12049C19.3858 3.38956 19.6045 3.60768 19.8742 3.60768Z" fill="#25193C"/>
<path d="M15.8912 7.35362C16.2306 7.35362 16.5058 7.07915 16.5058 6.74058C16.5058 6.40201 16.2306 6.12754 15.8912 6.12754C15.5518 6.12754 15.2767 6.40201 15.2767 6.74058C15.2767 7.07915 15.5518 7.35362 15.8912 7.35362Z" fill="#25193C"/>
<path d="M21.3898 14.4573C21.5978 14.4573 21.7663 14.2892 21.7663 14.0818C21.7663 13.8743 21.5978 13.7062 21.3898 13.7062C21.1819 13.7062 21.0134 13.8743 21.0134 14.0818C21.0134 14.2892 21.1819 14.4573 21.3898 14.4573Z" fill="#25193C"/>
<path d="M22.7283 1.19971H22.5976V3.84676H22.7283V1.19971Z" fill="#25193C"/>
<path d="M19.9612 3.46859H19.8005V7.49519H19.9612V3.46859Z" fill="#25193C"/>
<path d="M21.5082 5.64125H21.2795V13.8029H21.5082V5.64125Z" fill="#25193C"/>
<path d="M17.133 0.0402988H16.9043V13.593H17.133V0.0402988Z" fill="#25193C"/>
<path d="M4.35991 6.42409H6.73543C6.81357 6.42409 6.87665 6.48702 6.87665 6.56497C6.87665 6.64292 6.81357 6.70585 6.73543 6.70585H4.14991" fill="#25193C"/>
<path d="M4.03394 6.86988H10.4263L5.13684 15.7209L2.07679 10.6001L2.21679 10.3261L5.13725 15.2134L9.96765 7.13053H3.89963L4.03394 6.86988Z" fill="#25193C"/>
<path d="M3.98412 15.9837L1.6436 11.9758L2.13238 10.4436L5.13423 15.4673L8.65865 9.57029H10.0916L6.34621 15.9837" fill="#25193C"/>
<path d="M5.15567 7.00003H5.09055V9.08357H5.15567V7.00003Z" fill="#25193C"/>
<path d="M5.16186 13.5928H5.09674V15.6764H5.16186V13.5928Z" fill="#25193C"/>
<path d="M5.13459 8.47234C5.2717 8.47234 5.38285 8.36147 5.38285 8.22469C5.38285 8.08792 5.2717 7.97704 5.13459 7.97704C4.99748 7.97704 4.88634 8.08792 4.88634 8.22469C4.88634 8.36147 4.99748 8.47234 5.13459 8.47234Z" fill="#25193C"/>
<path d="M5.12525 7.73811C5.22303 7.73811 5.30229 7.65904 5.30229 7.5615C5.30229 7.46397 5.22303 7.3849 5.12525 7.3849C5.02748 7.3849 4.94822 7.46397 4.94822 7.5615C4.94822 7.65904 5.02748 7.73811 5.12525 7.73811Z" fill="#25193C"/>
<path d="M5.13144 14.457C5.22922 14.457 5.30848 14.3779 5.30848 14.2804C5.30848 14.1829 5.22922 14.1038 5.13144 14.1038C5.03367 14.1038 4.95441 14.1829 4.95441 14.2804C4.95441 14.3779 5.03367 14.457 5.13144 14.457Z" fill="#25193C"/>
<path d="M5.13144 13.0043C5.22922 13.0043 5.30848 12.9253 5.30848 12.8277C5.30848 12.7302 5.22922 12.6511 5.13144 12.6511C5.03367 12.6511 4.95441 12.7302 4.95441 12.8277C4.95441 12.9253 5.03367 13.0043 5.13144 13.0043Z" fill="#25193C"/>
<path d="M5.13448 12.5472C5.19292 12.5472 5.2403 12.4999 5.2403 12.4416C5.2403 12.3833 5.19292 12.3361 5.13448 12.3361C5.07604 12.3361 5.02867 12.3833 5.02867 12.4416C5.02867 12.4999 5.07604 12.5472 5.13448 12.5472Z" fill="#25193C"/>
<path d="M5.12796 9.68689C5.31609 9.68689 5.4686 9.53475 5.4686 9.34707C5.4686 9.1594 5.31609 9.00726 5.12796 9.00726C4.93983 9.00726 4.78732 9.1594 4.78732 9.34707C4.78732 9.53475 4.93983 9.68689 5.12796 9.68689Z" fill="#25193C"/>
<path d="M5.12796 13.7883C5.31609 13.7883 5.4686 13.6362 5.4686 13.4485C5.4686 13.2608 5.31609 13.1087 5.12796 13.1087C4.93983 13.1087 4.78732 13.2608 4.78732 13.4485C4.78732 13.6362 4.93983 13.7883 5.12796 13.7883Z" fill="#25193C"/>
<path d="M10.7592 16.0403C11.5849 15.5332 12.3386 14.9186 13.0093 14.2048L13.166 14.3514C12.536 15.0221 11.8344 15.6063 11.0697 16.0988" fill="#25193C"/>
<path d="M14.1402 13.1615L13.9648 13.0377C14.8756 11.7531 15.4852 10.3212 15.7774 8.78089L15.9887 8.82068C15.6908 10.3915 15.0689 11.8518 14.1402 13.1615Z" fill="#25193C"/>
<path d="M14.1893 0.381778C15.0566 1.62289 15.6797 3.05441 15.9817 4.61381L15.7708 4.65441C15.4685 3.09257 14.8376 1.66146 13.9586 0.426843" fill="#25193C"/>
<path d="M13.735 13.9204C13.8166 13.9204 13.8827 13.8544 13.8827 13.773C13.8827 13.6916 13.8166 13.6256 13.735 13.6256C13.6534 13.6256 13.5873 13.6916 13.5873 13.773C13.5873 13.8544 13.6534 13.9204 13.735 13.9204Z" fill="#25193C"/>
<path d="M15.9666 8.71065C16.0127 8.71065 16.0501 8.67337 16.0501 8.62738C16.0501 8.58139 16.0127 8.54411 15.9666 8.54411C15.9206 8.54411 15.8832 8.58139 15.8832 8.62738C15.8832 8.67337 15.9206 8.71065 15.9666 8.71065Z" fill="#25193C"/>
<path d="M15.9481 4.93818C15.9942 4.93818 16.0316 4.9009 16.0316 4.85491C16.0316 4.80893 15.9942 4.77165 15.9481 4.77165C15.902 4.77165 15.8646 4.80893 15.8646 4.85491C15.8646 4.9009 15.902 4.93818 15.9481 4.93818Z" fill="#25193C"/>
<path d="M10.7009 5.21978C10.7883 5.21978 10.8592 5.14907 10.8592 5.06185C10.8592 4.97463 10.7883 4.90392 10.7009 4.90392C10.6134 4.90392 10.5426 4.97463 10.5426 5.06185C10.5426 5.14907 10.6134 5.21978 10.7009 5.21978Z" fill="#25193C"/>
<path d="M10.4348 4.63381C10.5222 4.63381 10.5931 4.5631 10.5931 4.47588C10.5931 4.38865 10.5222 4.31795 10.4348 4.31795C10.3473 4.31795 10.2765 4.38865 10.2765 4.47588C10.2765 4.5631 10.3473 4.63381 10.4348 4.63381Z" fill="#25193C"/>
<path d="M10.1736 4.10075C10.2295 4.10075 10.2749 4.05549 10.2749 3.99966C10.2749 3.94383 10.2295 3.89857 10.1736 3.89857C10.1176 3.89857 10.0722 3.94383 10.0722 3.99966C10.0722 4.05549 10.1176 4.10075 10.1736 4.10075Z" fill="#25193C"/>
<path d="M9.81465 3.65766C9.87062 3.65766 9.91599 3.6124 9.91599 3.55657C9.91599 3.50074 9.87062 3.45548 9.81465 3.45548C9.75868 3.45548 9.71331 3.50074 9.71331 3.55657C9.71331 3.6124 9.75868 3.65766 9.81465 3.65766Z" fill="#25193C"/>
<path d="M8.41223 12.4153L8.30235 12.231C12.2443 9.89453 10.7735 5.46437 10.758 5.42012L10.9615 5.35029C10.9774 5.39657 12.5068 9.98872 8.41223 12.4153Z" fill="#25193C"/>
<path d="M17.1085 28.8891V28.6455C21.5632 28.6455 25.7177 26.2531 27.9511 22.4027L28.1628 22.5245C25.8861 26.4504 21.6503 28.8891 17.1085 28.8891Z" fill="#25193C"/>
<path d="M29.7147 18.1715L29.473 18.1334C29.5763 17.485 29.6288 16.8208 29.6288 16.1587H29.8734C29.8734 16.8338 29.8201 17.5114 29.7147 18.1715Z" fill="#25193C"/>
<path d="M17.0899 25.8532V25.6096C17.4546 25.6096 17.8225 25.5885 18.1839 25.5471L18.2115 25.7895C17.8408 25.8313 17.4635 25.8532 17.0899 25.8532Z" fill="#25193C"/>
<path d="M20.5696 25.2215L20.4874 24.9905C24.2902 23.6479 26.8452 20.0293 26.8452 15.9861H27.0902C27.0902 20.1329 24.4696 23.844 20.5696 25.2215Z" fill="#25193C"/>
<path d="M28.8988 20.6583C29.026 20.6583 29.1292 20.5555 29.1292 20.4285C29.1292 20.3016 29.026 20.1988 28.8988 20.1988C28.7716 20.1988 28.6685 20.3016 28.6685 20.4285C28.6685 20.5555 28.7716 20.6583 28.8988 20.6583Z" fill="#25193C"/>
<path d="M29.2421 19.7514C29.3334 19.7514 29.4074 19.6776 29.4074 19.5865C29.4074 19.4955 29.3334 19.4217 29.2421 19.4217C29.1509 19.4217 29.0769 19.4955 29.0769 19.5865C29.0769 19.6776 29.1509 19.7514 29.2421 19.7514Z" fill="#25193C"/>
<path d="M29.4395 18.9539C29.5065 18.9539 29.5608 18.8997 29.5608 18.8329C29.5608 18.7661 29.5065 18.7119 29.4395 18.7119C29.3726 18.7119 29.3183 18.7661 29.3183 18.8329C29.3183 18.8997 29.3726 18.9539 29.4395 18.9539Z" fill="#25193C"/>
<path d="M25.3861 16.219C25.4531 16.219 25.5074 16.1648 25.5074 16.098C25.5074 16.0312 25.4531 15.977 25.3861 15.977C25.3191 15.977 25.2648 16.0312 25.2648 16.098C25.2648 16.1648 25.3191 16.219 25.3861 16.219Z" fill="#25193C"/>
<path d="M28.4323 21.8487C28.6402 21.8487 28.8087 21.6806 28.8087 21.4732C28.8087 21.2658 28.6402 21.0977 28.4323 21.0977C28.2244 21.0977 28.0558 21.2658 28.0558 21.4732C28.0558 21.6806 28.2244 21.8487 28.4323 21.8487Z" fill="#25193C"/>
<path d="M19.7647 25.5725C19.8919 25.5725 19.9951 25.4696 19.9951 25.3427C19.9951 25.2158 19.8919 25.1129 19.7647 25.1129C19.6375 25.1129 19.5344 25.2158 19.5344 25.3427C19.5344 25.4696 19.6375 25.5725 19.7647 25.5725Z" fill="#25193C"/>
<path d="M18.8765 25.721C18.9678 25.721 19.0418 25.6472 19.0418 25.5562C19.0418 25.4651 18.9678 25.3913 18.8765 25.3913C18.7853 25.3913 18.7113 25.4651 18.7113 25.5562C18.7113 25.6472 18.7853 25.721 18.8765 25.721Z" fill="#25193C"/>
<path d="M20.3272 19.9419C20.6114 19.9419 20.8417 19.7121 20.8417 19.4287C20.8417 19.1453 20.6114 18.9156 20.3272 18.9156C20.0431 18.9156 19.8128 19.1453 19.8128 19.4287C19.8128 19.7121 20.0431 19.9419 20.3272 19.9419Z" fill="#25193C"/>
<path d="M19.3294 18.7613C19.5101 18.7613 19.6566 18.6151 19.6566 18.4348C19.6566 18.2546 19.5101 18.1084 19.3294 18.1084C19.1486 18.1084 19.0021 18.2546 19.0021 18.4348C19.0021 18.6151 19.1486 18.7613 19.3294 18.7613Z" fill="#25193C"/>
<path d="M21.9316 22.0321C22.5344 22.0321 23.0231 21.5446 23.0231 20.9432C23.0231 20.3419 22.5344 19.8544 21.9316 19.8544C21.3288 19.8544 20.8401 20.3419 20.8401 20.9432C20.8401 21.5446 21.3288 22.0321 21.9316 22.0321Z" fill="#25193C"/>
<path d="M39.5079 12.2524L39.2608 12.0205L45.6565 5.22341L45.8891 5.44081L39.5079 12.2524ZM37.6183 13.2959C37.5989 13.2959 37.5892 13.2669 37.5892 13.2089C37.5892 13.151 37.5989 13.122 37.6183 13.122C37.9768 13.122 38.2481 13.0978 38.4323 13.0495C38.6164 13.0012 38.7375 12.9046 38.7956 12.7597C38.8635 12.6147 38.8974 12.4022 38.8974 12.122V5.41182C38.8974 5.13163 38.8635 4.9239 38.7956 4.78863C38.7375 4.6437 38.6164 4.54708 38.4323 4.49878C38.2578 4.4408 37.9913 4.41182 37.6328 4.41182C37.6134 4.41182 37.6037 4.38283 37.6037 4.32486C37.6037 4.26689 37.6134 4.23791 37.6328 4.23791C37.8654 4.23791 38.127 4.24757 38.4177 4.26689C38.7181 4.27655 39.0282 4.28138 39.348 4.28138C39.7066 4.28138 40.0312 4.27655 40.3219 4.26689C40.6126 4.24757 40.8743 4.23791 41.1068 4.23791C41.1262 4.23791 41.1359 4.26689 41.1359 4.32486C41.1359 4.38283 41.1262 4.41182 41.1068 4.41182C40.7483 4.41182 40.4769 4.4408 40.2928 4.49878C40.1087 4.55675 39.9827 4.6582 39.9149 4.80312C39.8568 4.94805 39.8277 5.16061 39.8277 5.44081V12.122C39.8277 12.4022 39.8568 12.6147 39.9149 12.7597C39.973 12.9046 40.0942 13.0012 40.2783 13.0495C40.4721 13.0978 40.7483 13.122 41.1068 13.122C41.1262 13.122 41.1359 13.151 41.1359 13.2089C41.1359 13.2669 41.1262 13.2959 41.1068 13.2959C40.8646 13.2959 40.5981 13.2911 40.3074 13.2814C40.0263 13.2717 39.7066 13.2669 39.348 13.2669C39.0282 13.2669 38.7181 13.2717 38.4177 13.2814C38.1173 13.2911 37.8508 13.2959 37.6183 13.2959ZM43.9558 13.2959C43.9365 13.2959 43.9268 13.2669 43.9268 13.2089C43.9268 13.151 43.9365 13.122 43.9558 13.122C44.3338 13.122 44.6099 13.0978 44.7844 13.0495C44.9685 13.0012 45.0896 12.9046 45.1478 12.7597C45.2059 12.6147 45.235 12.4022 45.235 12.122V5.44081C45.235 5.16061 45.2059 4.94805 45.1478 4.80312C45.0896 4.6582 44.9685 4.55675 44.7844 4.49878C44.6099 4.4408 44.3338 4.41182 43.9558 4.41182C43.9365 4.41182 43.9268 4.38283 43.9268 4.32486C43.9268 4.26689 43.9365 4.23791 43.9558 4.23791C44.1981 4.23791 44.4597 4.24757 44.7408 4.26689C45.0315 4.27655 45.3561 4.28138 45.7147 4.28138C46.0344 4.28138 46.3445 4.27655 46.6449 4.26689C46.9454 4.24757 47.2118 4.23791 47.4444 4.23791C47.4638 4.23791 47.4735 4.26689 47.4735 4.32486C47.4735 4.38283 47.4638 4.41182 47.4444 4.41182C47.0859 4.41182 46.8145 4.4408 46.6304 4.49878C46.4463 4.54708 46.3252 4.6437 46.267 4.78863C46.2089 4.9239 46.1798 5.13163 46.1798 5.41182V12.122C46.1798 12.4022 46.2089 12.6147 46.267 12.7597C46.3252 12.9046 46.4463 13.0012 46.6304 13.0495C46.8145 13.0978 47.0859 13.122 47.4444 13.122C47.4638 13.122 47.4735 13.151 47.4735 13.2089C47.4735 13.2669 47.4638 13.2959 47.4444 13.2959C47.2118 13.2959 46.9454 13.2911 46.6449 13.2814C46.3445 13.2717 46.0344 13.2669 45.7147 13.2669C45.3561 13.2669 45.0315 13.2717 44.7408 13.2814C44.4597 13.2911 44.1981 13.2959 43.9558 13.2959Z" fill="#25193C"/>
<path d="M56.2686 5.44081C56.2686 5.16061 56.2396 4.94805 56.1814 4.80312C56.1233 4.6582 56.0021 4.55675 55.818 4.49878C55.6436 4.4408 55.3674 4.41182 54.9895 4.41182C54.9604 4.41182 54.9459 4.38283 54.9459 4.32486C54.9459 4.26689 54.9604 4.23791 54.9895 4.23791C55.222 4.23791 55.4837 4.24757 55.7744 4.26689C56.0651 4.27655 56.3898 4.28138 56.7483 4.28138C57.0681 4.28138 57.3782 4.27655 57.6786 4.26689C57.979 4.24757 58.2406 4.23791 58.4635 4.23791C58.4926 4.23791 58.5071 4.26689 58.5071 4.32486C58.5071 4.38283 58.4926 4.41182 58.4635 4.41182C58.105 4.41182 57.8336 4.4408 57.6495 4.49878C57.4654 4.54708 57.3443 4.6437 57.2861 4.78863C57.228 4.9239 57.1989 5.13163 57.1989 5.41182V12.122C57.1989 12.4022 57.228 12.6147 57.2861 12.7597C57.3443 12.9046 57.4654 13.0012 57.6495 13.0495C57.8336 13.0978 58.105 13.122 58.4635 13.122C58.4926 13.122 58.5071 13.151 58.5071 13.2089C58.5071 13.2669 58.4926 13.2959 58.4635 13.2959C58.2406 13.2959 57.979 13.2911 57.6786 13.2814C57.3782 13.2717 57.0681 13.2669 56.7483 13.2669C56.3898 13.2669 56.0651 13.2717 55.7744 13.2814C55.4837 13.2911 55.222 13.2959 54.9895 13.2959C54.9604 13.2959 54.9459 13.2669 54.9459 13.2089C54.9459 13.151 54.9604 13.122 54.9895 13.122C55.3674 13.122 55.6436 13.0978 55.818 13.0495C56.0021 13.0012 56.1233 12.9046 56.1814 12.7597C56.2396 12.6147 56.2686 12.4022 56.2686 12.122V5.44081ZM50.1782 8.73067V8.42632H56.6756V8.73067H50.1782ZM49.7566 12.122V5.41182C49.7566 5.13163 49.7227 4.9239 49.6549 4.78863C49.5967 4.6437 49.4756 4.54708 49.2915 4.49878C49.117 4.4408 48.8506 4.41182 48.492 4.41182C48.4726 4.41182 48.4629 4.38283 48.4629 4.32486C48.4629 4.26689 48.4726 4.23791 48.492 4.23791C48.7246 4.23791 48.9862 4.24757 49.2769 4.26689C49.5773 4.27655 49.8874 4.28138 50.2072 4.28138C50.5658 4.28138 50.8904 4.27655 51.1811 4.26689C51.4718 4.24757 51.7335 4.23791 51.966 4.23791C51.9854 4.23791 51.9951 4.26689 51.9951 4.32486C51.9951 4.38283 51.9854 4.41182 51.966 4.41182C51.6075 4.41182 51.3362 4.4408 51.152 4.49878C50.9679 4.55675 50.8419 4.6582 50.7741 4.80312C50.716 4.94805 50.6869 5.16061 50.6869 5.44081V12.122C50.6869 12.4022 50.716 12.6147 50.7741 12.7597C50.8323 12.9046 50.9534 13.0012 51.1375 13.0495C51.3313 13.0978 51.6075 13.122 51.966 13.122C51.9854 13.122 51.9951 13.151 51.9951 13.2089C51.9951 13.2669 51.9854 13.2959 51.966 13.2959C51.7238 13.2959 51.4573 13.2911 51.1666 13.2814C50.8856 13.2717 50.5658 13.2669 50.2072 13.2669C49.8874 13.2669 49.5773 13.2717 49.2769 13.2814C48.9765 13.2911 48.71 13.2959 48.4775 13.2959C48.4581 13.2959 48.4484 13.2669 48.4484 13.2089C48.4484 13.151 48.4581 13.122 48.4775 13.122C48.836 13.122 49.1073 13.0978 49.2915 13.0495C49.4756 13.0012 49.5967 12.9046 49.6549 12.7597C49.7227 12.6147 49.7566 12.4022 49.7566 12.122Z" fill="#25193C"/>
<path d="M65.0306 4.07848C65.4764 4.07848 65.9367 4.12196 66.4115 4.20892C66.896 4.29588 67.2836 4.42148 67.5744 4.58573C67.6616 4.63404 67.7149 4.67752 67.7343 4.71617C67.7633 4.75482 67.7827 4.82728 67.7924 4.93356L67.9523 6.55675C67.9523 6.57608 67.9281 6.5954 67.8796 6.61472C67.8312 6.62438 67.8021 6.60989 67.7924 6.57124C67.5695 5.78863 67.1625 5.23308 66.5714 4.90457C65.9803 4.56641 65.2777 4.39733 64.4637 4.39733C63.7175 4.39733 63.0683 4.56158 62.5159 4.89008C61.9733 5.20892 61.5517 5.66303 61.2513 6.2524C60.9509 6.83211 60.8007 7.51328 60.8007 8.29589C60.8007 8.98188 60.9073 9.62922 61.1205 10.2379C61.3337 10.837 61.6292 11.3635 62.0072 11.8176C62.3948 12.2717 62.8357 12.6292 63.3299 12.8901C63.8338 13.1413 64.3668 13.2669 64.9289 13.2669C65.6072 13.2669 66.2032 13.0833 66.7168 12.7162C67.24 12.3394 67.6422 11.7452 67.9232 10.9336C67.9329 10.8949 67.962 10.8853 68.0104 10.9046C68.0686 10.9143 68.0976 10.9287 68.0976 10.9481L67.8941 12.5858C67.8748 12.7017 67.8505 12.779 67.8215 12.8176C67.8021 12.8466 67.7488 12.8804 67.6616 12.9191C67.1964 13.1123 66.7361 13.2524 66.2807 13.3394C65.8252 13.4263 65.3649 13.4698 64.8998 13.4698C63.9792 13.4698 63.1894 13.3297 62.5305 13.0495C61.8715 12.7597 61.3337 12.3829 60.917 11.9191C60.5003 11.4457 60.195 10.9287 60.0012 10.3684C59.8074 9.79831 59.7105 9.23792 59.7105 8.68719C59.7105 7.99154 59.8559 7.36352 60.1466 6.80313C60.4373 6.24274 60.8346 5.75965 61.3385 5.35385C61.8424 4.94805 62.4093 4.63404 63.0392 4.41182C63.6788 4.1896 64.3426 4.07848 65.0306 4.07848Z" fill="#25193C"/>
<path d="M71.4546 4.49878C70.8538 4.49878 70.3983 4.65337 70.0882 4.96254C69.7878 5.27172 69.5698 5.7983 69.4341 6.54226C69.4341 6.56158 69.4051 6.57124 69.3469 6.57124C69.2985 6.57124 69.2742 6.56158 69.2742 6.54226C69.2936 6.41666 69.313 6.24274 69.3324 6.02052C69.3518 5.78863 69.3711 5.54226 69.3905 5.28139C69.4196 5.02052 69.439 4.76931 69.4487 4.52776C69.4681 4.27655 69.4777 4.07365 69.4777 3.91906C69.4777 3.87076 69.502 3.8466 69.5504 3.8466C69.6086 3.8466 69.6376 3.87076 69.6376 3.91906C69.6376 4.01568 69.6861 4.08815 69.783 4.13646C69.8799 4.1751 69.9865 4.20409 70.1028 4.22341C70.2288 4.23307 70.3354 4.23791 70.4226 4.23791C71.2559 4.26689 72.2298 4.28138 73.3442 4.28138C74.0323 4.28138 74.5749 4.27655 74.9723 4.26689C75.3792 4.24757 75.7717 4.23791 76.1496 4.23791C76.4791 4.23791 76.7311 4.21858 76.9055 4.17993C77.0896 4.13163 77.2059 4.03018 77.2544 3.87559C77.2641 3.83694 77.2931 3.81761 77.3416 3.81761C77.39 3.81761 77.4143 3.83694 77.4143 3.87559C77.4046 4.02051 77.39 4.21858 77.3706 4.46979C77.3513 4.721 77.3367 4.98187 77.327 5.2524C77.3174 5.52293 77.3077 5.77414 77.298 6.00603C77.2883 6.23791 77.2834 6.41666 77.2834 6.54226C77.2834 6.56158 77.2544 6.57124 77.1962 6.57124C77.1381 6.57124 77.109 6.56158 77.109 6.54226C77.0799 5.78863 76.9249 5.26206 76.6439 4.96254C76.3628 4.65337 75.8977 4.49878 75.2484 4.49878C74.8414 4.49878 74.5362 4.5181 74.3327 4.55675C74.1292 4.59539 73.9935 4.68235 73.9257 4.81762C73.8675 4.94322 73.8385 5.15095 73.8385 5.44081V12.122C73.8385 12.4022 73.8724 12.6147 73.9402 12.7597C74.008 12.9046 74.1389 13.0012 74.3327 13.0495C74.5362 13.0978 74.8414 13.122 75.2484 13.122C75.2775 13.122 75.292 13.151 75.292 13.2089C75.292 13.2669 75.2775 13.2959 75.2484 13.2959C74.9965 13.2959 74.7106 13.2911 74.3908 13.2814C74.071 13.2717 73.7222 13.2669 73.3442 13.2669C72.9857 13.2669 72.6465 13.2717 72.3267 13.2814C72.007 13.2911 71.7162 13.2959 71.4546 13.2959C71.4352 13.2959 71.4255 13.2669 71.4255 13.2089C71.4255 13.151 71.4352 13.122 71.4546 13.122C71.8519 13.122 72.1523 13.0978 72.3558 13.0495C72.569 13.0012 72.7095 12.9046 72.7774 12.7597C72.8452 12.6147 72.8791 12.4022 72.8791 12.122V5.41182C72.8791 5.12197 72.8452 4.91424 72.7774 4.78863C72.7095 4.65337 72.5739 4.57124 72.3704 4.54225C72.1669 4.51327 71.8616 4.49878 71.4546 4.49878Z" fill="#25193C"/>
<path d="M80.3329 12.2524L80.0858 12.0205L86.4815 5.22341L86.7141 5.44081L80.3329 12.2524ZM78.4432 13.2959C78.4238 13.2959 78.4142 13.2669 78.4142 13.2089C78.4142 13.151 78.4238 13.122 78.4432 13.122C78.8018 13.122 79.0731 13.0978 79.2572 13.0495C79.4413 13.0012 79.5625 12.9046 79.6206 12.7597C79.6885 12.6147 79.7224 12.4022 79.7224 12.122V5.41182C79.7224 5.13163 79.6885 4.9239 79.6206 4.78863C79.5625 4.6437 79.4413 4.54708 79.2572 4.49878C79.0828 4.4408 78.8163 4.41182 78.4578 4.41182C78.4384 4.41182 78.4287 4.38283 78.4287 4.32486C78.4287 4.26689 78.4384 4.23791 78.4578 4.23791C78.6903 4.23791 78.952 4.24757 79.2427 4.26689C79.5431 4.27655 79.8532 4.28138 80.173 4.28138C80.5315 4.28138 80.8562 4.27655 81.1469 4.26689C81.4376 4.24757 81.6992 4.23791 81.9318 4.23791C81.9512 4.23791 81.9609 4.26689 81.9609 4.32486C81.9609 4.38283 81.9512 4.41182 81.9318 4.41182C81.5733 4.41182 81.3019 4.4408 81.1178 4.49878C80.9337 4.55675 80.8077 4.6582 80.7399 4.80312C80.6817 4.94805 80.6527 5.16061 80.6527 5.44081V12.122C80.6527 12.4022 80.6817 12.6147 80.7399 12.7597C80.798 12.9046 80.9191 13.0012 81.1033 13.0495C81.2971 13.0978 81.5733 13.122 81.9318 13.122C81.9512 13.122 81.9609 13.151 81.9609 13.2089C81.9609 13.2669 81.9512 13.2959 81.9318 13.2959C81.6895 13.2959 81.423 13.2911 81.1323 13.2814C80.8513 13.2717 80.5315 13.2669 80.173 13.2669C79.8532 13.2669 79.5431 13.2717 79.2427 13.2814C78.9423 13.2911 78.6758 13.2959 78.4432 13.2959ZM84.7808 13.2959C84.7614 13.2959 84.7517 13.2669 84.7517 13.2089C84.7517 13.151 84.7614 13.122 84.7808 13.122C85.1587 13.122 85.4349 13.0978 85.6093 13.0495C85.7935 13.0012 85.9146 12.9046 85.9727 12.7597C86.0309 12.6147 86.06 12.4022 86.06 12.122V5.44081C86.06 5.16061 86.0309 4.94805 85.9727 4.80312C85.9146 4.6582 85.7935 4.55675 85.6093 4.49878C85.4349 4.4408 85.1587 4.41182 84.7808 4.41182C84.7614 4.41182 84.7517 4.38283 84.7517 4.32486C84.7517 4.26689 84.7614 4.23791 84.7808 4.23791C85.0231 4.23791 85.2847 4.24757 85.5657 4.26689C85.8565 4.27655 86.1811 4.28138 86.5396 4.28138C86.8594 4.28138 87.1695 4.27655 87.4699 4.26689C87.7703 4.24757 88.0368 4.23791 88.2694 4.23791C88.2888 4.23791 88.2985 4.26689 88.2985 4.32486C88.2985 4.38283 88.2888 4.41182 88.2694 4.41182C87.9108 4.41182 87.6395 4.4408 87.4554 4.49878C87.2713 4.54708 87.1501 4.6437 87.092 4.78863C87.0338 4.9239 87.0048 5.13163 87.0048 5.41182V12.122C87.0048 12.4022 87.0338 12.6147 87.092 12.7597C87.1501 12.9046 87.2713 13.0012 87.4554 13.0495C87.6395 13.0978 87.9108 13.122 88.2694 13.122C88.2888 13.122 88.2985 13.151 88.2985 13.2089C88.2985 13.2669 88.2888 13.2959 88.2694 13.2959C88.0368 13.2959 87.7703 13.2911 87.4699 13.2814C87.1695 13.2717 86.8594 13.2669 86.5396 13.2669C86.1811 13.2669 85.8565 13.2717 85.5657 13.2814C85.2847 13.2911 85.0231 13.2959 84.7808 13.2959Z" fill="#25193C"/>
<path d="M91.5264 4.49878C90.9256 4.49878 90.4701 4.65337 90.16 4.96254C89.8596 5.27172 89.6416 5.7983 89.5059 6.54226C89.5059 6.56158 89.4769 6.57124 89.4187 6.57124C89.3703 6.57124 89.3461 6.56158 89.3461 6.54226C89.3654 6.41666 89.3848 6.24274 89.4042 6.02052C89.4236 5.78863 89.443 5.54226 89.4623 5.28139C89.4914 5.02052 89.5108 4.76931 89.5205 4.52776C89.5399 4.27655 89.5496 4.07365 89.5496 3.91906C89.5496 3.87076 89.5738 3.8466 89.6222 3.8466C89.6804 3.8466 89.7094 3.87076 89.7094 3.91906C89.7094 4.01568 89.7579 4.08815 89.8548 4.13646C89.9517 4.1751 90.0583 4.20409 90.1746 4.22341C90.3006 4.23307 90.4072 4.23791 90.4944 4.23791C91.3278 4.26689 92.3017 4.28138 93.4161 4.28138C94.1041 4.28138 94.6467 4.27655 95.0441 4.26689C95.4511 4.24757 95.8435 4.23791 96.2215 4.23791C96.5509 4.23791 96.8029 4.21858 96.9773 4.17993C97.1614 4.13163 97.2777 4.03018 97.3262 3.87559C97.3359 3.83694 97.3649 3.81761 97.4134 3.81761C97.4618 3.81761 97.4861 3.83694 97.4861 3.87559C97.4764 4.02051 97.4618 4.21858 97.4425 4.46979C97.4231 4.721 97.4085 4.98187 97.3988 5.2524C97.3892 5.52293 97.3795 5.77414 97.3698 6.00603C97.3601 6.23791 97.3552 6.41666 97.3552 6.54226C97.3552 6.56158 97.3262 6.57124 97.268 6.57124C97.2099 6.57124 97.1808 6.56158 97.1808 6.54226C97.1517 5.78863 96.9967 5.26206 96.7157 4.96254C96.4346 4.65337 95.9695 4.49878 95.3202 4.49878C94.9132 4.49878 94.608 4.5181 94.4045 4.55675C94.201 4.59539 94.0653 4.68235 93.9975 4.81762C93.9393 4.94322 93.9103 5.15095 93.9103 5.44081V12.122C93.9103 12.4022 93.9442 12.6147 94.012 12.7597C94.0799 12.9046 94.2107 13.0012 94.4045 13.0495C94.608 13.0978 94.9132 13.122 95.3202 13.122C95.3493 13.122 95.3638 13.151 95.3638 13.2089C95.3638 13.2669 95.3493 13.2959 95.3202 13.2959C95.0683 13.2959 94.7824 13.2911 94.4626 13.2814C94.1428 13.2717 93.794 13.2669 93.4161 13.2669C93.0575 13.2669 92.7183 13.2717 92.3986 13.2814C92.0788 13.2911 91.7881 13.2959 91.5264 13.2959C91.507 13.2959 91.4973 13.2669 91.4973 13.2089C91.4973 13.151 91.507 13.122 91.5264 13.122C91.9237 13.122 92.2241 13.0978 92.4276 13.0495C92.6408 13.0012 92.7813 12.9046 92.8492 12.7597C92.917 12.6147 92.9509 12.4022 92.9509 12.122V5.41182C92.9509 5.12197 92.917 4.91424 92.8492 4.78863C92.7813 4.65337 92.6457 4.57124 92.4422 4.54225C92.2387 4.51327 91.9334 4.49878 91.5264 4.49878Z" fill="#25193C"/>
<path d="M101.088 13.4698C100.817 13.4698 100.574 13.407 100.361 13.2814C100.158 13.1558 100.056 12.9722 100.056 12.7307C100.056 12.5761 100.109 12.4408 100.216 12.3249C100.322 12.1993 100.473 12.1365 100.666 12.1365C100.831 12.1365 100.952 12.18 101.03 12.2669C101.117 12.3442 101.18 12.436 101.219 12.5423C101.267 12.6486 101.316 12.7452 101.364 12.8321C101.422 12.9191 101.495 12.9626 101.582 12.9626C101.679 12.9626 101.771 12.9191 101.858 12.8321C101.945 12.7355 102.028 12.5906 102.105 12.3973L105.318 5.41182C105.473 5.07366 105.473 4.82245 105.318 4.6582C105.163 4.49394 104.824 4.41182 104.3 4.41182C104.271 4.41182 104.257 4.38283 104.257 4.32486C104.257 4.26689 104.271 4.23791 104.3 4.23791C104.533 4.23791 104.756 4.24757 104.969 4.26689C105.182 4.27655 105.458 4.28138 105.797 4.28138C105.962 4.28138 106.103 4.28138 106.219 4.28138C106.335 4.27172 106.447 4.26206 106.553 4.2524C106.67 4.24274 106.805 4.23791 106.96 4.23791C106.98 4.23791 106.989 4.26689 106.989 4.32486C106.989 4.38283 106.98 4.41182 106.96 4.41182C106.708 4.41182 106.466 4.50361 106.234 4.68718C106.011 4.87076 105.817 5.13646 105.652 5.48429L102.411 12.4843C102.265 12.8031 102.086 13.0495 101.873 13.2234C101.669 13.3877 101.408 13.4698 101.088 13.4698ZM102.701 11.4988L99.4162 5.44081C99.2224 5.07366 99.0383 4.81279 98.8639 4.6582C98.6992 4.49394 98.4617 4.41182 98.1516 4.41182C98.1323 4.41182 98.1226 4.38283 98.1226 4.32486C98.1226 4.26689 98.1323 4.23791 98.1516 4.23791C98.297 4.23791 98.4327 4.24274 98.5586 4.2524C98.6943 4.26206 98.8348 4.27172 98.9802 4.28138C99.1352 4.28138 99.3 4.28138 99.4744 4.28138C99.7554 4.28138 99.9977 4.28138 100.201 4.28138C100.414 4.27172 100.598 4.26206 100.754 4.2524C100.918 4.24274 101.068 4.23791 101.204 4.23791C101.233 4.23791 101.248 4.26689 101.248 4.32486C101.248 4.38283 101.233 4.41182 101.204 4.41182C100.836 4.41182 100.56 4.47945 100.376 4.61472C100.191 4.74998 100.191 4.97704 100.376 5.29588L103.196 10.4553L102.701 11.4988Z" fill="#25193C"/>
<path d="M109.625 4.49878C109.024 4.49878 108.569 4.65337 108.259 4.96254C107.958 5.27172 107.74 5.7983 107.605 6.54226C107.605 6.56158 107.576 6.57124 107.517 6.57124C107.469 6.57124 107.445 6.56158 107.445 6.54226C107.464 6.41666 107.483 6.24274 107.503 6.02052C107.522 5.78863 107.542 5.54226 107.561 5.28139C107.59 5.02052 107.609 4.76931 107.619 4.52776C107.639 4.27655 107.648 4.07365 107.648 3.91906C107.648 3.87076 107.672 3.8466 107.721 3.8466C107.779 3.8466 107.808 3.87076 107.808 3.91906C107.808 4.01568 107.857 4.08815 107.953 4.13646C108.05 4.1751 108.157 4.20409 108.273 4.22341C108.399 4.23307 108.506 4.23791 108.593 4.23791C109.426 4.26689 110.4 4.28138 111.515 4.28138C112.203 4.28138 112.745 4.27655 113.143 4.26689C113.55 4.24757 113.942 4.23791 114.32 4.23791C114.65 4.23791 114.902 4.21858 115.076 4.17993C115.26 4.13163 115.376 4.03018 115.425 3.87559C115.435 3.83694 115.464 3.81761 115.512 3.81761C115.561 3.81761 115.585 3.83694 115.585 3.87559C115.575 4.02051 115.561 4.21858 115.541 4.46979C115.522 4.721 115.507 4.98187 115.498 5.2524C115.488 5.52293 115.478 5.77414 115.468 6.00603C115.459 6.23791 115.454 6.41666 115.454 6.54226C115.454 6.56158 115.425 6.57124 115.367 6.57124C115.309 6.57124 115.28 6.56158 115.28 6.54226C115.25 5.78863 115.095 5.26206 114.814 4.96254C114.533 4.65337 114.068 4.49878 113.419 4.49878C113.012 4.49878 112.707 4.5181 112.503 4.55675C112.3 4.59539 112.164 4.68235 112.096 4.81762C112.038 4.94322 112.009 5.15095 112.009 5.44081V12.122C112.009 12.4022 112.043 12.6147 112.111 12.7597C112.179 12.9046 112.309 13.0012 112.503 13.0495C112.707 13.0978 113.012 13.122 113.419 13.122C113.448 13.122 113.463 13.151 113.463 13.2089C113.463 13.2669 113.448 13.2959 113.419 13.2959C113.167 13.2959 112.881 13.2911 112.561 13.2814C112.242 13.2717 111.893 13.2669 111.515 13.2669C111.156 13.2669 110.817 13.2717 110.497 13.2814C110.177 13.2911 109.887 13.2959 109.625 13.2959C109.606 13.2959 109.596 13.2669 109.596 13.2089C109.596 13.151 109.606 13.122 109.625 13.122C110.022 13.122 110.323 13.0978 110.526 13.0495C110.74 13.0012 110.88 12.9046 110.948 12.7597C111.016 12.6147 111.05 12.4022 111.05 12.122V5.41182C111.05 5.12197 111.016 4.91424 110.948 4.78863C110.88 4.65337 110.744 4.57124 110.541 4.54225C110.337 4.51327 110.032 4.49878 109.625 4.49878Z" fill="#25193C"/>
<path d="M47.3572 27.338C47.3863 27.338 47.4008 27.367 47.4008 27.425C47.4008 27.4829 47.3863 27.5119 47.3572 27.5119C47.1246 27.5119 46.8581 27.5071 46.5577 27.4974C46.267 27.4878 45.9618 27.4829 45.642 27.4829C45.3028 27.4829 44.983 27.4878 44.6826 27.4974C44.3919 27.5071 44.1303 27.5119 43.8977 27.5119C43.8686 27.5119 43.8541 27.4829 43.8541 27.425C43.8541 27.367 43.8686 27.338 43.8977 27.338C44.2562 27.338 44.5227 27.3139 44.6972 27.2655C44.8813 27.2172 45.0024 27.1206 45.0606 26.9757C45.1187 26.8308 45.1478 26.6182 45.1478 26.338V19.6858C45.1478 19.3863 45.1332 19.1737 45.1042 19.0481C45.0751 18.9225 44.9782 18.8501 44.8134 18.8307C44.6584 18.8018 44.3919 18.7873 44.014 18.7873H41.0341C40.6465 18.7873 40.3655 18.8018 40.1911 18.8307C40.0263 18.8597 39.9246 18.937 39.8858 19.0626C39.8471 19.1882 39.8277 19.396 39.8277 19.6858V26.338C39.8277 26.6182 39.8568 26.8308 39.9149 26.9757C39.973 27.1206 40.0942 27.2172 40.2783 27.2655C40.4624 27.3139 40.7337 27.338 41.0923 27.338C41.1117 27.338 41.1214 27.367 41.1214 27.425C41.1214 27.4829 41.1117 27.5119 41.0923 27.5119C40.85 27.5119 40.5835 27.5071 40.2928 27.4974C40.0021 27.4878 39.6823 27.4829 39.3335 27.4829C39.0137 27.4829 38.7036 27.4878 38.4032 27.4974C38.1125 27.5071 37.8508 27.5119 37.6183 27.5119C37.5989 27.5119 37.5892 27.4829 37.5892 27.425C37.5892 27.367 37.5989 27.338 37.6183 27.338C37.9768 27.338 38.2481 27.3139 38.4323 27.2655C38.6164 27.2172 38.7375 27.1206 38.7956 26.9757C38.8635 26.8308 38.8974 26.6182 38.8974 26.338V19.8018C38.8974 19.3863 38.8199 19.0868 38.6648 18.9032C38.5098 18.7196 38.1658 18.6278 37.6328 18.6278C37.6134 18.6278 37.6037 18.5989 37.6037 18.5409C37.6037 18.4829 37.6134 18.4539 37.6328 18.4539C37.7975 18.4539 38.127 18.4588 38.6212 18.4684C39.1154 18.4781 39.7066 18.4877 40.3946 18.4974C41.0923 18.4974 41.8094 18.4974 42.5459 18.4974C43.1467 18.4974 43.7184 18.4974 44.2611 18.4974C44.8038 18.4877 45.298 18.4829 45.7437 18.4829C46.1895 18.4733 46.5529 18.4684 46.8339 18.4684C47.1246 18.4588 47.2991 18.4539 47.3572 18.4539C47.3863 18.4539 47.4008 18.4829 47.4008 18.5409C47.4008 18.5989 47.3863 18.6278 47.3572 18.6278C46.8242 18.6278 46.4802 18.7196 46.3252 18.9032C46.1701 19.0868 46.0926 19.3863 46.0926 19.8018V26.338C46.0926 26.6182 46.1217 26.8308 46.1798 26.9757C46.2476 27.1206 46.3688 27.2172 46.5432 27.2655C46.7273 27.3139 46.9986 27.338 47.3572 27.338Z" fill="#25193C"/>
<path d="M50.6744 26.28C50.6744 26.5699 50.7132 26.7921 50.7907 26.9467C50.8682 27.0916 51.033 27.1931 51.2849 27.2511C51.5369 27.309 51.91 27.338 52.4042 27.338C52.4332 27.338 52.4478 27.367 52.4478 27.425C52.4478 27.4829 52.4332 27.5119 52.4042 27.5119C52.0941 27.5119 51.7549 27.5071 51.3867 27.4974C51.0281 27.4878 50.6356 27.4829 50.2093 27.4829C49.8895 27.4829 49.5794 27.4878 49.279 27.4974C48.9883 27.5071 48.7266 27.5119 48.494 27.5119C48.4747 27.5119 48.465 27.4829 48.465 27.425C48.465 27.367 48.4747 27.338 48.494 27.338C48.8526 27.338 49.1191 27.3139 49.2935 27.2655C49.4679 27.2172 49.5842 27.1206 49.6424 26.9757C49.7005 26.8308 49.7296 26.6182 49.7296 26.338V19.6278C49.7296 19.3477 49.7005 19.1399 49.6424 19.0047C49.5842 18.8597 49.4679 18.7631 49.2935 18.7148C49.1191 18.6568 48.8526 18.6278 48.494 18.6278C48.4747 18.6278 48.465 18.5989 48.465 18.5409C48.465 18.4829 48.4747 18.4539 48.494 18.4539C48.7266 18.4539 48.9883 18.4636 49.279 18.4829C49.5697 18.4926 49.8749 18.4974 50.1947 18.4974C50.4467 18.4974 50.7519 18.4829 51.1105 18.4539C51.4787 18.4249 51.847 18.4104 52.2152 18.4104C52.7676 18.4104 53.2618 18.4926 53.6978 18.6568C54.1436 18.8211 54.4973 19.0771 54.759 19.4249C55.0206 19.7728 55.1563 20.2269 55.166 20.7873C55.166 21.2993 55.069 21.739 54.8752 22.1061C54.6911 22.4733 54.4392 22.7776 54.1194 23.0192C53.8093 23.251 53.4653 23.425 53.0873 23.5409C52.7094 23.6568 52.3315 23.7148 51.9536 23.7148C51.8373 23.7148 51.7161 23.71 51.5902 23.7003C51.4739 23.6907 51.3624 23.6713 51.2558 23.6423C51.2171 23.6327 51.2025 23.5989 51.2122 23.5409C51.2316 23.4733 51.2558 23.4443 51.2849 23.4539C51.3721 23.4733 51.4593 23.4878 51.5466 23.4974C51.6435 23.5071 51.7307 23.5119 51.8082 23.5119C52.2055 23.5119 52.5786 23.425 52.9274 23.251C53.2763 23.0771 53.5573 22.8114 53.7705 22.4539C53.9837 22.0868 54.0903 21.6327 54.0903 21.0916C54.0903 20.5602 53.9934 20.1158 53.7996 19.7583C53.6058 19.3911 53.3393 19.1109 53.0001 18.9177C52.661 18.7245 52.283 18.6278 51.8663 18.6278C51.5466 18.6278 51.2994 18.6472 51.125 18.6858C50.9603 18.7148 50.844 18.8018 50.7762 18.9467C50.7083 19.0916 50.6744 19.3283 50.6744 19.6568V26.28Z" fill="#25193C"/>
<path d="M61.0961 27.6858C60.3984 27.6858 59.7636 27.5651 59.1919 27.3235C58.6298 27.0723 58.1453 26.7293 57.7383 26.2945C57.341 25.8597 57.0309 25.3622 56.808 24.8018C56.5948 24.2317 56.4882 23.6279 56.4882 22.9902C56.4882 22.2076 56.6385 21.5216 56.9389 20.9322C57.249 20.3428 57.656 19.8549 58.1599 19.4684C58.6638 19.0723 59.2161 18.7776 59.8169 18.5844C60.4177 18.3911 61.0137 18.2945 61.6048 18.2945C62.3219 18.2945 62.9615 18.4249 63.5235 18.6858C64.0953 18.937 64.5798 19.28 64.9771 19.7148C65.3744 20.1496 65.6748 20.6423 65.8783 21.1931C66.0915 21.7438 66.1981 22.309 66.1981 22.8887C66.1981 23.5651 66.0625 24.1931 65.7911 24.7728C65.5198 25.3525 65.1467 25.8597 64.6719 26.2945C64.2067 26.7293 63.6641 27.0723 63.0439 27.3235C62.4334 27.5651 61.7841 27.6858 61.0961 27.6858ZM61.6048 27.3815C62.2638 27.3815 62.8549 27.2269 63.3782 26.9177C63.9015 26.5989 64.3182 26.1351 64.6283 25.5264C64.9384 24.9177 65.0934 24.1737 65.0934 23.2945C65.0934 22.3863 64.9238 21.5844 64.5847 20.8887C64.2552 20.1834 63.7803 19.6327 63.1601 19.2365C62.5496 18.8307 61.8277 18.6278 60.9943 18.6278C59.9187 18.6278 59.0805 18.9757 58.4796 19.6713C57.8885 20.3573 57.593 21.2945 57.593 22.4829C57.593 23.1689 57.685 23.8114 57.8691 24.4105C58.063 24.9998 58.3391 25.5216 58.6977 25.9757C59.0562 26.4201 59.4826 26.768 59.9768 27.0192C60.471 27.2607 61.0137 27.3815 61.6048 27.3815Z" fill="#25193C"/>
<path d="M76.0013 27.338C76.0886 27.338 76.137 27.3477 76.1467 27.367C76.1661 27.3767 76.1758 27.425 76.1758 27.5119C76.1758 27.6472 76.1612 27.7921 76.1322 27.9467C76.1128 28.111 76.0934 28.3428 76.074 28.6424C76.0546 28.9419 76.0449 29.367 76.0449 29.9177C76.0449 29.9564 76.0159 29.9757 75.9577 29.9757C75.8996 29.9757 75.8705 29.9564 75.8705 29.9177C75.8705 29.0965 75.6864 28.4878 75.3182 28.0916C74.9596 27.7052 74.3636 27.5119 73.5303 27.5119H68.9806C68.6026 27.5119 68.2635 27.5796 67.9631 27.7148C67.6724 27.8597 67.4446 28.1061 67.2799 28.454C67.1152 28.8114 67.0328 29.2994 67.0328 29.9177C67.0328 29.9564 67.0037 29.9757 66.9456 29.9757C66.8874 29.9757 66.8584 29.9564 66.8584 29.9177C66.8584 29.5119 66.8487 29.1786 66.8293 28.9177C66.8196 28.6569 66.8002 28.4443 66.7711 28.28C66.7518 28.1158 66.7324 27.9757 66.713 27.8597C66.7033 27.7438 66.6985 27.623 66.6985 27.4974C66.6985 27.4201 66.7033 27.3718 66.713 27.3525C66.7324 27.3332 66.776 27.3235 66.8438 27.3235C67.2605 27.3235 67.6288 27.1882 67.9485 26.9177C68.278 26.6375 68.5687 26.2704 68.8207 25.8163C69.0823 25.3622 69.3052 24.8597 69.4893 24.309C69.6831 23.7583 69.8382 23.2027 69.9545 22.6423C70.0708 22.0723 70.158 21.5409 70.2161 21.0481C70.2743 20.5457 70.3033 20.1254 70.3033 19.7873C70.3033 19.5554 70.2743 19.3525 70.2161 19.1786C70.158 19.0047 70.0223 18.8694 69.8091 18.7728C69.6056 18.6761 69.2761 18.6278 68.8207 18.6278C68.8013 18.6278 68.7916 18.5989 68.7916 18.5409C68.7916 18.4829 68.8013 18.4539 68.8207 18.4539C68.8788 18.4539 69.0387 18.4539 69.3004 18.4539C69.5717 18.4539 69.9109 18.4539 70.3179 18.4539C70.7249 18.4539 71.1609 18.4539 71.6261 18.4539C72.1009 18.4539 72.5709 18.4539 73.036 18.4539C73.5012 18.4539 73.9324 18.4539 74.3297 18.4539C74.727 18.4539 75.0517 18.4539 75.3036 18.4539C75.5556 18.4539 75.7009 18.4539 75.7397 18.4539C75.7591 18.4539 75.7688 18.4829 75.7688 18.5409C75.7688 18.5989 75.7591 18.6278 75.7397 18.6278C75.3811 18.6278 75.1098 18.6568 74.9257 18.7148C74.7416 18.7631 74.6204 18.8597 74.5623 19.0047C74.5042 19.1399 74.4751 19.3477 74.4751 19.6278V26.338C74.4751 26.5796 74.4799 26.7728 74.4896 26.9177C74.509 27.053 74.5623 27.1496 74.6495 27.2076C74.7367 27.2655 74.8821 27.3042 75.0856 27.3235C75.2988 27.3332 75.604 27.338 76.0013 27.338ZM73.5303 26.309V19.6568C73.5303 19.3573 73.5109 19.1496 73.4721 19.0336C73.443 18.908 73.351 18.8356 73.1959 18.8162C73.0409 18.7873 72.7744 18.7728 72.3965 18.7728H71.6842C71.4032 18.7728 71.1997 18.8162 71.0737 18.9032C70.9477 18.9902 70.8654 19.1544 70.8266 19.396C70.7878 19.6375 70.7491 19.995 70.7103 20.4684C70.6909 20.6423 70.657 20.908 70.6086 21.2655C70.5601 21.623 70.4874 22.0288 70.3905 22.4829C70.3033 22.937 70.1919 23.4153 70.0562 23.9177C69.9206 24.4105 69.7607 24.8887 69.5765 25.3525C69.3924 25.8163 69.1792 26.2269 68.937 26.5844C68.6947 26.9322 68.4185 27.1979 68.1084 27.3815V27.1931H72.3238C72.7211 27.1931 73.0021 27.1786 73.1669 27.1496C73.3413 27.1206 73.443 27.0482 73.4721 26.9322C73.5109 26.8066 73.5303 26.5989 73.5303 26.309Z" fill="#25193C"/>
<path d="M77.3861 27.6858C77.1826 27.6858 77.013 27.6424 76.8773 27.5554C76.7417 27.4684 76.6738 27.3332 76.6738 27.1496C76.6738 26.9757 76.7368 26.8549 76.8628 26.7873C76.9888 26.7196 77.1341 26.6858 77.2989 26.6858C77.3473 26.6858 77.3958 26.6858 77.4442 26.6858C77.5024 26.6858 77.5557 26.6858 77.6041 26.6858C77.953 26.6858 78.2679 26.5457 78.549 26.2655C78.83 25.9757 79.0771 25.594 79.2903 25.1206C79.5035 24.6375 79.6827 24.1013 79.8281 23.5119C79.9734 22.9129 80.08 22.3042 80.1479 21.6858C80.2254 21.0675 80.2642 20.4781 80.2642 19.9177C80.2642 19.6568 80.2303 19.4298 80.1624 19.2365C80.0946 19.0336 79.9589 18.8839 79.7554 18.7873C79.5519 18.681 79.2418 18.6278 78.8251 18.6278C78.7961 18.6278 78.7815 18.5989 78.7815 18.5409C78.7815 18.4829 78.7961 18.4539 78.8251 18.4539C78.8833 18.4539 79.048 18.4539 79.3193 18.4539C79.5907 18.4539 79.9298 18.4539 80.3368 18.4539C80.7438 18.4539 81.1799 18.4539 81.6451 18.4539C82.1199 18.4539 82.5899 18.4539 83.055 18.4539C83.5299 18.4539 83.9659 18.4539 84.3632 18.4539C84.7606 18.4539 85.0852 18.4539 85.3371 18.4539C85.5891 18.4539 85.7345 18.4539 85.7732 18.4539C85.8023 18.4539 85.8168 18.4829 85.8168 18.5409C85.8168 18.5989 85.8023 18.6278 85.7732 18.6278C85.4147 18.6278 85.1433 18.6568 84.9592 18.7148C84.7751 18.7631 84.654 18.8597 84.5958 19.0047C84.5377 19.1399 84.5086 19.3477 84.5086 19.6278V26.338C84.5086 26.6182 84.5377 26.8308 84.5958 26.9757C84.654 27.1206 84.7751 27.2172 84.9592 27.2655C85.1433 27.3139 85.4147 27.338 85.7732 27.338C85.8023 27.338 85.8168 27.367 85.8168 27.425C85.8168 27.4829 85.8023 27.5119 85.7732 27.5119C85.5503 27.5119 85.2887 27.5071 84.9883 27.4974C84.6879 27.4878 84.3778 27.4829 84.058 27.4829C83.7188 27.4829 83.399 27.4878 83.0986 27.4974C82.8079 27.5071 82.5463 27.5119 82.3137 27.5119C82.2846 27.5119 82.2701 27.4829 82.2701 27.425C82.2701 27.367 82.2846 27.338 82.3137 27.338C82.6819 27.338 82.9533 27.3139 83.1277 27.2655C83.3118 27.2172 83.433 27.1206 83.4911 26.9757C83.5492 26.8308 83.5783 26.6182 83.5783 26.338V19.6858C83.5783 19.3863 83.5589 19.1737 83.5202 19.0481C83.4814 18.9225 83.3797 18.8501 83.2149 18.8307C83.0599 18.8018 82.7982 18.7873 82.43 18.7873H81.6887C81.427 18.7873 81.2138 18.8114 81.0491 18.8597C80.8941 18.908 80.7826 19.0143 80.7148 19.1786C80.6469 19.3332 80.613 19.5795 80.613 19.9177C80.613 20.3042 80.5936 20.7631 80.5549 21.2945C80.5161 21.8259 80.4483 22.3863 80.3514 22.9757C80.2545 23.5554 80.1285 24.1254 79.9735 24.6858C79.8184 25.2366 79.6198 25.739 79.3775 26.1931C79.1449 26.6472 78.8639 27.0095 78.5344 27.28C78.2049 27.5506 77.8222 27.6858 77.3861 27.6858Z" fill="#25193C"/>
<path d="M93.0251 27.5119H86.9346C86.9152 27.5119 86.9055 27.4829 86.9055 27.425C86.9055 27.367 86.9152 27.338 86.9346 27.338C87.2931 27.338 87.5596 27.3139 87.7341 27.2655C87.9085 27.2172 88.0248 27.1206 88.0829 26.9757C88.1507 26.8308 88.1847 26.6182 88.1847 26.338V19.6278C88.1847 19.3477 88.1507 19.1399 88.0829 19.0047C88.0248 18.8597 87.9085 18.7631 87.7341 18.7148C87.5596 18.6568 87.2931 18.6278 86.9346 18.6278C86.9152 18.6278 86.9055 18.5989 86.9055 18.5409C86.9055 18.4829 86.9152 18.4539 86.9346 18.4539H92.778C92.8652 18.4539 92.9088 18.4974 92.9088 18.5844L92.9379 20.367C92.9379 20.396 92.9088 20.4153 92.8506 20.4249C92.8022 20.4249 92.778 20.4105 92.778 20.3815C92.7489 19.8597 92.589 19.4588 92.2983 19.1786C92.0173 18.8984 91.649 18.7583 91.1936 18.7583H90.3069C89.9774 18.7583 89.7255 18.7824 89.551 18.8307C89.3863 18.879 89.27 18.9708 89.2022 19.1061C89.144 19.2414 89.115 19.4394 89.115 19.7003V26.28C89.115 26.5312 89.144 26.7245 89.2022 26.8597C89.27 26.995 89.3814 27.0868 89.5365 27.1351C89.7012 27.1834 89.9435 27.2076 90.2633 27.2076H91.4261C91.8913 27.2076 92.2789 27.0433 92.589 26.7148C92.9088 26.3767 93.1171 25.9225 93.214 25.3525C93.214 25.3235 93.2431 25.3138 93.3012 25.3235C93.3594 25.3332 93.3885 25.3525 93.3885 25.3815C93.3497 25.6327 93.3158 25.937 93.2867 26.2945C93.2673 26.652 93.2576 26.9853 93.2576 27.2945C93.2576 27.4395 93.1801 27.5119 93.0251 27.5119ZM92.2111 24.1351C92.2111 23.71 92.1045 23.4056 91.8913 23.2221C91.6878 23.0385 91.3438 22.9467 90.8592 22.9467H88.6789V22.6423H90.9028C91.368 22.6423 91.6975 22.565 91.8913 22.4105C92.0948 22.2462 92.1965 21.9853 92.1965 21.6278C92.1965 21.6085 92.2256 21.5989 92.2837 21.5989C92.3419 21.5989 92.371 21.6085 92.371 21.6278C92.371 21.9177 92.3661 22.1448 92.3564 22.309C92.3564 22.4636 92.3564 22.6279 92.3564 22.8018C92.3564 23.024 92.3613 23.2414 92.371 23.4539C92.3806 23.6665 92.3855 23.8936 92.3855 24.1351C92.3855 24.1544 92.3564 24.1641 92.2983 24.1641C92.2401 24.1641 92.2111 24.1544 92.2111 24.1351Z" fill="#25193C"/>
<path d="M102.417 19.6568C102.417 19.3766 102.388 19.1641 102.33 19.0191C102.271 18.8742 102.15 18.7728 101.966 18.7148C101.792 18.6568 101.516 18.6278 101.138 18.6278C101.109 18.6278 101.094 18.5989 101.094 18.5409C101.094 18.4829 101.109 18.4539 101.138 18.4539C101.37 18.4539 101.632 18.4636 101.923 18.4829C102.213 18.4926 102.538 18.4974 102.896 18.4974C103.216 18.4974 103.526 18.4926 103.827 18.4829C104.127 18.4636 104.389 18.4539 104.612 18.4539C104.641 18.4539 104.655 18.4829 104.655 18.5409C104.655 18.5989 104.641 18.6278 104.612 18.6278C104.253 18.6278 103.982 18.6568 103.798 18.7148C103.614 18.7631 103.492 18.8597 103.434 19.0047C103.376 19.1399 103.347 19.3477 103.347 19.6278V26.338C103.347 26.6182 103.376 26.8308 103.434 26.9757C103.492 27.1206 103.614 27.2172 103.798 27.2655C103.982 27.3139 104.253 27.338 104.612 27.338C104.641 27.338 104.655 27.367 104.655 27.425C104.655 27.4829 104.641 27.5119 104.612 27.5119C104.389 27.5119 104.127 27.5071 103.827 27.4974C103.526 27.4878 103.216 27.4829 102.896 27.4829C102.538 27.4829 102.213 27.4878 101.923 27.4974C101.632 27.5071 101.37 27.5119 101.138 27.5119C101.109 27.5119 101.094 27.4829 101.094 27.425C101.094 27.367 101.109 27.338 101.138 27.338C101.516 27.338 101.792 27.3139 101.966 27.2655C102.15 27.2172 102.271 27.1206 102.33 26.9757C102.388 26.8308 102.417 26.6182 102.417 26.338V19.6568ZM96.3263 22.9467V22.6423H102.824V22.9467H96.3263ZM95.9047 26.338V19.6278C95.9047 19.3477 95.8708 19.1399 95.803 19.0047C95.7448 18.8597 95.6237 18.7631 95.4396 18.7148C95.2652 18.6568 94.9987 18.6278 94.6401 18.6278C94.6207 18.6278 94.611 18.5989 94.611 18.5409C94.611 18.4829 94.6207 18.4539 94.6401 18.4539C94.8727 18.4539 95.1343 18.4636 95.425 18.4829C95.7255 18.4926 96.0355 18.4974 96.3553 18.4974C96.7139 18.4974 97.0385 18.4926 97.3292 18.4829C97.6199 18.4636 97.8816 18.4539 98.1142 18.4539C98.1335 18.4539 98.1432 18.4829 98.1432 18.5409C98.1432 18.5989 98.1335 18.6278 98.1142 18.6278C97.7556 18.6278 97.4843 18.6568 97.3002 18.7148C97.116 18.7728 96.9901 18.8742 96.9222 19.0191C96.8641 19.1641 96.835 19.3766 96.835 19.6568V26.338C96.835 26.6182 96.8641 26.8308 96.9222 26.9757C96.9804 27.1206 97.1015 27.2172 97.2856 27.2655C97.4794 27.3139 97.7556 27.338 98.1142 27.338C98.1335 27.338 98.1432 27.367 98.1432 27.425C98.1432 27.4829 98.1335 27.5119 98.1142 27.5119C97.8719 27.5119 97.6054 27.5071 97.3147 27.4974C97.0337 27.4878 96.7139 27.4829 96.3553 27.4829C96.0355 27.4829 95.7255 27.4878 95.425 27.4974C95.1246 27.5071 94.8582 27.5119 94.6256 27.5119C94.6062 27.5119 94.5965 27.4829 94.5965 27.425C94.5965 27.367 94.6062 27.338 94.6256 27.338C94.9841 27.338 95.2555 27.3139 95.4396 27.2655C95.6237 27.2172 95.7448 27.1206 95.803 26.9757C95.8708 26.8308 95.9047 26.6182 95.9047 26.338Z" fill="#25193C"/>
<path d="M107.545 26.4684L107.298 26.2366L113.693 19.4394L113.926 19.6568L107.545 26.4684ZM105.655 27.5119C105.636 27.5119 105.626 27.4829 105.626 27.425C105.626 27.367 105.636 27.338 105.655 27.338C106.014 27.338 106.285 27.3139 106.469 27.2655C106.653 27.2172 106.774 27.1206 106.833 26.9757C106.9 26.8308 106.934 26.6182 106.934 26.338V19.6278C106.934 19.3477 106.9 19.1399 106.833 19.0047C106.774 18.8597 106.653 18.7631 106.469 18.7148C106.295 18.6568 106.028 18.6278 105.67 18.6278C105.65 18.6278 105.641 18.5989 105.641 18.5409C105.641 18.4829 105.65 18.4539 105.67 18.4539C105.902 18.4539 106.164 18.4636 106.455 18.4829C106.755 18.4926 107.065 18.4974 107.385 18.4974C107.743 18.4974 108.068 18.4926 108.359 18.4829C108.649 18.4636 108.911 18.4539 109.144 18.4539C109.163 18.4539 109.173 18.4829 109.173 18.5409C109.173 18.5989 109.163 18.6278 109.144 18.6278C108.785 18.6278 108.514 18.6568 108.33 18.7148C108.146 18.7728 108.02 18.8742 107.952 19.0191C107.894 19.1641 107.865 19.3766 107.865 19.6568V26.338C107.865 26.6182 107.894 26.8308 107.952 26.9757C108.01 27.1206 108.131 27.2172 108.315 27.2655C108.509 27.3139 108.785 27.338 109.144 27.338C109.163 27.338 109.173 27.367 109.173 27.425C109.173 27.4829 109.163 27.5119 109.144 27.5119C108.901 27.5119 108.635 27.5071 108.344 27.4974C108.063 27.4878 107.743 27.4829 107.385 27.4829C107.065 27.4829 106.755 27.4878 106.455 27.4974C106.154 27.5071 105.888 27.5119 105.655 27.5119ZM111.993 27.5119C111.973 27.5119 111.964 27.4829 111.964 27.425C111.964 27.367 111.973 27.338 111.993 27.338C112.371 27.338 112.647 27.3139 112.821 27.2655C113.005 27.2172 113.127 27.1206 113.185 26.9757C113.243 26.8308 113.272 26.6182 113.272 26.338V19.6568C113.272 19.3766 113.243 19.1641 113.185 19.0191C113.127 18.8742 113.005 18.7728 112.821 18.7148C112.647 18.6568 112.371 18.6278 111.993 18.6278C111.973 18.6278 111.964 18.5989 111.964 18.5409C111.964 18.4829 111.973 18.4539 111.993 18.4539C112.235 18.4539 112.497 18.4636 112.778 18.4829C113.068 18.4926 113.393 18.4974 113.752 18.4974C114.071 18.4974 114.381 18.4926 114.682 18.4829C114.982 18.4636 115.249 18.4539 115.481 18.4539C115.501 18.4539 115.51 18.4829 115.51 18.5409C115.51 18.5989 115.501 18.6278 115.481 18.6278C115.123 18.6278 114.851 18.6568 114.667 18.7148C114.483 18.7631 114.362 18.8597 114.304 19.0047C114.246 19.1399 114.217 19.3477 114.217 19.6278V26.338C114.217 26.6182 114.246 26.8308 114.304 26.9757C114.362 27.1206 114.483 27.2172 114.667 27.2655C114.851 27.3139 115.123 27.338 115.481 27.338C115.501 27.338 115.51 27.367 115.51 27.425C115.51 27.4829 115.501 27.5119 115.481 27.5119C115.249 27.5119 114.982 27.5071 114.682 27.4974C114.381 27.4878 114.071 27.4829 113.752 27.4829C113.393 27.4829 113.068 27.4878 112.778 27.4974C112.497 27.5071 112.235 27.5119 111.993 27.5119Z" fill="#25193C"/>
<path d="M124.117 27.338C124.136 27.338 124.146 27.367 124.146 27.425C124.146 27.4829 124.136 27.5119 124.117 27.5119C123.874 27.5119 123.603 27.5071 123.303 27.4974C123.012 27.4878 122.707 27.4829 122.387 27.4829C122.048 27.4829 121.733 27.4878 121.442 27.4974C121.161 27.5071 120.899 27.5119 120.657 27.5119C120.638 27.5119 120.628 27.4829 120.628 27.425C120.628 27.367 120.638 27.338 120.657 27.338C121.025 27.338 121.297 27.3139 121.471 27.2655C121.645 27.2172 121.762 27.1206 121.82 26.9757C121.878 26.8308 121.907 26.6182 121.907 26.338V22.7438L122.169 22.8163C121.897 22.8163 121.655 22.8404 121.442 22.8887C121.229 22.937 121.02 23.0385 120.817 23.1931C120.623 23.338 120.415 23.5602 120.192 23.8597C119.969 24.1593 119.707 24.5651 119.407 25.0771C119.039 25.7245 118.738 26.2172 118.506 26.5554C118.283 26.8936 118.104 27.1303 117.968 27.2655C117.842 27.4008 117.735 27.4781 117.648 27.4974C117.571 27.5071 117.488 27.5119 117.401 27.5119H115.904C115.875 27.5119 115.86 27.4829 115.86 27.425C115.86 27.367 115.875 27.338 115.904 27.338C116.272 27.3283 116.592 27.2317 116.863 27.0482C117.135 26.8549 117.401 26.5699 117.663 26.1931C117.934 25.8163 118.23 25.3477 118.549 24.7873C118.84 24.2752 119.111 23.8791 119.363 23.5989C119.615 23.309 119.882 23.1013 120.163 22.9757C120.454 22.8501 120.773 22.7728 121.122 22.7438L121.224 22.8452C120.177 22.8356 119.388 22.6327 118.855 22.2365C118.322 21.8404 118.055 21.309 118.055 20.6423C118.055 20.1979 118.167 19.8114 118.389 19.4829C118.622 19.1448 118.937 18.8839 119.334 18.7003C119.741 18.5071 120.197 18.4104 120.701 18.4104C120.904 18.4104 121.175 18.4249 121.515 18.4539C121.854 18.4829 122.145 18.4974 122.387 18.4974C122.707 18.4974 123.012 18.4926 123.303 18.4829C123.593 18.4636 123.86 18.4539 124.102 18.4539C124.121 18.4539 124.131 18.4829 124.131 18.5409C124.131 18.5989 124.121 18.6278 124.102 18.6278C123.743 18.6278 123.472 18.6568 123.288 18.7148C123.114 18.7631 122.992 18.8597 122.925 19.0047C122.866 19.1399 122.837 19.3477 122.837 19.6278V26.338C122.837 26.6182 122.866 26.8308 122.925 26.9757C122.992 27.1206 123.118 27.2172 123.303 27.2655C123.487 27.3139 123.758 27.338 124.117 27.338ZM119.029 20.28C119.029 20.9563 119.223 21.5167 119.61 21.9612C120.008 22.396 120.594 22.6134 121.369 22.6134C121.495 22.6134 121.641 22.6085 121.805 22.5989C121.97 22.5795 122.101 22.5554 122.198 22.5264L121.907 22.6279V19.6568C121.907 19.3766 121.844 19.1592 121.718 19.0047C121.602 18.8501 121.447 18.7438 121.253 18.6858C121.069 18.6278 120.88 18.5989 120.686 18.5989C119.581 18.5989 119.029 19.1592 119.029 20.28Z" fill="#25193C"/>
<path d="M133.508 27.5119C133.489 27.5119 133.479 27.4829 133.479 27.425C133.479 27.367 133.489 27.338 133.508 27.338C133.877 27.338 134.148 27.3139 134.322 27.2655C134.507 27.2172 134.628 27.1206 134.686 26.9757C134.754 26.8308 134.788 26.6182 134.788 26.338V19.6278C134.788 19.2124 134.686 18.9419 134.482 18.8162C134.289 18.6906 133.925 18.6278 133.392 18.6278C133.373 18.6278 133.363 18.5989 133.363 18.5409C133.363 18.4829 133.373 18.4539 133.392 18.4539C133.625 18.4539 133.906 18.4636 134.235 18.4829C134.574 18.4926 134.904 18.4974 135.224 18.4974C135.573 18.4974 135.917 18.4926 136.256 18.4829C136.595 18.4636 136.881 18.4539 137.113 18.4539C137.133 18.4539 137.142 18.4829 137.142 18.5409C137.142 18.5989 137.133 18.6278 137.113 18.6278C136.571 18.6278 136.198 18.6955 135.994 18.8307C135.8 18.966 135.703 19.2414 135.703 19.6568V26.338C135.703 26.6182 135.732 26.8308 135.791 26.9757C135.849 27.1206 135.97 27.2172 136.154 27.2655C136.338 27.3139 136.609 27.338 136.968 27.338C136.997 27.338 137.012 27.367 137.012 27.425C137.012 27.4829 136.997 27.5119 136.968 27.5119C136.735 27.5119 136.474 27.5071 136.183 27.4974C135.892 27.4878 135.573 27.4829 135.224 27.4829C134.904 27.4829 134.594 27.4878 134.293 27.4974C134.003 27.5071 133.741 27.5119 133.508 27.5119ZM128.174 27.5119C128.154 27.5119 128.145 27.4829 128.145 27.425C128.145 27.367 128.154 27.338 128.174 27.338C128.552 27.3283 128.886 27.2317 129.177 27.0482C129.468 26.8646 129.758 26.5892 130.049 26.2221C130.349 25.8452 130.689 25.367 131.066 24.7873C131.377 24.3235 131.628 23.9515 131.822 23.6713C132.016 23.3911 132.195 23.1834 132.36 23.0481C132.525 22.9032 132.709 22.8066 132.912 22.7583C133.116 22.71 133.373 22.6858 133.683 22.6858C134.012 22.6858 134.477 22.7003 135.078 22.7293L135.064 22.9902C134.947 22.9805 134.836 22.9708 134.729 22.9612C134.623 22.9515 134.521 22.9467 134.424 22.9467C134.143 22.9467 133.906 22.9757 133.712 23.0336C133.528 23.082 133.353 23.1786 133.189 23.3235C133.024 23.4684 132.84 23.681 132.636 23.9612C132.442 24.2317 132.2 24.594 131.91 25.0481C131.512 25.6568 131.202 26.1303 130.979 26.4684C130.766 26.8066 130.601 27.053 130.485 27.2076C130.369 27.3525 130.282 27.4395 130.223 27.4684C130.165 27.4974 130.093 27.5119 130.005 27.5119H128.174ZM132.971 22.9177L131.168 20.251C130.897 19.8356 130.63 19.5119 130.369 19.28C130.107 19.0481 129.831 18.8839 129.54 18.7873C129.249 18.681 128.925 18.6278 128.566 18.6278C128.547 18.6278 128.537 18.5989 128.537 18.5409C128.537 18.4829 128.547 18.4539 128.566 18.4539C128.77 18.4539 128.983 18.4636 129.206 18.4829C129.429 18.4926 129.729 18.4974 130.107 18.4974C130.504 18.4974 130.829 18.4926 131.081 18.4829C131.343 18.4636 131.595 18.4539 131.837 18.4539C131.866 18.4539 131.88 18.4829 131.88 18.5409C131.88 18.5989 131.866 18.6278 131.837 18.6278C131.488 18.6278 131.26 18.6761 131.154 18.7728C131.047 18.8694 131.042 19.0385 131.139 19.28C131.246 19.5119 131.435 19.8452 131.706 20.28L133.218 22.7873L132.971 22.9177ZM140.471 27.5119C140.394 27.5119 140.321 27.4974 140.253 27.4684C140.195 27.4395 140.108 27.3525 139.991 27.2076C139.875 27.0626 139.706 26.8259 139.483 26.4974C139.26 26.1593 138.95 25.6858 138.552 25.0771C138.262 24.623 138.019 24.2607 137.826 23.9902C137.632 23.71 137.452 23.4926 137.288 23.338C137.123 23.1834 136.944 23.082 136.75 23.0336C136.556 22.9757 136.319 22.9467 136.038 22.9467C135.96 22.9467 135.868 22.9515 135.761 22.9612C135.655 22.9708 135.543 22.9805 135.427 22.9902L135.413 22.7293C136.023 22.7003 136.483 22.6858 136.794 22.6858C137.113 22.6858 137.375 22.71 137.578 22.7583C137.782 22.8066 137.966 22.9032 138.131 23.0481C138.296 23.1834 138.475 23.3911 138.669 23.6713C138.862 23.9515 139.114 24.3235 139.424 24.7873C139.812 25.367 140.151 25.8452 140.442 26.2221C140.733 26.5892 141.023 26.8646 141.314 27.0482C141.605 27.2317 141.934 27.3283 142.303 27.338C142.332 27.338 142.346 27.367 142.346 27.425C142.346 27.4829 142.332 27.5119 142.303 27.5119H140.471ZM137.506 22.9177L137.259 22.7873L138.77 20.2945C139.042 19.8501 139.226 19.5119 139.323 19.28C139.429 19.0385 139.429 18.8694 139.323 18.7728C139.226 18.6761 139.003 18.6278 138.654 18.6278C138.625 18.6278 138.611 18.5989 138.611 18.5409C138.611 18.4829 138.625 18.4539 138.654 18.4539C138.896 18.4539 139.148 18.4636 139.41 18.4829C139.672 18.4926 139.996 18.4974 140.384 18.4974C140.762 18.4974 141.062 18.4926 141.285 18.4829C141.508 18.4636 141.721 18.4539 141.925 18.4539C141.944 18.4539 141.954 18.4829 141.954 18.5409C141.954 18.5989 141.944 18.6278 141.925 18.6278C141.576 18.6278 141.251 18.681 140.951 18.7873C140.66 18.8839 140.384 19.0481 140.122 19.28C139.861 19.5119 139.594 19.8356 139.323 20.251L137.506 22.9177Z" fill="#25193C"/>
<path d="M144.849 26.4684L144.602 26.2366L150.998 19.4394L151.231 19.6568L144.849 26.4684ZM142.96 27.5119C142.94 27.5119 142.931 27.4829 142.931 27.425C142.931 27.367 142.94 27.338 142.96 27.338C143.318 27.338 143.59 27.3139 143.774 27.2655C143.958 27.2172 144.079 27.1206 144.137 26.9757C144.205 26.8308 144.239 26.6182 144.239 26.338V19.6278C144.239 19.3477 144.205 19.1399 144.137 19.0047C144.079 18.8597 143.958 18.7631 143.774 18.7148C143.599 18.6568 143.333 18.6278 142.974 18.6278C142.955 18.6278 142.945 18.5989 142.945 18.5409C142.945 18.4829 142.955 18.4539 142.974 18.4539C143.207 18.4539 143.468 18.4636 143.759 18.4829C144.06 18.4926 144.37 18.4974 144.689 18.4974C145.048 18.4974 145.373 18.4926 145.663 18.4829C145.954 18.4636 146.216 18.4539 146.448 18.4539C146.468 18.4539 146.477 18.4829 146.477 18.5409C146.477 18.5989 146.468 18.6278 146.448 18.6278C146.09 18.6278 145.818 18.6568 145.634 18.7148C145.45 18.7728 145.324 18.8742 145.256 19.0191C145.198 19.1641 145.169 19.3766 145.169 19.6568V26.338C145.169 26.6182 145.198 26.8308 145.256 26.9757C145.315 27.1206 145.436 27.2172 145.62 27.2655C145.814 27.3139 146.09 27.338 146.448 27.338C146.468 27.338 146.477 27.367 146.477 27.425C146.477 27.4829 146.468 27.5119 146.448 27.5119C146.206 27.5119 145.94 27.5071 145.649 27.4974C145.368 27.4878 145.048 27.4829 144.689 27.4829C144.37 27.4829 144.06 27.4878 143.759 27.4974C143.459 27.5071 143.192 27.5119 142.96 27.5119ZM149.297 27.5119C149.278 27.5119 149.268 27.4829 149.268 27.425C149.268 27.367 149.278 27.338 149.297 27.338C149.675 27.338 149.951 27.3139 150.126 27.2655C150.31 27.2172 150.431 27.1206 150.489 26.9757C150.547 26.8308 150.576 26.6182 150.576 26.338V19.6568C150.576 19.3766 150.547 19.1641 150.489 19.0191C150.431 18.8742 150.31 18.7728 150.126 18.7148C149.951 18.6568 149.675 18.6278 149.297 18.6278C149.278 18.6278 149.268 18.5989 149.268 18.5409C149.268 18.4829 149.278 18.4539 149.297 18.4539C149.54 18.4539 149.801 18.4636 150.082 18.4829C150.373 18.4926 150.698 18.4974 151.056 18.4974C151.376 18.4974 151.686 18.4926 151.986 18.4829C152.287 18.4636 152.553 18.4539 152.786 18.4539C152.805 18.4539 152.815 18.4829 152.815 18.5409C152.815 18.5989 152.805 18.6278 152.786 18.6278C152.427 18.6278 152.156 18.6568 151.972 18.7148C151.788 18.7631 151.667 18.8597 151.609 19.0047C151.55 19.1399 151.521 19.3477 151.521 19.6278V26.338C151.521 26.6182 151.55 26.8308 151.609 26.9757C151.667 27.1206 151.788 27.2172 151.972 27.2655C152.156 27.3139 152.427 27.338 152.786 27.338C152.805 27.338 152.815 27.367 152.815 27.425C152.815 27.4829 152.805 27.5119 152.786 27.5119C152.553 27.5119 152.287 27.5071 151.986 27.4974C151.686 27.4878 151.376 27.4829 151.056 27.4829C150.698 27.4829 150.373 27.4878 150.082 27.4974C149.801 27.5071 149.54 27.5119 149.297 27.5119Z" fill="#25193C"/>
<path d="M156.886 27.4539C157.351 27.4539 157.719 27.3477 157.991 27.1351C158.272 26.9129 158.475 26.6279 158.601 26.28C158.737 25.9322 158.805 25.5651 158.805 25.1786C158.805 24.3863 158.577 23.7921 158.122 23.396C157.676 22.9998 157.046 22.8018 156.232 22.8018C156.193 22.8018 156.174 22.7728 156.174 22.7148C156.174 22.6568 156.193 22.6279 156.232 22.6279C157.017 22.6279 157.593 22.4394 157.962 22.0626C158.33 21.6858 158.514 21.1882 158.514 20.5699C158.514 19.9322 158.349 19.4249 158.02 19.0481C157.7 18.6713 157.278 18.4829 156.755 18.4829C156.435 18.4829 156.13 18.565 155.839 18.7293C155.549 18.8839 155.292 19.1254 155.069 19.4539C154.846 19.7728 154.667 20.1834 154.531 20.6858C154.522 20.7148 154.492 20.7245 154.444 20.7148C154.396 20.7051 154.371 20.6858 154.371 20.6568L154.575 19.0191C154.594 18.9032 154.614 18.8259 154.633 18.7873C154.652 18.7486 154.706 18.7148 154.793 18.6858C155.19 18.5505 155.568 18.4539 155.927 18.396C156.295 18.3283 156.634 18.2945 156.944 18.2945C157.516 18.2945 157.991 18.3863 158.369 18.5699C158.747 18.7534 159.028 18.995 159.212 19.2945C159.396 19.594 159.488 19.9177 159.488 20.2655C159.488 20.6037 159.41 20.9177 159.255 21.2076C159.11 21.4974 158.916 21.7535 158.674 21.9757C158.441 22.1979 158.185 22.3766 157.903 22.5119C157.632 22.6472 157.375 22.7245 157.133 22.7438L157.337 22.6279C157.831 22.6279 158.267 22.7245 158.645 22.9177C159.032 23.1013 159.333 23.367 159.546 23.7148C159.769 24.053 159.88 24.4539 159.88 24.9177C159.88 25.4588 159.73 25.937 159.43 26.3525C159.139 26.768 158.747 27.0965 158.252 27.338C157.758 27.5699 157.201 27.6858 156.581 27.6858C156.212 27.6858 155.83 27.6375 155.432 27.5409C155.045 27.454 154.74 27.3187 154.517 27.1351C154.429 27.0868 154.376 27.0433 154.357 27.0047C154.337 26.966 154.323 26.8984 154.313 26.8018L154.139 25.1931C154.139 25.1641 154.163 25.1448 154.211 25.1351C154.27 25.1254 154.303 25.1351 154.313 25.1641C154.41 25.7341 154.599 26.1882 154.88 26.5264C155.161 26.8549 155.481 27.0916 155.839 27.2366C156.198 27.3815 156.547 27.4539 156.886 27.4539Z" fill="#25193C"/>
<path d="M168.906 19.6568C168.906 19.3766 168.877 19.1641 168.819 19.0191C168.761 18.8742 168.64 18.7728 168.456 18.7148C168.281 18.6568 168.005 18.6278 167.627 18.6278C167.598 18.6278 167.584 18.5989 167.584 18.5409C167.584 18.4829 167.598 18.4539 167.627 18.4539C167.86 18.4539 168.121 18.4636 168.412 18.4829C168.703 18.4926 169.027 18.4974 169.386 18.4974C169.706 18.4974 170.016 18.4926 170.316 18.4829C170.617 18.4636 170.878 18.4539 171.101 18.4539C171.13 18.4539 171.145 18.4829 171.145 18.5409C171.145 18.5989 171.13 18.6278 171.101 18.6278C170.743 18.6278 170.471 18.6568 170.287 18.7148C170.103 18.7631 169.982 18.8597 169.924 19.0047C169.866 19.1399 169.837 19.3477 169.837 19.6278V26.338C169.837 26.6182 169.866 26.8308 169.924 26.9757C169.982 27.1206 170.103 27.2172 170.287 27.2655C170.471 27.3139 170.743 27.338 171.101 27.338C171.13 27.338 171.145 27.367 171.145 27.425C171.145 27.4829 171.13 27.5119 171.101 27.5119C170.878 27.5119 170.617 27.5071 170.316 27.4974C170.016 27.4878 169.706 27.4829 169.386 27.4829C169.027 27.4829 168.703 27.4878 168.412 27.4974C168.121 27.5071 167.86 27.5119 167.627 27.5119C167.598 27.5119 167.584 27.4829 167.584 27.425C167.584 27.367 167.598 27.338 167.627 27.338C168.005 27.338 168.281 27.3139 168.456 27.2655C168.64 27.2172 168.761 27.1206 168.819 26.9757C168.877 26.8308 168.906 26.6182 168.906 26.338V19.6568ZM162.816 22.9467V22.6423H169.313V22.9467H162.816ZM162.394 26.338V19.6278C162.394 19.3477 162.36 19.1399 162.293 19.0047C162.234 18.8597 162.113 18.7631 161.929 18.7148C161.755 18.6568 161.488 18.6278 161.13 18.6278C161.11 18.6278 161.101 18.5989 161.101 18.5409C161.101 18.4829 161.11 18.4539 161.13 18.4539C161.362 18.4539 161.624 18.4636 161.915 18.4829C162.215 18.4926 162.525 18.4974 162.845 18.4974C163.204 18.4974 163.528 18.4926 163.819 18.4829C164.11 18.4636 164.371 18.4539 164.604 18.4539C164.623 18.4539 164.633 18.4829 164.633 18.5409C164.633 18.5989 164.623 18.6278 164.604 18.6278C164.245 18.6278 163.974 18.6568 163.79 18.7148C163.606 18.7728 163.48 18.8742 163.412 19.0191C163.354 19.1641 163.325 19.3766 163.325 19.6568V26.338C163.325 26.6182 163.354 26.8308 163.412 26.9757C163.47 27.1206 163.591 27.2172 163.775 27.2655C163.969 27.3139 164.245 27.338 164.604 27.338C164.623 27.338 164.633 27.367 164.633 27.425C164.633 27.4829 164.623 27.5119 164.604 27.5119C164.362 27.5119 164.095 27.5071 163.804 27.4974C163.523 27.4878 163.204 27.4829 162.845 27.4829C162.525 27.4829 162.215 27.4878 161.915 27.4974C161.614 27.5071 161.348 27.5119 161.115 27.5119C161.096 27.5119 161.086 27.4829 161.086 27.425C161.086 27.367 161.096 27.338 161.115 27.338C161.474 27.338 161.745 27.3139 161.929 27.2655C162.113 27.2172 162.234 27.1206 162.293 26.9757C162.36 26.8308 162.394 26.6182 162.394 26.338Z" fill="#25193C"/>
<path d="M174.034 26.4684L173.787 26.2366L180.183 19.4394L180.416 19.6568L174.034 26.4684ZM172.145 27.5119C172.125 27.5119 172.116 27.4829 172.116 27.425C172.116 27.367 172.125 27.338 172.145 27.338C172.503 27.338 172.775 27.3139 172.959 27.2655C173.143 27.2172 173.264 27.1206 173.322 26.9757C173.39 26.8308 173.424 26.6182 173.424 26.338V19.6278C173.424 19.3477 173.39 19.1399 173.322 19.0047C173.264 18.8597 173.143 18.7631 172.959 18.7148C172.784 18.6568 172.518 18.6278 172.159 18.6278C172.14 18.6278 172.13 18.5989 172.13 18.5409C172.13 18.4829 172.14 18.4539 172.159 18.4539C172.392 18.4539 172.654 18.4636 172.944 18.4829C173.245 18.4926 173.555 18.4974 173.875 18.4974C174.233 18.4974 174.558 18.4926 174.848 18.4829C175.139 18.4636 175.401 18.4539 175.633 18.4539C175.653 18.4539 175.662 18.4829 175.662 18.5409C175.662 18.5989 175.653 18.6278 175.633 18.6278C175.275 18.6278 175.003 18.6568 174.819 18.7148C174.635 18.7728 174.509 18.8742 174.441 19.0191C174.383 19.1641 174.354 19.3766 174.354 19.6568V26.338C174.354 26.6182 174.383 26.8308 174.441 26.9757C174.5 27.1206 174.621 27.2172 174.805 27.2655C174.999 27.3139 175.275 27.338 175.633 27.338C175.653 27.338 175.662 27.367 175.662 27.425C175.662 27.4829 175.653 27.5119 175.633 27.5119C175.391 27.5119 175.125 27.5071 174.834 27.4974C174.553 27.4878 174.233 27.4829 173.875 27.4829C173.555 27.4829 173.245 27.4878 172.944 27.4974C172.644 27.5071 172.377 27.5119 172.145 27.5119ZM178.482 27.5119C178.463 27.5119 178.453 27.4829 178.453 27.425C178.453 27.367 178.463 27.338 178.482 27.338C178.86 27.338 179.136 27.3139 179.311 27.2655C179.495 27.2172 179.616 27.1206 179.674 26.9757C179.732 26.8308 179.761 26.6182 179.761 26.338V19.6568C179.761 19.3766 179.732 19.1641 179.674 19.0191C179.616 18.8742 179.495 18.7728 179.311 18.7148C179.136 18.6568 178.86 18.6278 178.482 18.6278C178.463 18.6278 178.453 18.5989 178.453 18.5409C178.453 18.4829 178.463 18.4539 178.482 18.4539C178.725 18.4539 178.986 18.4636 179.267 18.4829C179.558 18.4926 179.883 18.4974 180.241 18.4974C180.561 18.4974 180.871 18.4926 181.171 18.4829C181.472 18.4636 181.738 18.4539 181.971 18.4539C181.99 18.4539 182 18.4829 182 18.5409C182 18.5989 181.99 18.6278 181.971 18.6278C181.612 18.6278 181.341 18.6568 181.157 18.7148C180.973 18.7631 180.852 18.8597 180.794 19.0047C180.735 19.1399 180.706 19.3477 180.706 19.6278V26.338C180.706 26.6182 180.735 26.8308 180.794 26.9757C180.852 27.1206 180.973 27.2172 181.157 27.2655C181.341 27.3139 181.612 27.338 181.971 27.338C181.99 27.338 182 27.367 182 27.425C182 27.4829 181.99 27.5119 181.971 27.5119C181.738 27.5119 181.472 27.5071 181.171 27.4974C180.871 27.4878 180.561 27.4829 180.241 27.4829C179.883 27.4829 179.558 27.4878 179.267 27.4974C178.986 27.5071 178.725 27.5119 178.482 27.5119Z" fill="#25193C"/>
</svg>
