<svg width="40" height="40" viewBox="0 0 40 40" fill="none" xmlns="http://www.w3.org/2000/svg">
<circle cx="20" cy="20" r="20" fill="#F7931E"/>
<path d="M21.8593 29.1885C21.846 29.1885 21.8724 29.1888 21.8593 29.189C21.8463 29.1888 21.8727 29.1885 21.8593 29.1885Z" fill="white"/>
<path d="M22.1891 24.6024C24.5634 24.1518 25.9863 23.1045 26.0616 23.0483C26.7563 22.5293 26.868 21.5839 26.3108 20.9367C25.7536 20.2895 24.7388 20.1856 24.0438 20.7045C24.0292 20.7156 22.5116 21.7999 20.0147 21.8015C17.5179 21.7999 15.9682 20.7156 15.9535 20.7045C15.2586 20.1856 14.2438 20.2895 13.6866 20.9367C13.1294 21.5839 13.2411 22.5293 13.9358 23.0483C14.0121 23.1053 15.4937 24.1799 17.9346 24.6199L14.5328 27.9314C13.9145 28.5286 13.9331 29.4795 14.5743 30.0553C14.8872 30.3364 15.2905 30.4761 15.6935 30.4761C16.116 30.4761 16.5381 30.3223 16.8545 30.0166L20.0148 26.8808L23.4943 30.0369C24.1247 30.6232 25.1456 30.6222 25.7749 30.0352C26.4041 29.4482 26.4033 28.4971 25.7731 27.911L22.1891 24.6024Z" fill="white"/>
<path d="M19.9992 9.5238C16.7636 9.5238 14.1406 11.9527 14.1406 14.9487C14.1406 17.9449 16.7636 20.3739 19.9992 20.3739C23.2349 20.3739 25.8578 17.9449 25.8578 14.9487C25.8578 11.9527 23.2349 9.5238 19.9992 9.5238ZM19.9992 17.1914C18.6617 17.1914 17.5774 16.1873 17.5774 14.9488C17.5774 13.7103 18.6617 12.7063 19.9992 12.7063C21.3367 12.7063 22.421 13.7103 22.421 14.9488C22.421 16.1873 21.3367 17.1914 19.9992 17.1914Z" fill="white"/>
</svg>
