<svg width="40" height="40" viewBox="0 0 40 40" fill="none" xmlns="http://www.w3.org/2000/svg">
<g clip-path="url(#clip0_44_1054)">
<path d="M20 0C14.6957 0 9.60859 2.10714 5.85786 5.85786C2.10714 9.60859 0 14.6957 0 20C0 25.3043 2.10714 30.3914 5.85786 34.1421C9.60859 37.8929 14.6957 40 20 40C25.3043 40 30.3914 37.8929 34.1421 34.1421C37.8929 30.3914 40 25.3043 40 20C40 14.6957 37.8929 9.60859 34.1421 5.85786C30.3914 2.10714 25.3043 0 20 0Z" fill="#2AB1EE"/>
<path d="M29.8732 11.0715L26.1569 30.0457C26.1569 30.0457 25.9972 30.9128 24.9218 30.9128C24.3504 30.9128 24.0557 30.641 24.0557 30.641L16.0061 23.9614L12.0676 21.9763L7.01308 20.632C7.01308 20.632 6.11328 20.3721 6.11328 19.6281C6.11328 19.008 7.03888 18.7124 7.03888 18.7124L28.1857 10.3116C28.1857 10.3116 28.8315 10.0785 29.3028 10.0795C29.5924 10.0795 29.9228 10.2035 29.9228 10.5755C29.9228 10.8235 29.8732 11.0715 29.8732 11.0715Z" fill="white"/>
<path d="M19.0101 26.4533L15.6113 29.8005C15.6113 29.8005 15.4635 29.9146 15.2661 29.9195C15.1976 29.9215 15.1242 29.9106 15.0488 29.8769L16.0052 23.9592L19.0101 26.4533Z" fill="#B0BEC5"/>
<path d="M25.8512 14.2419C25.6835 14.0237 25.374 13.984 25.1557 14.1497L12.0645 21.984C12.0645 21.984 14.1537 27.8292 14.4722 28.8412C14.7916 29.854 15.0476 29.8779 15.0476 29.8779L16.0039 23.9602L25.7579 14.9364C25.9762 14.7707 26.0168 14.4602 25.8512 14.2419Z" fill="#CFD8DC"/>
</g>
<defs>
<clipPath id="clip0_44_1054">
<rect width="40" height="40" fill="white"/>
</clipPath>
</defs>
</svg>
