<svg width="21" height="21" viewBox="0 0 21 21" fill="none" xmlns="http://www.w3.org/2000/svg">
<path d="M0 10.08C0 5.3277 0 2.9526 1.4763 1.4763C2.9526 0 5.3277 0 10.08 0H10.92C15.6723 0 18.0474 0 19.5237 1.4763C21 2.9526 21 5.3277 21 10.08V10.92C21 15.6723 21 18.0474 19.5237 19.5237C18.0474 21 15.6723 21 10.92 21H10.08C5.3277 21 2.9526 21 1.4763 19.5237C0 18.0474 0 15.6723 0 10.92V10.08Z" fill="#0077FF"/>
<path d="M12.2494 0C8.37066 0.0126 6.30636 0.1428 4.97496 1.4742C3.49866 2.9505 3.49866 5.3256 3.49866 10.0779V10.9179C3.49866 15.6702 3.49866 18.0453 4.97496 19.5216C6.30636 20.853 8.37066 20.9832 12.2494 20.9958C16.1281 20.9832 18.1924 20.853 19.5238 19.5216C21.0001 18.0453 21.0001 15.6702 21.0001 10.9179V10.0779C21.0001 5.3256 21.0001 2.9505 19.5238 1.4742C18.1924 0.1449 16.1281 0.0147 12.2494 0Z" fill="#FF2B42"/>
<path d="M14.8176 8.63335C15.8802 9.24655 16.4094 9.55315 16.5879 9.95215C16.7433 10.3007 16.7433 10.6997 16.5879 11.0483C16.4094 11.4494 15.8781 11.7539 14.8176 12.3671L11.9091 14.0471C10.8465 14.6603 10.3173 14.9669 9.88047 14.9207C9.50037 14.8808 9.15597 14.6813 8.93127 14.3726C8.67297 14.0177 8.67297 13.4045 8.67297 12.1802V8.82025C8.67297 7.59385 8.67297 6.98065 8.93127 6.62785C9.15597 6.31915 9.50037 6.11965 9.88047 6.07975C10.3152 6.03355 10.8465 6.34015 11.9091 6.95335L14.8176 8.63335Z" fill="white"/>
</svg>
