<svg width="40" height="40" viewBox="0 0 40 40" fill="none" xmlns="http://www.w3.org/2000/svg">
<circle cx="20" cy="20" r="20" fill="#47C756"/>
<path d="M20.014 9C13.9568 9 9.02584 13.9262 9.02364 19.9828C9.02254 21.9188 9.52967 23.8088 10.4912 25.4742L9 31L14.7562 29.64C16.3613 30.5156 18.1681 30.9753 20.0075 30.9764H20.0118C26.0679 30.9764 30.9967 26.0491 31 19.9936C31.0022 17.0577 29.8604 14.2973 27.7856 12.2205C25.7108 10.1448 22.9535 9.0011 20.014 9ZM20.0118 11.2C22.3616 11.2011 24.5699 12.1172 26.23 13.776C27.8901 15.437 28.802 17.644 28.7998 19.9914C28.7976 24.8358 24.8567 28.7764 20.0097 28.7764C18.5432 28.7753 17.0906 28.4071 15.8112 27.7086L15.0699 27.3047L14.2513 27.498L12.0855 28.0094L12.614 26.0457L12.8525 25.1648L12.397 24.3742C11.6291 23.0454 11.2227 21.5261 11.2238 19.9828C11.226 15.1406 15.168 11.2 20.0118 11.2ZM16.1249 14.9125C15.9412 14.9125 15.6441 14.9813 15.3922 15.2562C15.1403 15.5301 14.4296 16.1935 14.4296 17.5443C14.4296 18.8951 15.4137 20.2009 15.5512 20.3846C15.6876 20.5672 17.4507 23.4268 20.2417 24.5268C22.5607 25.4409 23.0317 25.2605 23.5356 25.2143C24.0394 25.1692 25.1611 24.5515 25.3899 23.9102C25.6187 23.2689 25.6192 22.7172 25.551 22.6039C25.4828 22.4895 25.2996 22.4213 25.0246 22.2838C24.7507 22.1463 23.4008 21.4835 23.1488 21.3922C22.8969 21.3009 22.7126 21.2547 22.53 21.5297C22.3474 21.8047 21.8226 22.4213 21.662 22.6039C21.5014 22.7876 21.3418 22.8123 21.0668 22.6748C20.7918 22.5362 19.9075 22.2455 18.858 21.3105C18.0417 20.5834 17.4909 19.6863 17.3303 19.4113C17.1708 19.1374 17.3153 18.987 17.4528 18.8506C17.576 18.7274 17.7257 18.5299 17.8632 18.3693C17.9996 18.2087 18.0469 18.0943 18.1382 17.9117C18.2295 17.7291 18.1828 17.568 18.1146 17.4305C18.0464 17.293 17.5122 15.9372 17.268 15.3938C17.0623 14.9373 16.845 14.9266 16.6492 14.9189C16.4897 14.9123 16.3075 14.9125 16.1249 14.9125Z" fill="white"/>
</svg>
