<svg width="37" height="27" viewBox="0 0 37 27" fill="none" xmlns="http://www.w3.org/2000/svg">
<path d="M36.1696 22.41C35.8005 24.3 34.2319 25.74 32.2943 26.01C29.2494 26.46 24.1746 27 18.4539 27C12.8254 27 7.75062 26.46 4.61347 26.01C2.67581 25.74 1.10723 24.3 0.738155 22.41C0.369078 20.34 0 17.28 0 13.5C0 9.72 0.369078 6.66 0.738155 4.59C1.10723 2.7 2.67581 1.26 4.61347 0.99C7.65835 0.54 12.7332 0 18.4539 0C24.1746 0 29.1571 0.54 32.2943 0.99C34.2319 1.26 35.8005 2.7 36.1696 4.59C36.5387 6.66 37 9.72 37 13.5C36.9077 17.28 36.5387 20.34 36.1696 22.41Z" fill="#FF3D00"/>
<path d="M14.7656 19.8002V7.2002L25.8379 13.5002L14.7656 19.8002Z" fill="white"/>
</svg>
